<?xml version="1.0" encoding="iso-8859-1"?>
<!-- Generator: Adobe Illustrator 19.0.0, SVG Export Plug-In . SVG Version: 6.00 Build 0)  -->
<svg xmlns="http://www.w3.org/2000/svg" xmlns:xlink="http://www.w3.org/1999/xlink" version="1.1" id="Capa_1" x="0px" y="0px" viewBox="0 0 512 512" style="enable-background:new 0 0 512 512;" xml:space="preserve">
<g>
	<g>
		<path d="M384,152c-0.336,0-0.672,0-0.992,0C375.104,88,321.168,40,256,40c-64.816,0-118.544,48.448-126.832,112.016    C57.76,150.688,0,209.04,0,280c0,19.216,4.144,37.68,12.336,54.896c2.656,5.568,8.288,9.12,14.448,9.12L485.216,344    c6.176,0,11.792-3.552,14.448-9.136C507.856,317.664,512,299.2,512,280C512,209.424,454.576,152,384,152z M474.544,312    l-437.088,0.032C33.84,301.808,32,291.072,32,280c0-52.944,43.056-96,96-96c4.064,0,8.448,0.352,13.792,1.12    c4.672,0.704,9.216-1.36,12.72-4.384C158.016,177.696,160,172.64,160,168c0-52.944,43.056-96,96-96    c52.944,0,96,43.056,96.016,95.456c-0.032,0.384-0.08,1.424-0.08,1.824c0,4.64,2.016,9.04,5.52,12.08    c3.504,3.04,8.128,4.432,12.752,3.744C375.552,184.368,379.936,184,384,184c52.944,0,96,43.056,96,96    C480,291.056,478.176,301.792,474.544,312z"/>
	</g>
</g>
<g>
	<g>
		<rect x="16" y="376" width="480" height="32"/>
	</g>
</g>
<g>
	<g>
		<rect x="16" y="440" width="480" height="32"/>
	</g>
</g>
<g>
</g>
<g>
</g>
<g>
</g>
<g>
</g>
<g>
</g>
<g>
</g>
<g>
</g>
<g>
</g>
<g>
</g>
<g>
</g>
<g>
</g>
<g>
</g>
<g>
</g>
<g>
</g>
<g>
</g>
</svg>
