<?xml version="1.0" encoding="iso-8859-1"?>
<!-- Generator: Adobe Illustrator 19.0.0, SVG Export Plug-In . SVG Version: 6.00 Build 0)  -->
<svg xmlns="http://www.w3.org/2000/svg" xmlns:xlink="http://www.w3.org/1999/xlink" version="1.1" id="Capa_1" x="0px" y="0px" viewBox="0 0 512 512" style="enable-background:new 0 0 512 512;" xml:space="preserve">
<g>
	<g>
		<path d="M432,68c-44.112,0-80,35.888-80,80h32c0-26.464,21.536-48,48-48s48,21.536,48,48s-21.536,48-48,48H0v32h432    c44.112,0,80-35.888,80-80S476.112,68,432,68z"/>
	</g>
</g>
<g>
	<g>
		<path d="M80,308h432v-32H80c-44.112,0-80,35.888-80,80s35.888,80,80,80s80-35.888,80-80h-32c0,26.464-21.536,48-48,48    s-48-21.536-48-48S53.536,308,80,308z"/>
	</g>
</g>
<g>
	<g>
		<path d="M456,356H208v32h248c13.232,0,24,12.768,24,26s-10.768,26-24,26s-24-20-24-20h-32c0,16,25.12,52,56,52s56-27.12,56-58    S486.88,356,456,356z"/>
	</g>
</g>
<g>
	<g>
		<path d="M56,116c-13.232,0-24-8.768-24-22s10.768-22,24-22s24,12,24,28h32c0-32-25.12-60-56-60S0,61.12,0,92s25.12,56,56,56h248    v-32H56z"/>
	</g>
</g>
<g>
</g>
<g>
</g>
<g>
</g>
<g>
</g>
<g>
</g>
<g>
</g>
<g>
</g>
<g>
</g>
<g>
</g>
<g>
</g>
<g>
</g>
<g>
</g>
<g>
</g>
<g>
</g>
<g>
</g>
</svg>
