<?xml version="1.0" encoding="iso-8859-1"?>
<!-- Generator: Adobe Illustrator 19.0.0, SVG Export Plug-In . SVG Version: 6.00 Build 0)  -->
<svg xmlns="http://www.w3.org/2000/svg" xmlns:xlink="http://www.w3.org/1999/xlink" version="1.1" id="Capa_1" x="0px" y="0px" viewBox="0 0 512 512" style="enable-background:new 0 0 512 512;" xml:space="preserve">
<g>
	<g>
		<path d="M432,72c-44.112,0-80,35.888-80,80h32c0-26.464,21.536-48,48-48s48,21.536,48,48s-21.536,48-48,48H0v32h432    c44.112,0,80-35.888,80-80S476.112,72,432,72z"/>
	</g>
</g>
<g>
	<g>
		<path d="M80,312h432v-32H80c-44.112,0-80,35.888-80,80s35.888,80,80,80s80-35.888,80-80h-32c0,26.464-21.536,48-48,48    s-48-21.536-48-48S53.536,312,80,312z"/>
	</g>
</g>
<g>
	<g>
		<rect y="120" width="160" height="32"/>
	</g>
</g>
<g>
	<g>
		<rect x="192" y="120" width="32" height="32"/>
	</g>
</g>
<g>
	<g>
		<rect x="352" y="360" width="160" height="32"/>
	</g>
</g>
<g>
	<g>
		<rect x="288" y="360" width="32" height="32"/>
	</g>
</g>
<g>
</g>
<g>
</g>
<g>
</g>
<g>
</g>
<g>
</g>
<g>
</g>
<g>
</g>
<g>
</g>
<g>
</g>
<g>
</g>
<g>
</g>
<g>
</g>
<g>
</g>
<g>
</g>
<g>
</g>
</svg>
