<?xml version="1.0" encoding="iso-8859-1"?>
<!-- Generator: Adobe Illustrator 19.0.0, SVG Export Plug-In . SVG Version: 6.00 Build 0)  -->
<svg xmlns="http://www.w3.org/2000/svg" xmlns:xlink="http://www.w3.org/1999/xlink" version="1.1" id="Capa_1" x="0px" y="0px" viewBox="0 0 512 512" style="enable-background:new 0 0 512 512;" xml:space="preserve">
<g>
	<g>
		<path d="M384,136c-0.336,0-0.672,0-0.992,0C375.104,72,321.168,24,256,24c-64.816,0-118.544,48.448-126.832,112.016    C128.784,136,128.384,136,128,136C57.424,136,0,193.424,0,264c0,19.216,4.144,37.68,12.336,54.896    c2.656,5.568,8.288,9.12,14.448,9.12L485.216,328c6.176,0,11.792-3.552,14.448-9.136C507.856,301.664,512,283.2,512,264    C512,193.424,454.576,136,384,136z M474.544,296l-437.088,0.032C33.84,285.808,32,275.072,32,264c0-52.944,43.056-96,96-96    c4.064,0,8.448,0.352,13.792,1.12c4.656,0.704,9.216-1.36,12.72-4.384C158.016,161.696,160,156.64,160,152    c0-52.944,43.056-96,96-96c52.944,0,96,43.056,96.016,95.456c-0.032,0.384-0.08,1.424-0.08,1.824c0,4.64,2.016,9.04,5.52,12.08    c3.504,3.04,8.144,4.432,12.752,3.744C375.552,168.368,379.936,168,384,168c52.944,0,96,43.056,96,96    C480,275.056,478.176,285.792,474.544,296z"/>
	</g>
</g>
<g>
	<g>
		<path d="M380.128,440.544C349.632,432.416,318.096,424,256,424s-93.632,8.4-124.128,16.544C102.064,448.496,73.904,456,16,456v32    c62.096,0,93.632-8.4,124.128-16.544C169.936,463.504,198.096,456,256,456s86.064,7.504,115.872,15.456    C402.368,479.6,433.904,488,496,488v-32C438.096,456,409.936,448.496,380.128,440.544z"/>
	</g>
</g>
<g>
	<g>
		<path d="M380.128,376.544C349.632,368.416,318.096,360,256,360s-93.632,8.4-124.128,16.544C102.064,384.496,73.904,392,16,392v32    c62.096,0,93.632-8.4,124.128-16.544C169.936,399.504,198.096,392,256,392s86.064,7.504,115.872,15.456    C402.368,415.6,433.904,424,496,424v-32C438.096,392,409.936,384.496,380.128,376.544z"/>
	</g>
</g>
<g>
</g>
<g>
</g>
<g>
</g>
<g>
</g>
<g>
</g>
<g>
</g>
<g>
</g>
<g>
</g>
<g>
</g>
<g>
</g>
<g>
</g>
<g>
</g>
<g>
</g>
<g>
</g>
<g>
</g>
</svg>
