<?xml version="1.0" encoding="iso-8859-1"?>
<!-- Generator: Adobe Illustrator 19.0.0, SVG Export Plug-In . SVG Version: 6.00 Build 0)  -->
<svg xmlns="http://www.w3.org/2000/svg" xmlns:xlink="http://www.w3.org/1999/xlink" version="1.1" id="Capa_1" x="0px" y="0px" viewBox="0 0 512 512" style="enable-background:new 0 0 512 512;" xml:space="preserve">
<g>
	<g>
		<path d="M384,136c-0.336,0-0.672,0-0.992,0C375.104,72,321.168,24,256,24c-64.816,0-118.544,48.448-126.832,112.016    C58.064,134.688,0,193.04,0,264c0,19.216,4.144,37.68,12.336,54.896c2.656,5.568,8.288,9.12,14.448,9.12L485.216,328    c6.176,0,11.792-3.552,14.448-9.136C507.856,301.664,512,283.2,512,264C512,193.424,454.576,136,384,136z M474.544,296    l-437.088,0.032C33.84,285.808,32,275.072,32,264c0-52.944,43.056-96,96-96c4.064,0,8.448,0.352,13.792,1.12    c4.672,0.704,9.216-1.36,12.72-4.384C158.016,161.696,160,156.64,160,152c0-52.944,43.056-96,96-96    c52.944,0,96,43.056,96.016,95.456c-0.032,0.384-0.08,1.424-0.08,1.824c0,4.64,2.016,9.04,5.52,12.08    c3.504,3.04,8.128,4.432,12.752,3.744C375.552,168.368,379.936,168,384,168c52.944,0,96,43.056,96,96    C480,275.056,478.176,285.792,474.544,296z"/>
	</g>
</g>
<g>
	<g>
		<path d="M421.936,377.136C400.848,368.72,379.056,360,335.968,360s-64.88,8.72-85.952,17.136    c-19.12,7.648-37.152,14.864-74.08,14.864c-36.912,0-54.944-7.216-74.016-14.848C80.848,368.72,59.056,360,16,360v32    c36.896,0,54.928,7.216,74.016,14.848C111.072,415.28,132.864,424,175.936,424c43.088,0,64.88-8.72,85.952-17.136    c19.104-7.648,37.136-14.864,74.08-14.864c36.944,0,54.976,7.216,74.08,14.864C431.12,415.28,452.912,424,496,424v-32    C459.072,392,441.024,384.784,421.936,377.136z"/>
	</g>
</g>
<g>
	<g>
		<path d="M421.936,441.136C400.848,432.72,379.056,424,335.968,424s-64.88,8.72-85.952,17.136    c-19.12,7.648-37.152,14.864-74.08,14.864c-36.912,0-54.944-7.216-74.016-14.848C80.848,432.72,59.056,424,16,424v32    c36.896,0,54.928,7.216,74.016,14.848C111.072,479.28,132.864,488,175.936,488c43.088,0,64.88-8.72,85.952-17.136    c19.104-7.648,37.136-14.864,74.08-14.864c36.944,0,54.976,7.216,74.08,14.864C431.12,479.28,452.912,488,496,488v-32    C459.072,456,441.024,448.784,421.936,441.136z"/>
	</g>
</g>
<g>
</g>
<g>
</g>
<g>
</g>
<g>
</g>
<g>
</g>
<g>
</g>
<g>
</g>
<g>
</g>
<g>
</g>
<g>
</g>
<g>
</g>
<g>
</g>
<g>
</g>
<g>
</g>
<g>
</g>
</svg>
