<?xml version="1.0" encoding="iso-8859-1"?>
<!-- Generator: Adobe Illustrator 19.0.0, SVG Export Plug-In . SVG Version: 6.00 Build 0)  -->
<svg xmlns="http://www.w3.org/2000/svg" xmlns:xlink="http://www.w3.org/1999/xlink" version="1.1" id="Capa_1" x="0px" y="0px" viewBox="0 0 512 512" style="enable-background:new 0 0 512 512;" xml:space="preserve">
<g>
	<g>
		<path d="M384,152c-0.336,0-0.672,0-0.992,0C375.104,88,321.168,40,256,40c-64.816,0-118.544,48.448-126.832,112.016    C128.784,152,128.384,152,128,152C57.424,152,0,209.408,0,280c0,18.24,3.728,35.008,12.096,54.352    C14.64,340.208,20.4,344,26.784,344H368c35.296,0,64-28.704,64-64c0-35.296-28.704-64-64-64c-35.296,0-64,28.704-64,64h32    c0-17.648,14.352-32,32-32s32,14.352,32,32s-14.352,32-32,32H37.664C33.728,300.816,32,290.832,32,280c0-52.928,43.056-96,96-96    c4.064,0,8.448,0.352,13.792,1.12c4.656,0.704,9.216-1.36,12.72-4.384C158.016,177.696,160,172.64,160,168    c0-52.944,43.056-96,96-96c52.944,0,96,43.056,96.016,95.456c-0.032,0.384-0.08,1.424-0.08,1.824c0,4.64,2.016,9.04,5.52,12.08    c3.504,3.04,8.096,4.432,12.752,3.744C375.552,184.368,379.936,184,384,184c52.944,0,96,43.056,96,96    c0,14.4-3.104,28.24-9.232,41.136l28.912,13.728C507.856,317.648,512,299.184,512,280C512,209.424,454.576,152,384,152z"/>
	</g>
</g>
<g>
	<g>
		<rect x="16" y="376" width="320" height="32"/>
	</g>
</g>
<g>
	<g>
		<rect x="240" y="440" width="256" height="32"/>
	</g>
</g>
<g>
	<g>
		<rect x="368" y="376" width="64" height="32"/>
	</g>
</g>
<g>
	<g>
		<rect x="464" y="376" width="32" height="32"/>
	</g>
</g>
<g>
	<g>
		<rect x="16" y="440" width="128" height="32"/>
	</g>
</g>
<g>
	<g>
		<rect x="176" y="440" width="32" height="32"/>
	</g>
</g>
<g>
</g>
<g>
</g>
<g>
</g>
<g>
</g>
<g>
</g>
<g>
</g>
<g>
</g>
<g>
</g>
<g>
</g>
<g>
</g>
<g>
</g>
<g>
</g>
<g>
</g>
<g>
</g>
<g>
</g>
</svg>
