<?xml version="1.0" encoding="iso-8859-1"?>
<!-- Generator: Adobe Illustrator 19.0.0, SVG Export Plug-In . SVG Version: 6.00 Build 0)  -->
<svg xmlns="http://www.w3.org/2000/svg" xmlns:xlink="http://www.w3.org/1999/xlink" version="1.1" id="Capa_1" x="0px" y="0px" viewBox="0 0 512 512" style="enable-background:new 0 0 512 512;" xml:space="preserve">
<g>
	<g>
		<path d="M256,0C114.842,0,0,114.842,0,256s114.842,256,256,256s256-114.842,256-256S397.158,0,256,0z M290.133,375.467V409.6    h125.594C375.33,451.584,318.72,477.867,256,477.867c-122.334,0-221.867-99.533-221.867-221.867    c0-23.825,3.874-46.746,10.854-68.267h142.746V153.6H59.375C96.444,82.705,170.598,34.133,256,34.133    c122.334,0,221.867,99.533,221.867,221.867c0,43.998-13.022,84.941-35.209,119.467H290.133z"/>
	</g>
</g>
<g>
	<g>
		<rect x="238.933" y="153.6" width="51.2" height="34.133"/>
	</g>
</g>
<g>
	<g>
		<rect x="187.733" y="375.467" width="51.2" height="34.133"/>
	</g>
</g>
<g>
	<g>
		<rect x="153.6" y="256" width="238.933" height="34.133"/>
	</g>
</g>
<g>
</g>
<g>
</g>
<g>
</g>
<g>
</g>
<g>
</g>
<g>
</g>
<g>
</g>
<g>
</g>
<g>
</g>
<g>
</g>
<g>
</g>
<g>
</g>
<g>
</g>
<g>
</g>
<g>
</g>
</svg>
