<?xml version="1.0" encoding="iso-8859-1"?>
<!-- Generator: Adobe Illustrator 19.0.0, SVG Export Plug-In . SVG Version: 6.00 Build 0)  -->
<svg xmlns="http://www.w3.org/2000/svg" xmlns:xlink="http://www.w3.org/1999/xlink" version="1.1" id="Capa_1" x="0px" y="0px" viewBox="0 0 512 512" style="enable-background:new 0 0 512 512;" xml:space="preserve">
<g>
	<g>
		<path d="M320,273.28V48c0-26.464-21.536-48-48-48h-32c-26.464,0-48,21.536-48,48v225.28C152.816,296,128,338.4,128,384    c0,70.576,57.424,128,128,128s128-57.424,128-128C384,338.4,359.184,296,320,273.28z M256,480c-52.944,0-96-43.056-96-96    c0-36.752,21.536-70.768,54.88-86.64c5.568-2.64,9.12-8.272,9.12-14.432V48c0-8.816,7.184-16,16-16h32c8.816,0,16,7.184,16,16    v234.928c0,6.176,3.552,11.792,9.12,14.448C330.464,313.232,352,347.248,352,384C352,436.944,308.944,480,256,480z"/>
	</g>
</g>
<g>
</g>
<g>
</g>
<g>
</g>
<g>
</g>
<g>
</g>
<g>
</g>
<g>
</g>
<g>
</g>
<g>
</g>
<g>
</g>
<g>
</g>
<g>
</g>
<g>
</g>
<g>
</g>
<g>
</g>
</svg>
