<?xml version="1.0" encoding="iso-8859-1"?>
<!-- Generator: Adobe Illustrator 19.0.0, SVG Export Plug-In . SVG Version: 6.00 Build 0)  -->
<svg xmlns="http://www.w3.org/2000/svg" xmlns:xlink="http://www.w3.org/1999/xlink" version="1.1" id="Capa_1" x="0px" y="0px" viewBox="0 0 512 512" style="enable-background:new 0 0 512 512;" xml:space="preserve">
<g>
	<g>
		<path d="M256,96c-88.224,0-160,71.776-160,160s71.776,160,160,160s160-71.776,160-160S344.224,96,256,96z M256,384    c-70.576,0-128-57.424-128-128s57.424-128,128-128s128,57.424,128,128S326.576,384,256,384z"/>
	</g>
</g>
<g>
	<g>
		<rect x="240" width="32" height="64"/>
	</g>
</g>
<g>
	<g>
		<rect x="240" y="448" width="32" height="64"/>
	</g>
</g>
<g>
	<g>
		<rect x="448" y="240" width="64" height="32"/>
	</g>
</g>
<g>
	<g>
		<rect y="240" width="64" height="32"/>
	</g>
</g>
<g>
	<g>
		<rect x="374.064" y="71.995" transform="matrix(0.7071 -0.7071 0.7071 0.7071 57.2811 314.2776)" width="67.887" height="32"/>
	</g>
</g>
<g>
	<g>
		<rect x="88.009" y="54.06" transform="matrix(0.7071 -0.7071 0.7071 0.7071 -31.7648 99.321)" width="32" height="67.887"/>
	</g>
</g>
<g>
	<g>
		<rect x="70.067" y="407.995" transform="matrix(0.7071 -0.7071 0.7071 0.7071 -269.3453 197.7316)" width="67.887" height="32"/>
	</g>
</g>
<g>
	<g>
		<rect x="391.993" y="390.064" transform="matrix(0.7071 -0.7071 0.7071 0.7071 -180.3201 412.6833)" width="32" height="67.887"/>
	</g>
</g>
<g>
</g>
<g>
</g>
<g>
</g>
<g>
</g>
<g>
</g>
<g>
</g>
<g>
</g>
<g>
</g>
<g>
</g>
<g>
</g>
<g>
</g>
<g>
</g>
<g>
</g>
<g>
</g>
<g>
</g>
</svg>
