<?xml version="1.0" encoding="iso-8859-1"?>
<!-- Generator: Adobe Illustrator 19.0.0, SVG Export Plug-In . SVG Version: 6.00 Build 0)  -->
<svg xmlns="http://www.w3.org/2000/svg" xmlns:xlink="http://www.w3.org/1999/xlink" version="1.1" id="Capa_1" x="0px" y="0px" viewBox="0 0 512 512" style="enable-background:new 0 0 512 512;" xml:space="preserve">
<g>
	<g>
		<path d="M408.448,280c4.864-15.44,7.552-31.456,7.552-48c0-88.224-71.776-160-160-160S96,143.776,96,232    c0,15.92,2.944,31.984,8.304,48H0v32h128h257.024c0.016,0,0.032,0,0.048,0H512v-32H408.448z M374.704,280H138.256    C131.44,263.84,128,247.728,128,232c0-70.576,57.424-128,128-128s128,57.424,128,128C384,248.688,380.88,264.8,374.704,280z"/>
	</g>
</g>
<g>
	<g>
		<rect y="344" width="512" height="32"/>
	</g>
</g>
<g>
	<g>
		<rect y="408" width="512" height="32"/>
	</g>
</g>
<g>
</g>
<g>
</g>
<g>
</g>
<g>
</g>
<g>
</g>
<g>
</g>
<g>
</g>
<g>
</g>
<g>
</g>
<g>
</g>
<g>
</g>
<g>
</g>
<g>
</g>
<g>
</g>
<g>
</g>
</svg>
