<?xml version="1.0" encoding="iso-8859-1"?>
<!-- Generator: Adobe Illustrator 19.0.0, SVG Export Plug-In . SVG Version: 6.00 Build 0)  -->
<svg xmlns="http://www.w3.org/2000/svg" xmlns:xlink="http://www.w3.org/1999/xlink" version="1.1" id="Capa_1" x="0px" y="0px" viewBox="0 0 512 512" style="enable-background:new 0 0 512 512;" xml:space="preserve">
<g>
	<g>
		<path d="M408.432,328c4.88-15.44,7.568-31.456,7.568-48c0-88.224-71.776-160-160-160S96,191.776,96,280    c0,15.92,2.944,31.984,8.304,48H0v32h128h257.024c0.016,0,0.032,0,0.048,0H512v-32H408.432z M374.704,328H138.256    C131.44,311.84,128,295.728,128,280c0-70.576,57.424-128,128-128s128,57.424,128,128C384,296.704,380.88,312.8,374.704,328z"/>
	</g>
</g>
<g>
	<g>
		<rect x="240" y="24" width="32" height="64"/>
	</g>
</g>
<g>
	<g>
		<rect x="448" y="248" width="64" height="32"/>
	</g>
</g>
<g>
	<g>
		<rect y="248" width="64" height="32"/>
	</g>
</g>
<g>
	<g>
		<rect x="390.067" y="111.994" transform="matrix(0.7071 -0.7071 0.7071 0.7071 33.684 337.3091)" width="67.887" height="32"/>
	</g>
</g>
<g>
	<g>
		<rect x="72.009" y="94.064" transform="matrix(0.7071 -0.7071 0.7071 0.7071 -64.7376 99.7241)" width="32" height="67.887"/>
	</g>
</g>
<g>
	<g>
		<rect y="392" width="512" height="32"/>
	</g>
</g>
<g>
	<g>
		<rect y="456" width="512" height="32"/>
	</g>
</g>
<g>
</g>
<g>
</g>
<g>
</g>
<g>
</g>
<g>
</g>
<g>
</g>
<g>
</g>
<g>
</g>
<g>
</g>
<g>
</g>
<g>
</g>
<g>
</g>
<g>
</g>
<g>
</g>
<g>
</g>
</svg>
