<?xml version="1.0" encoding="iso-8859-1"?>
<!-- Generator: Adobe Illustrator 19.0.0, SVG Export Plug-In . SVG Version: 6.00 Build 0)  -->
<svg xmlns="http://www.w3.org/2000/svg" xmlns:xlink="http://www.w3.org/1999/xlink" version="1.1" id="Capa_1" x="0px" y="0px" viewBox="0 0 512 512" style="enable-background:new 0 0 512 512;" xml:space="preserve">
<g>
	<g>
		<path d="M384,128c-0.336,0-0.672,0-0.992,0C375.104,64,321.168,16,256,16c-64.816,0-118.544,48.448-126.832,112.016    C128.784,128,128.384,128,128,128C57.424,128,0,185.424,0,256s57.424,128,128,128v-32c-52.944,0-96-43.056-96-96    c0-52.944,43.056-96,96-96c4.064,0,8.448,0.352,13.792,1.12c4.672,0.672,9.216-1.344,12.72-4.384    C158.016,153.696,160,148.64,160,144c0-52.944,43.056-96,96-96c52.944,0,96,43.056,96.016,95.456    c-0.032,0.384-0.08,1.424-0.08,1.824c0,4.64,2.016,9.04,5.52,12.08c3.504,3.04,8.144,4.4,12.752,3.744    C375.552,160.368,379.936,160,384,160c52.944,0,96,43.056,96,96c0,52.944-43.056,96-96,96v32c70.576,0,128-57.424,128-128    S454.576,128,384,128z"/>
	</g>
</g>
<g>
	<g>
		<polygon points="272,352 272,320 240,320 240,352 208,352 208,384 240,384 240,416 272,416 272,384 304,384 304,352   "/>
	</g>
</g>
<g>
	<g>
		<polygon points="176,432 176,400 144,400 144,432 112,432 112,464 144,464 144,496 176,496 176,464 208,464 208,432   "/>
	</g>
</g>
<g>
	<g>
		<polygon points="368,432 368,400 336,400 336,432 304,432 304,464 336,464 336,496 368,496 368,464 400,464 400,432   "/>
	</g>
</g>
<g>
</g>
<g>
</g>
<g>
</g>
<g>
</g>
<g>
</g>
<g>
</g>
<g>
</g>
<g>
</g>
<g>
</g>
<g>
</g>
<g>
</g>
<g>
</g>
<g>
</g>
<g>
</g>
<g>
</g>
</svg>
