<?xml version="1.0" encoding="iso-8859-1"?>
<!-- Generator: Adobe Illustrator 19.0.0, SVG Export Plug-In . SVG Version: 6.00 Build 0)  -->
<svg xmlns="http://www.w3.org/2000/svg" xmlns:xlink="http://www.w3.org/1999/xlink" version="1.1" id="Capa_1" x="0px" y="0px" viewBox="0 0 512 512" style="enable-background:new 0 0 512 512;" xml:space="preserve">
<g>
	<g>
		<path d="M384,144c-0.336,0-0.672,0-0.992,0C375.104,80,321.168,32,256,32c-64.816,0-118.544,48.448-126.832,112.016    C128.784,144,128.384,144,128,144C57.424,144,0,201.424,0,272s57.424,128,128,128v-32c-52.944,0-96-43.056-96-96    c0-52.944,43.056-96,96-96c4.064,0,8.448,0.352,13.792,1.12c4.624,0.672,9.216-1.344,12.72-4.384    C158.016,169.696,160,164.64,160,160c0-52.944,43.056-96,96-96c52.944,0,96,43.056,96.016,95.456    c-0.032,0.384-0.08,1.424-0.08,1.824c0,4.64,2.016,9.04,5.52,12.08c3.504,3.04,8.112,4.4,12.752,3.744    C375.552,176.368,379.936,176,384,176c52.944,0,96,43.056,96,96c0,52.944-43.056,96-96,96v32c70.576,0,128-57.424,128-128    S454.576,144,384,144z"/>
	</g>
</g>
<g>
	<g>
		<polygon points="352,368 294.624,368 335.2,327.44 312.576,304.816 272,345.376 272,288 240,288 240,345.376 199.424,304.816     176.8,327.44 217.376,368 160,368 160,400 217.376,400 176.8,440.576 199.424,463.2 240,422.624 240,480 272,480 272,422.624     312.576,463.2 335.2,440.576 294.624,400 352,400   "/>
	</g>
</g>
<g>
</g>
<g>
</g>
<g>
</g>
<g>
</g>
<g>
</g>
<g>
</g>
<g>
</g>
<g>
</g>
<g>
</g>
<g>
</g>
<g>
</g>
<g>
</g>
<g>
</g>
<g>
</g>
<g>
</g>
</svg>
