<?xml version="1.0" encoding="iso-8859-1"?>
<!-- Generator: Adobe Illustrator 19.0.0, SVG Export Plug-In . SVG Version: 6.00 Build 0)  -->
<svg xmlns="http://www.w3.org/2000/svg" xmlns:xlink="http://www.w3.org/1999/xlink" version="1.1" id="Capa_1" x="0px" y="0px" viewBox="0 0 512 512" style="enable-background:new 0 0 512 512;" xml:space="preserve">
<g>
	<g>
		<path d="M384,184c-0.336,0-0.672,0-0.992,0C375.104,120,321.168,72,256,72c-64.816,0-118.544,48.448-126.832,112.016    C128.784,184,128.384,184,128,184C57.424,184,0,241.424,0,312s57.424,128,128,128h256c70.576,0,128-57.424,128-128    S454.576,184,384,184z M384,408H128c-52.944,0-96-43.056-96-96c0-52.944,43.056-96,96-96c4.064,0,8.448,0.352,13.792,1.12    c4.672,0.672,9.216-1.344,12.72-4.384C158.016,209.696,160,204.64,160,200c0-52.944,43.056-96,96-96    c52.944,0,96,43.056,96.016,95.456c-0.032,0.384-0.08,1.424-0.08,1.824c0,4.64,2.016,9.04,5.52,12.08    c3.504,3.024,8.128,4.4,12.752,3.744C375.552,216.368,379.936,216,384,216c52.944,0,96,43.056,96,96    C480,364.944,436.944,408,384,408z"/>
	</g>
</g>
<g>
</g>
<g>
</g>
<g>
</g>
<g>
</g>
<g>
</g>
<g>
</g>
<g>
</g>
<g>
</g>
<g>
</g>
<g>
</g>
<g>
</g>
<g>
</g>
<g>
</g>
<g>
</g>
<g>
</g>
</svg>
