<?xml version="1.0" encoding="iso-8859-1"?>
<!-- Generator: Adobe Illustrator 19.0.0, SVG Export Plug-In . SVG Version: 6.00 Build 0)  -->
<svg xmlns="http://www.w3.org/2000/svg" xmlns:xlink="http://www.w3.org/1999/xlink" version="1.1" id="Capa_1" x="0px" y="0px" viewBox="0 0 512 512" style="enable-background:new 0 0 512 512;" xml:space="preserve">
<g>
	<g>
		<path d="M384,130.344c-0.336,0-0.656,0-1.008,0c-7.888-64-61.824-112-126.992-112c-64.816,0-118.544,48.448-126.832,112.016    c-0.384-0.016-0.784-0.016-1.168-0.016c-70.576,0-128,57.424-128,128s57.424,128,128,128v-32c-52.944,0-96-43.056-96-96    c0-52.944,43.056-96,96-96c4.064,0,8.448,0.352,13.792,1.12c4.64,0.672,9.216-1.344,12.72-4.384    c3.504-3.04,5.488-8.096,5.488-12.736c0-52.944,43.056-96,96-96c52.944,0,96,43.056,96.016,95.456    c-0.032,0.384-0.08,1.424-0.08,1.824c0,4.64,2.016,9.04,5.52,12.08c3.504,3.04,8.16,4.4,12.752,3.744    c5.344-0.736,9.728-1.104,13.792-1.104c52.944,0,96,43.056,96,96c0,52.944-43.056,96-96,96v32c70.576,0,128-57.424,128-128    S454.576,130.344,384,130.344z"/>
	</g>
</g>
<g>
	<g>
		<path d="M318.784,380.216c-2.48-5.968-8.32-9.872-14.784-9.872h-57.376l68.688-68.688l-22.624-22.624l-96,96    c-4.576,4.576-5.952,11.456-3.472,17.44s8.32,9.872,14.784,9.872h57.376l-68.688,68.688l22.624,22.624l96-96    C319.888,393.08,321.264,386.2,318.784,380.216z"/>
	</g>
</g>
<g>
</g>
<g>
</g>
<g>
</g>
<g>
</g>
<g>
</g>
<g>
</g>
<g>
</g>
<g>
</g>
<g>
</g>
<g>
</g>
<g>
</g>
<g>
</g>
<g>
</g>
<g>
</g>
<g>
</g>
</svg>
