<?xml version="1.0" encoding="iso-8859-1"?>
<!-- Generator: Adobe Illustrator 19.0.0, SVG Export Plug-In . SVG Version: 6.00 Build 0)  -->
<svg xmlns="http://www.w3.org/2000/svg" xmlns:xlink="http://www.w3.org/1999/xlink" version="1.1" id="Capa_1" x="0px" y="0px" viewBox="0 0 512 512" style="enable-background:new 0 0 512 512;" xml:space="preserve">
<g>
	<g>
		<path d="M384,152c-0.336,0-0.672,0-0.992,0C375.104,88,321.168,40,256,40c-64.816,0-118.544,48.448-126.832,112.016    C128.784,152,128.384,152,128,152C57.424,152,0,209.424,0,280s57.424,128,128,128v-32c-52.944,0-96-43.056-96-96    c0-52.944,43.056-96,96-96c4.064,0,8.448,0.352,13.792,1.12c4.64,0.672,9.216-1.344,12.72-4.384    C158.016,177.696,160,172.64,160,168c0-52.944,43.056-96,96-96c52.944,0,96,43.056,96.016,95.456    c-0.032,0.384-0.08,1.424-0.08,1.824c0,4.64,2.016,9.04,5.52,12.08c3.504,3.04,8.112,4.4,12.752,3.744    C375.552,184.368,379.936,184,384,184c52.944,0,96,43.056,96,96c0,52.944-43.056,96-96,96v32c70.576,0,128-57.424,128-128    S454.576,152,384,152z"/>
	</g>
</g>
<g>
	<g>
		<rect x="240" y="376" width="32" height="96"/>
	</g>
</g>
<g>
	<g>
		<rect x="320" y="376" width="32" height="96"/>
	</g>
</g>
<g>
	<g>
		<rect x="160" y="376" width="32" height="96"/>
	</g>
</g>
<g>
</g>
<g>
</g>
<g>
</g>
<g>
</g>
<g>
</g>
<g>
</g>
<g>
</g>
<g>
</g>
<g>
</g>
<g>
</g>
<g>
</g>
<g>
</g>
<g>
</g>
<g>
</g>
<g>
</g>
</svg>
