<?xml version="1.0" encoding="iso-8859-1"?>
<!-- Generator: Adobe Illustrator 19.0.0, SVG Export Plug-In . SVG Version: 6.00 Build 0)  -->
<svg xmlns="http://www.w3.org/2000/svg" xmlns:xlink="http://www.w3.org/1999/xlink" version="1.1" id="Capa_1" x="0px" y="0px" viewBox="0 0 512 512" style="enable-background:new 0 0 512 512;" xml:space="preserve">
<g>
	<g>
		<rect x="240" y="416" width="32" height="96"/>
	</g>
</g>
<g>
	<g>
		<rect x="320" y="416" width="32" height="96"/>
	</g>
</g>
<g>
	<g>
		<rect x="160" y="416" width="32" height="96"/>
	</g>
</g>
<g>
	<g>
		<path d="M512,160v-32h-49.44c-2.464-14.544-8.16-27.984-16.4-39.536l45.152-45.152l-22.624-22.624L423.536,65.84    C411.984,57.6,398.544,51.904,384,49.44V0h-32v49.456c-23.76,4.016-44.96,16.864-59.648,35.76C280.816,81.84,268.624,80,256,80    c-64.816,0-118.544,48.432-126.832,112C58.224,190.944,0,249.024,0,320c0,70.576,57.424,128,128,128v-32    c-52.944,0-96-43.056-96-96c0-52.944,43.056-96,96-96c4.064,0,8.448,0.352,13.792,1.12c4.624,0.688,9.216-1.344,12.72-4.384    C158.016,217.68,160,212.64,160,208c0-52.944,43.056-96,96-96c52.944,0,96,43.056,96.016,95.456    c-0.032,0.384-0.08,1.424-0.08,1.824c0,4.64,2.016,9.04,5.52,12.08c3.504,3.024,8.112,4.4,12.752,3.744    C375.552,224.352,379.936,224,384,224c52.944,0,96,43.056,96,96c0,52.944-43.056,96-96,96v32c70.576,0,128-57.424,128-128    c0-49.888-28.752-93.104-70.512-114.208c11.056-13.072,18.224-28.816,21.04-45.792H512z M407.408,194.24    C399.808,192.832,392,192,384,192c-0.336,0-0.672,0-0.992,0c-4.928-39.904-27.744-73.568-60.032-93.28    C334.768,87.024,350.768,80,368,80c35.296,0,64,28.704,64,64C432,163.84,422.992,182.016,407.408,194.24z"/>
	</g>
</g>
<g>
</g>
<g>
</g>
<g>
</g>
<g>
</g>
<g>
</g>
<g>
</g>
<g>
</g>
<g>
</g>
<g>
</g>
<g>
</g>
<g>
</g>
<g>
</g>
<g>
</g>
<g>
</g>
<g>
</g>
</svg>
