<?xml version="1.0" encoding="iso-8859-1"?>
<!-- Generator: Adobe Illustrator 19.0.0, SVG Export Plug-In . SVG Version: 6.00 Build 0)  -->
<svg xmlns="http://www.w3.org/2000/svg" xmlns:xlink="http://www.w3.org/1999/xlink" version="1.1" id="Capa_1" x="0px" y="0px" viewBox="0 0 512 512" style="enable-background:new 0 0 512 512;" xml:space="preserve">
<g>
	<g>
		<path d="M441.488,213.792C455.952,196.688,464,175.072,464,152c0-52.944-43.056-96-96-96c-30.064,0-57.728,14.16-75.648,37.216    C280.816,89.84,268.624,88,256,88c-64.816,0-118.544,48.432-126.832,112c-0.384,0-0.784,0-1.168,0C57.424,200,0,257.424,0,328    s57.424,128,128,128h256c70.576,0,128-57.424,128-128C512,278.112,483.248,234.896,441.488,213.792z M368,88    c35.296,0,64,28.704,64,64c0,19.84-9.008,38.016-24.592,50.24C399.808,200.832,392,200,384,200c-0.336,0-0.672,0-0.992,0    c-4.928-39.904-27.744-73.568-60.032-93.28C334.768,95.024,350.768,88,368,88z M384,424H128c-52.944,0-96-43.056-96-96    c0-52.944,43.056-96,96-96c4.064,0,8.448,0.352,13.792,1.12c4.64,0.688,9.216-1.344,12.72-4.384    C158.016,225.696,160,220.64,160,216c0-52.944,43.056-96,96-96c52.944,0,96,43.056,96.016,95.456    c-0.032,0.384-0.08,1.424-0.08,1.824c0,4.64,2.016,9.04,5.52,12.08c3.504,3.04,8.112,4.416,12.752,3.744    C375.552,232.352,379.936,232,384,232c52.944,0,96,43.056,96,96C480,380.944,436.944,424,384,424z"/>
	</g>
</g>
<g>
</g>
<g>
</g>
<g>
</g>
<g>
</g>
<g>
</g>
<g>
</g>
<g>
</g>
<g>
</g>
<g>
</g>
<g>
</g>
<g>
</g>
<g>
</g>
<g>
</g>
<g>
</g>
<g>
</g>
</svg>
