<?xml version="1.0" encoding="iso-8859-1"?>
<!-- Generator: Adobe Illustrator 19.0.0, SVG Export Plug-In . SVG Version: 6.00 Build 0)  -->
<svg xmlns="http://www.w3.org/2000/svg" xmlns:xlink="http://www.w3.org/1999/xlink" version="1.1" id="Capa_1" x="0px" y="0px" viewBox="0 0 512 512" style="enable-background:new 0 0 512 512;" xml:space="preserve">
<g>
	<g>
		<path d="M64,0C28.704,0,0,28.704,0,64s28.704,64,64,64s64-28.704,64-64S99.296,0,64,0z M64,96c-17.648,0-32-14.352-32-32    s14.352-32,32-32s32,14.352,32,32S81.648,96,64,96z"/>
	</g>
</g>
<g>
	<g>
		<path d="M344,480c-74.992,0-136-61.008-136-136V168c0-74.992,61.008-136,136-136s136,61.008,136,136h32C512,75.36,436.64,0,344,0    S176,75.36,176,168v176c0,92.64,75.36,168,168,168s168-75.36,168-168h-32C480,418.992,418.992,480,344,480z"/>
	</g>
</g>
<g>
</g>
<g>
</g>
<g>
</g>
<g>
</g>
<g>
</g>
<g>
</g>
<g>
</g>
<g>
</g>
<g>
</g>
<g>
</g>
<g>
</g>
<g>
</g>
<g>
</g>
<g>
</g>
<g>
</g>
</svg>
