<?xml version="1.0" encoding="iso-8859-1"?>
<!-- Generator: Adobe Illustrator 16.0.0, SVG Export Plug-In . SVG Version: 6.00 Build 0)  -->
<!DOCTYPE svg PUBLIC "-//W3C//DTD SVG 1.1//EN" "http://www.w3.org/Graphics/SVG/1.1/DTD/svg11.dtd">
<svg version="1.1" id="Capa_1" xmlns="http://www.w3.org/2000/svg" xmlns:xlink="http://www.w3.org/1999/xlink" x="0px" y="0px"
	 width="106.06px" height="106.06px" viewBox="0 0 106.06 106.06" style="enable-background:new 0 0 106.06 106.06;"
	 xml:space="preserve">
<g>
	<path d="M15.515,15.513C-5.172,36.199-5.17,69.857,15.517,90.547c20.682,20.685,54.34,20.685,75.028-0.006
		c20.686-20.684,20.684-54.34,0.002-75.022C69.857-5.172,36.199-5.172,15.515,15.513z M84.759,84.758
		c-17.494,17.492-45.963,17.494-63.456,0.002c-17.498-17.498-17.496-45.966,0-63.46C38.795,3.807,67.263,3.805,84.761,21.303
		C102.255,38.795,102.253,67.263,84.759,84.758z M45.83,90.578c3.139,0.939,6.307,1.385,9.427,1.385
		c14.19,0,27.332-9.25,31.604-23.522l-26.922,1.051L45.83,90.578z M56.525,87.918c-0.422,0.021-0.844,0.045-1.27,0.045
		c-0.927,0-1.853-0.045-2.773-0.135l4.043-6.045V87.918z M77.191,72.82l3.603-0.142c-1.011,1.867-2.228,3.599-3.603,5.183V72.82z
		 M68.359,73.164l5.832-0.227v7.911c-1.779,1.537-3.733,2.867-5.832,3.938V73.164z M65.359,73.281v12.824
		c-1.873,0.705-3.826,1.223-5.834,1.526V77.299l2.604-3.891L65.359,73.281z M63.766,46.336c-1.229-1.229-1.229-3.221,0-4.451
		l9.457-9.455c1.229-1.229,3.221-1.229,4.451,0c1.229,1.229,1.229,3.223-0.002,4.451l-9.455,9.455
		C66.988,47.564,64.994,47.564,63.766,46.336z M77.878,48.711c0,2.254-1.826,4.08-4.078,4.08s-4.078-1.826-4.078-4.08
		c0-2.252,1.826-4.08,4.078-4.08S77.878,46.459,77.878,48.711z M42.292,41.884c1.229,1.23,1.229,3.223,0,4.451s-3.223,1.229-4.451,0
		l-9.455-9.455c-1.229-1.229-1.229-3.223,0-4.451s3.221-1.229,4.451,0L42.292,41.884z M36.338,48.711c0,2.254-1.828,4.08-4.08,4.08
		s-4.078-1.826-4.078-4.08c0-2.252,1.826-4.08,4.078-4.08S36.338,46.459,36.338,48.711z"/>
</g>
<g>
</g>
<g>
</g>
<g>
</g>
<g>
</g>
<g>
</g>
<g>
</g>
<g>
</g>
<g>
</g>
<g>
</g>
<g>
</g>
<g>
</g>
<g>
</g>
<g>
</g>
<g>
</g>
<g>
</g>
</svg>
