<?xml version="1.0" encoding="iso-8859-1"?>
<!-- Generator: Adobe Illustrator 16.0.0, SVG Export Plug-In . SVG Version: 6.00 Build 0)  -->
<!DOCTYPE svg PUBLIC "-//W3C//DTD SVG 1.1//EN" "http://www.w3.org/Graphics/SVG/1.1/DTD/svg11.dtd">
<svg version="1.1" id="Capa_1" xmlns="http://www.w3.org/2000/svg" xmlns:xlink="http://www.w3.org/1999/xlink" x="0px" y="0px"
	 width="106.059px" height="106.059px" viewBox="0 0 106.059 106.059" style="enable-background:new 0 0 106.059 106.059;"
	 xml:space="preserve">
<g>
	<path d="M90.544,90.542c20.687-20.685,20.685-54.342,0.002-75.024C69.858-5.172,36.198-5.172,15.515,15.513
		C-5.173,36.198-5.171,69.858,15.517,90.547C36.198,111.23,69.858,111.23,90.544,90.542z M21.302,21.3
		C38.795,3.807,67.261,3.805,84.759,21.302c17.494,17.494,17.492,45.962-0.002,63.455c-17.494,17.494-45.961,17.496-63.455,0.002
		C3.804,67.263,3.806,38.794,21.302,21.3z M35.349,84.059h35.36c4.688,0,8.486-3.8,8.486-8.486V65.82
		c0-4.687-3.799-8.485-8.486-8.485h-35.36c-4.687,0-8.486,3.8-8.486,8.485v9.752C26.862,80.259,30.662,84.059,35.349,84.059z
		 M67.104,60.638h5.321c1.297,0.938,2.271,2.294,2.726,3.872v4.175h-8.047V60.638z M67.104,72.707h8.047v4.176
		c-0.454,1.578-1.428,2.933-2.726,3.872h-5.321V72.707z M55.048,60.638h8.033v8.047h-8.033V60.638z M55.048,72.707h8.033v8.047
		h-8.033V72.707z M42.979,60.638h8.033v8.047h-8.033V60.638z M42.979,72.707h8.033v8.047h-8.033V72.707z M30.907,64.51
		c0.454-1.578,1.428-2.934,2.725-3.872h5.322v8.047h-8.047V64.51z M30.907,72.707h8.047v8.047h-5.322
		c-1.297-0.938-2.271-2.293-2.725-3.872V72.707z M28.384,36.17c-1.229-1.229-1.229-3.223,0-4.451c1.229-1.229,3.222-1.229,4.451,0
		l9.456,9.455c1.229,1.229,1.229,3.222,0,4.45c-1.229,1.229-3.222,1.229-4.451,0L28.384,36.17z M63.766,45.626
		c-1.229-1.229-1.228-3.224,0-4.451l9.456-9.455c1.229-1.229,3.223-1.229,4.451,0c1.229,1.229,1.229,3.222,0,4.451l-9.456,9.456
		C66.988,46.854,64.995,46.854,63.766,45.626z"/>
</g>
<g>
</g>
<g>
</g>
<g>
</g>
<g>
</g>
<g>
</g>
<g>
</g>
<g>
</g>
<g>
</g>
<g>
</g>
<g>
</g>
<g>
</g>
<g>
</g>
<g>
</g>
<g>
</g>
<g>
</g>
</svg>
