<?xml version="1.0" encoding="iso-8859-1"?>
<!-- Generator: Adobe Illustrator 16.0.0, SVG Export Plug-In . SVG Version: 6.00 Build 0)  -->
<!DOCTYPE svg PUBLIC "-//W3C//DTD SVG 1.1//EN" "http://www.w3.org/Graphics/SVG/1.1/DTD/svg11.dtd">
<svg version="1.1" id="Capa_1" xmlns="http://www.w3.org/2000/svg" xmlns:xlink="http://www.w3.org/1999/xlink" x="0px" y="0px"
	 width="106.06px" height="106.06px" viewBox="0 0 106.06 106.06" style="enable-background:new 0 0 106.06 106.06;"
	 xml:space="preserve">
<g>
	<path d="M90.547,15.518C69.858-5.172,36.2-5.172,15.516,15.513C-5.172,36.199-5.17,69.857,15.518,90.547
		c20.682,20.685,54.34,20.685,75.026-0.005C111.23,69.857,111.229,36.201,90.547,15.518z M84.758,84.758
		c-17.493,17.493-45.961,17.495-63.455,0.003c-17.498-17.498-17.495-45.967,0-63.461C38.796,3.808,67.263,3.806,84.76,21.303
		C102.254,38.796,102.252,67.264,84.758,84.758z M39.441,45.873c-2.258,0-4.09-2.776-4.09-6.202c0-3.425,1.832-6.201,4.09-6.201
		c2.258,0,4.09,2.776,4.09,6.201S41.699,45.873,39.441,45.873z M71.649,39.671c0,3.426-1.832,6.202-4.091,6.202
		c-2.258,0-4.09-2.776-4.09-6.202c0-3.425,1.832-6.201,4.09-6.201C69.817,33.47,71.649,36.246,71.649,39.671z M65.863,71.17
		c0,8.183-5.755,14.84-12.833,14.84s-12.833-6.657-12.833-14.84c0-8.182,5.755-14.835,12.833-14.835S65.863,62.988,65.863,71.17z
		 M72.724,24.547c0.545,1.648-0.351,3.432-1.999,3.978l-16.681,5.521c-0.194,0.064-0.395,0.11-0.601,0.138
		c-0.027,0.004-0.055,0.012-0.082,0.015c-0.109,0.013-0.222,0.008-0.334,0.007c-0.11,0.001-0.22,0.006-0.328-0.006
		c-0.029-0.003-0.058-0.012-0.087-0.016c-0.202-0.026-0.399-0.071-0.591-0.136l-16.686-5.522c-1.649-0.546-2.544-2.326-1.999-3.976
		c0.546-1.65,2.325-2.546,3.978-1.999l15.717,5.199l15.715-5.2C70.397,22.003,72.178,22.897,72.724,24.547z"/>
</g>
<g>
</g>
<g>
</g>
<g>
</g>
<g>
</g>
<g>
</g>
<g>
</g>
<g>
</g>
<g>
</g>
<g>
</g>
<g>
</g>
<g>
</g>
<g>
</g>
<g>
</g>
<g>
</g>
<g>
</g>
</svg>
