<?xml version="1.0" encoding="iso-8859-1"?>
<!-- Generator: Adobe Illustrator 16.0.0, SVG Export Plug-In . SVG Version: 6.00 Build 0)  -->
<!DOCTYPE svg PUBLIC "-//W3C//DTD SVG 1.1//EN" "http://www.w3.org/Graphics/SVG/1.1/DTD/svg11.dtd">
<svg version="1.1" id="Capa_1" xmlns="http://www.w3.org/2000/svg" xmlns:xlink="http://www.w3.org/1999/xlink" x="0px" y="0px"
	 width="106.059px" height="106.059px" viewBox="0 0 106.059 106.059" style="enable-background:new 0 0 106.059 106.059;"
	 xml:space="preserve">
<g>
	<path d="M15.515,15.512C-5.173,36.198-5.171,69.858,15.517,90.547c20.682,20.684,54.341,20.684,75.027-0.004
		c20.687-20.685,20.685-54.342,0.002-75.024C69.858-5.172,36.198-5.172,15.515,15.512z M84.757,84.758
		c-17.494,17.494-45.961,17.496-63.455,0.002c-17.498-17.497-17.496-45.966,0-63.46C38.795,3.806,67.261,3.804,84.759,21.301
		C102.253,38.795,102.251,67.265,84.757,84.758z M28.384,36.169c-1.229-1.229-1.229-3.222,0-4.451s3.222-1.229,4.451,0l9.456,9.455
		c1.229,1.229,1.229,3.222,0,4.451c-1.229,1.229-3.222,1.229-4.451,0L28.384,36.169z M63.766,45.625
		c-1.229-1.229-1.228-3.223,0-4.451l9.456-9.455c1.229-1.229,3.223-1.229,4.451,0c1.229,1.229,1.229,3.222,0,4.451l-9.456,9.456
		C66.988,46.854,64.995,46.854,63.766,45.625z M52.958,57.778c-11.245,0-21.28,7.315-25.563,18.636
		c-0.191,0.507-0.148,1.09,0.117,1.551s0.715,0.738,1.197,0.739l48.637,0.068c0,0,0.001,0,0.002,0c0.479,0,0.927-0.273,1.191-0.729
		c0.267-0.455,0.316-1.033,0.132-1.54C74.538,65.129,64.445,57.778,52.958,57.778z M33.925,76.002l-2.469-0.003
		c-0.43-0.001-0.828-0.201-1.065-0.533c-0.235-0.333-0.274-0.754-0.104-1.119c0.533-1.145,1.178-2.226,1.9-3.249h1.738V76.002z
		 M64.17,63.182c2.64,1.154,5.018,2.712,7.013,4.615H64.17V63.182z M47.27,76.018l-9.785-0.012v-4.908h9.785V76.018z M47.27,67.798
		h-9.785v-2.017c2.835-2.045,6.17-3.52,9.785-4.283V67.798z M60.612,76.031l-9.785-0.011v-4.924h9.785V76.031z M60.612,67.798
		h-9.785v-6.81c0.728-0.057,1.46-0.095,2.2-0.095c2.636,0,5.186,0.36,7.585,1.024V67.798z M73.955,76.048l-9.785-0.012v-4.938h9.785
		V76.048z"/>
</g>
<g>
</g>
<g>
</g>
<g>
</g>
<g>
</g>
<g>
</g>
<g>
</g>
<g>
</g>
<g>
</g>
<g>
</g>
<g>
</g>
<g>
</g>
<g>
</g>
<g>
</g>
<g>
</g>
<g>
</g>
</svg>
