<?xml version="1.0" encoding="iso-8859-1"?>
<!-- Generator: Adobe Illustrator 16.0.0, SVG Export Plug-In . SVG Version: 6.00 Build 0)  -->
<!DOCTYPE svg PUBLIC "-//W3C//DTD SVG 1.1//EN" "http://www.w3.org/Graphics/SVG/1.1/DTD/svg11.dtd">
<svg version="1.1" id="Capa_1" xmlns="http://www.w3.org/2000/svg" xmlns:xlink="http://www.w3.org/1999/xlink" x="0px" y="0px"
	 width="106.059px" height="106.059px" viewBox="0 0 106.059 106.059" style="enable-background:new 0 0 106.059 106.059;"
	 xml:space="preserve">
<g>
	<path d="M90.545,90.542c20.686-20.685,20.684-54.342,0.002-75.024C69.856-5.172,36.198-5.172,15.514,15.513
		C-5.173,36.198-5.171,69.858,15.516,90.547C36.198,111.23,69.856,111.23,90.545,90.542z M21.301,21.3
		C38.793,3.807,67.261,3.805,84.759,21.302c17.494,17.494,17.492,45.962-0.002,63.455c-17.494,17.494-45.963,17.496-63.456,0.002
		C3.803,67.263,3.805,38.794,21.301,21.3z M28.708,78.703l48.639,0.068h0.002c0.479,0,0.926-0.273,1.191-0.729
		c0.268-0.455,0.315-1.033,0.133-1.54c-4.136-11.374-14.229-18.725-25.715-18.725c-11.246,0-21.281,7.315-25.564,18.636
		c-0.191,0.507-0.148,1.09,0.117,1.551S28.225,78.702,28.708,78.703z M64.17,63.182c2.641,1.154,5.018,2.712,7.014,4.615H64.17
		V63.182z M64.17,71.098h9.784v4.95l-9.784-0.012V71.098z M50.825,60.987c0.729-0.057,1.461-0.095,2.201-0.095
		c2.635,0,5.187,0.36,7.584,1.024v5.88h-9.785V60.987z M50.825,71.098h9.785v4.935l-9.785-0.011V71.098z M37.483,65.781
		c2.834-2.045,6.17-3.52,9.785-4.283v6.3h-9.785V65.781z M37.483,71.098h9.785v4.92l-9.785-0.012V71.098z M30.286,74.347
		c0.533-1.145,1.178-2.226,1.9-3.249h1.738v4.904l-2.469-0.003c-0.43-0.001-0.828-0.201-1.066-0.533
		C30.155,75.133,30.116,74.712,30.286,74.347z M28.883,36.617c-1.229-1.229-1.229-3.221,0-4.449
		c1.229-1.229,3.221-1.229,4.451,0.001l9.455,9.454c0.014,0.015,0.023,0.031,0.037,0.046c1.16,1.127,1.885,2.7,1.885,4.445
		c0,3.428-2.777,6.203-6.199,6.203c-3.424,0-6.201-2.775-6.201-6.203c0-1.678,0.67-3.197,1.754-4.314L28.883,36.617z M62.343,46.114
		c0-1.744,0.723-3.317,1.883-4.444c0.016-0.016,0.023-0.032,0.039-0.047l9.457-9.454c1.229-1.23,3.221-1.23,4.451-0.001
		c1.229,1.229,1.229,3.222-0.002,4.449L72.988,41.8c1.084,1.117,1.754,2.637,1.754,4.314c0,3.428-2.776,6.203-6.198,6.203
		C65.12,52.317,62.343,49.542,62.343,46.114z"/>
</g>
<g>
</g>
<g>
</g>
<g>
</g>
<g>
</g>
<g>
</g>
<g>
</g>
<g>
</g>
<g>
</g>
<g>
</g>
<g>
</g>
<g>
</g>
<g>
</g>
<g>
</g>
<g>
</g>
<g>
</g>
</svg>
