<?xml version="1.0" encoding="iso-8859-1"?>
<!-- Generator: Adobe Illustrator 16.0.0, SVG Export Plug-In . SVG Version: 6.00 Build 0)  -->
<!DOCTYPE svg PUBLIC "-//W3C//DTD SVG 1.1//EN" "http://www.w3.org/Graphics/SVG/1.1/DTD/svg11.dtd">
<svg version="1.1" id="Capa_1" xmlns="http://www.w3.org/2000/svg" xmlns:xlink="http://www.w3.org/1999/xlink" x="0px" y="0px"
	 width="106.059px" height="106.059px" viewBox="0 0 106.059 106.059" style="enable-background:new 0 0 106.059 106.059;"
	 xml:space="preserve">
<g>
	<path d="M15.515,15.512C-5.173,36.198-5.171,69.858,15.517,90.547c20.682,20.684,54.341,20.684,75.027-0.004
		c20.687-20.685,20.685-54.342,0.002-75.024C69.858-5.172,36.198-5.172,15.515,15.512z M84.757,84.758
		c-17.494,17.494-45.961,17.496-63.455,0.002c-17.498-17.497-17.496-45.966,0-63.46C38.795,3.806,67.261,3.804,84.759,21.301
		C102.253,38.795,102.251,67.265,84.757,84.758z M75.639,71.029c0,1.921-1.558,3.479-3.479,3.479H33.902
		c-1.921,0-3.479-1.558-3.479-3.479s1.558-3.478,3.479-3.478h38.259C74.081,67.552,75.639,69.108,75.639,71.029z M77.673,31.718
		c1.229,1.229,1.229,3.222-0.001,4.451l-9.455,9.456c-1.229,1.229-3.223,1.229-4.451,0s-1.229-3.222,0-4.451l9.456-9.455
		C74.451,30.489,76.444,30.489,77.673,31.718z M77.878,47.999c0,2.254-1.827,4.081-4.079,4.081s-4.079-1.827-4.079-4.081
		c0-2.252,1.827-4.08,4.079-4.08C76.05,43.919,77.878,45.746,77.878,47.999z M28.385,36.169c-1.229-1.229-1.229-3.222-0.001-4.451
		c1.229-1.229,3.222-1.229,4.451,0l9.456,9.455c1.229,1.229,1.229,3.222,0,4.451c-1.229,1.229-3.223,1.229-4.451,0L28.385,36.169z
		 M32.258,52.08c-2.251,0-4.079-1.827-4.079-4.081c0-2.252,1.827-4.08,4.079-4.08s4.079,1.827,4.079,4.08
		C36.337,50.253,34.51,52.08,32.258,52.08z"/>
</g>
<g>
</g>
<g>
</g>
<g>
</g>
<g>
</g>
<g>
</g>
<g>
</g>
<g>
</g>
<g>
</g>
<g>
</g>
<g>
</g>
<g>
</g>
<g>
</g>
<g>
</g>
<g>
</g>
<g>
</g>
</svg>
