<?xml version="1.0" encoding="iso-8859-1"?>
<!-- Generator: Adobe Illustrator 16.0.0, SVG Export Plug-In . SVG Version: 6.00 Build 0)  -->
<!DOCTYPE svg PUBLIC "-//W3C//DTD SVG 1.1//EN" "http://www.w3.org/Graphics/SVG/1.1/DTD/svg11.dtd">
<svg version="1.1" id="Capa_1" xmlns="http://www.w3.org/2000/svg" xmlns:xlink="http://www.w3.org/1999/xlink" x="0px" y="0px"
	 width="106.059px" height="106.059px" viewBox="0 0 106.059 106.059" style="enable-background:new 0 0 106.059 106.059;"
	 xml:space="preserve">
<g>
	<path d="M15.516,15.511C-5.172,36.198-5.17,69.858,15.518,90.545c20.682,20.686,54.34,20.686,75.026-0.004
		c20.687-20.684,20.685-54.341,0.002-75.024C69.858-5.172,36.2-5.172,15.516,15.511z M84.757,84.756
		c-17.493,17.494-45.961,17.496-63.455,0.003c-17.498-17.497-17.495-45.966,0-63.46C38.796,3.806,67.262,3.804,84.759,21.301
		C102.253,38.795,102.251,67.263,84.757,84.756z M74.717,77.549c-22.712,20.021-43.376,0-43.376,0
		c0-11.55,9.711-20.913,21.688-20.913C65.005,56.636,74.717,66,74.717,77.549z M33.574,37.67c0-2.688,2.181-4.868,4.867-4.868
		c2.688,0,4.867,2.181,4.867,4.868c0,2.689-2.18,4.87-4.867,4.87C35.755,42.541,33.574,40.359,33.574,37.67z M76.426,37.67
		c0,4.347-3.523,7.87-7.867,7.87c-4.343,0-7.869-3.523-7.869-7.87c0-4.344,3.526-7.868,7.869-7.868
		C72.903,29.802,76.426,33.326,76.426,37.67z"/>
</g>
<g>
</g>
<g>
</g>
<g>
</g>
<g>
</g>
<g>
</g>
<g>
</g>
<g>
</g>
<g>
</g>
<g>
</g>
<g>
</g>
<g>
</g>
<g>
</g>
<g>
</g>
<g>
</g>
<g>
</g>
</svg>
