<?xml version="1.0" encoding="iso-8859-1"?>
<!-- Generator: Adobe Illustrator 16.0.0, SVG Export Plug-In . SVG Version: 6.00 Build 0)  -->
<!DOCTYPE svg PUBLIC "-//W3C//DTD SVG 1.1//EN" "http://www.w3.org/Graphics/SVG/1.1/DTD/svg11.dtd">
<svg version="1.1" id="Capa_1" xmlns="http://www.w3.org/2000/svg" xmlns:xlink="http://www.w3.org/1999/xlink" x="0px" y="0px"
	 width="106.059px" height="106.059px" viewBox="0 0 106.059 106.059" style="enable-background:new 0 0 106.059 106.059;"
	 xml:space="preserve">
<g>
	<path d="M90.546,15.518C69.858-5.172,36.199-5.172,15.516,15.513C-5.173,36.198-5.171,69.858,15.518,90.547
		C36.2,111.23,69.858,111.23,90.544,90.543C111.23,69.858,111.229,36.2,90.546,15.518z M84.757,84.758
		c-17.493,17.494-45.962,17.496-63.455,0.002c-17.498-17.497-17.495-45.966,0-63.46c17.493-17.493,45.96-17.495,63.457,0.002
		C102.253,38.796,102.251,67.265,84.757,84.758z M78.671,74.741c0.186,0.443,0.135,0.949-0.131,1.348
		c-0.267,0.397-0.714,0.637-1.192,0.637c-0.001,0-0.001,0-0.002,0l-48.638-0.061c-0.482,0-0.932-0.243-1.196-0.646
		c-0.264-0.403-0.31-0.913-0.118-1.356c4.285-9.902,14.318-16.303,25.563-16.303C64.444,58.359,74.537,64.79,78.671,74.741z
		 M33.24,38.671c0-3.424,2.777-6.201,6.2-6.201c3.423,0,6.2,2.776,6.2,6.201c0,3.426-2.777,6.202-6.2,6.202
		C36.017,44.873,33.24,42.097,33.24,38.671z M61.357,38.671c0-3.424,2.779-6.201,6.203-6.201c3.423,0,6.199,2.776,6.199,6.201
		c0,3.426-2.776,6.202-6.199,6.202C64.137,44.873,61.357,42.097,61.357,38.671z"/>
</g>
<g>
</g>
<g>
</g>
<g>
</g>
<g>
</g>
<g>
</g>
<g>
</g>
<g>
</g>
<g>
</g>
<g>
</g>
<g>
</g>
<g>
</g>
<g>
</g>
<g>
</g>
<g>
</g>
<g>
</g>
</svg>
