<?xml version="1.0" encoding="iso-8859-1"?>
<!-- Generator: Adobe Illustrator 16.0.0, SVG Export Plug-In . SVG Version: 6.00 Build 0)  -->
<!DOCTYPE svg PUBLIC "-//W3C//DTD SVG 1.1//EN" "http://www.w3.org/Graphics/SVG/1.1/DTD/svg11.dtd">
<svg version="1.1" id="Capa_1" xmlns="http://www.w3.org/2000/svg" xmlns:xlink="http://www.w3.org/1999/xlink" x="0px" y="0px"
	 width="106.06px" height="106.06px" viewBox="0 0 106.06 106.06" style="enable-background:new 0 0 106.06 106.06;"
	 xml:space="preserve">
<g>
	<path d="M15.516,15.512C-5.172,36.199-5.17,69.857,15.518,90.547c20.682,20.685,54.342,20.685,75.027-0.005
		c20.687-20.685,20.685-54.341,0.002-75.023C69.86-5.172,36.199-5.172,15.516,15.512z M84.757,84.758
		c-17.494,17.493-45.96,17.495-63.455,0.003c-17.498-17.498-17.496-45.967,0-63.461C38.797,3.807,67.261,3.805,84.759,21.302
		C102.253,38.795,102.251,67.264,84.757,84.758z M33.072,47.009c-0.236,0.189-0.579,0.229-0.858,0.1
		c-0.294-0.146-0.468-0.428-0.468-0.741v-3.554c0-0.181,0.084-0.351,0.225-0.463l4.664-3.68l-4.664-3.681
		c-0.141-0.112-0.225-0.281-0.225-0.462v-3.552c0-0.313,0.181-0.604,0.46-0.738c0.112-0.055,0.236-0.082,0.358-0.082
		c0.183,0,0.363,0.062,0.507,0.175l9.755,7.695c0.197,0.158,0.308,0.392,0.308,0.645s-0.11,0.486-0.304,0.641L33.072,47.009z
		 M64.173,39.314c-0.197-0.158-0.309-0.392-0.309-0.645s0.111-0.486,0.305-0.64l9.757-7.697c0.237-0.188,0.58-0.229,0.859-0.1
		c0.293,0.146,0.467,0.428,0.467,0.741v3.554c0,0.181-0.083,0.351-0.225,0.463l-4.664,3.68l4.664,3.681
		c0.142,0.112,0.225,0.281,0.225,0.462v3.552c0,0.313-0.18,0.604-0.459,0.738c-0.113,0.055-0.237,0.082-0.359,0.082
		c-0.183,0-0.362-0.062-0.506-0.175L64.173,39.314z M63.726,60.701c-3.975,0-7.48,0.274-9.571,3.495
		c-2.091-3.221-5.597-3.495-9.572-3.495c-6.408,0-11.602,5.49-11.602,12.266c0,6.771,5.194,9.676,11.602,9.676h19.143
		c6.408,0,11.603-2.904,11.603-9.676C75.329,66.191,70.133,60.701,63.726,60.701z M63.726,79.191H44.583
		c-4.598,0-8.338-1.366-8.338-6.226c0-4.86,3.741-8.815,8.338-8.815c4.279,0,5.887,0.467,6.88,1.998
		c0.609,0.938,1.616,1.498,2.691,1.498s2.083-0.561,2.69-1.498c0.993-1.531,2.602-1.998,6.88-1.998c4.599,0,8.339,3.955,8.339,8.815
		C72.065,77.825,68.324,79.191,63.726,79.191z"/>
</g>
<g>
</g>
<g>
</g>
<g>
</g>
<g>
</g>
<g>
</g>
<g>
</g>
<g>
</g>
<g>
</g>
<g>
</g>
<g>
</g>
<g>
</g>
<g>
</g>
<g>
</g>
<g>
</g>
<g>
</g>
</svg>
