<?xml version="1.0" encoding="iso-8859-1"?>
<!-- Generator: Adobe Illustrator 16.0.0, SVG Export Plug-In . SVG Version: 6.00 Build 0)  -->
<!DOCTYPE svg PUBLIC "-//W3C//DTD SVG 1.1//EN" "http://www.w3.org/Graphics/SVG/1.1/DTD/svg11.dtd">
<svg version="1.1" id="Capa_1" xmlns="http://www.w3.org/2000/svg" xmlns:xlink="http://www.w3.org/1999/xlink" x="0px" y="0px"
	 width="106.059px" height="106.059px" viewBox="0 0 106.059 106.059" style="enable-background:new 0 0 106.059 106.059;"
	 xml:space="preserve">
<g>
	<path d="M90.544,90.542c20.687-20.685,20.684-54.342,0.002-75.024C69.858-5.172,36.198-5.172,15.515,15.513
		C-5.173,36.198-5.171,69.858,15.517,90.547C36.198,111.23,69.858,111.23,90.544,90.542z M21.302,21.3
		C38.795,3.807,67.261,3.805,84.759,21.302c17.494,17.494,17.492,45.962-0.002,63.455c-17.494,17.494-45.962,17.496-63.455,0.002
		C3.804,67.263,3.806,38.794,21.302,21.3z M23.769,39.805c0-1.738,1.409-3.147,3.147-3.147l13.373-0.001
		c0.027,0,0.054,0.007,0.081,0.008c1.61-0.018,3.226,0.581,4.453,1.81c2.423,2.423,2.423,6.35,0.003,8.771
		c-2.421,2.42-6.35,2.42-8.771-0.002c-1.186-1.187-1.781-2.735-1.806-4.292h-7.333C25.178,42.951,23.769,41.543,23.769,39.805z
		 M62.621,39.898c0-1.738,1.409-3.146,3.146-3.146l13.373-0.001c0.028,0,0.055,0.007,0.081,0.008
		c1.61-0.019,3.227,0.581,4.453,1.809c2.423,2.423,2.423,6.351,0.003,8.771c-2.421,2.42-6.349,2.42-8.771-0.002
		c-1.188-1.188-1.782-2.736-1.807-4.292h-7.333C64.031,43.046,62.621,41.637,62.621,39.898z M33.445,65.561
		c9.859,0.311,32.958,1.909,34.469,10.011c0.253,1.357-0.643,2.663-2,2.916c-0.154,0.029-0.309,0.043-0.461,0.043
		c-1.181,0-2.23-0.84-2.455-2.042c-0.005-0.025-1.085-2.695-14.428-4.593c-7.637-1.086-15.207-1.334-15.283-1.337
		c-1.38-0.043-2.463-1.197-2.42-2.577c0.043-1.354,1.152-2.421,2.498-2.421C33.391,65.559,33.417,65.56,33.445,65.561z"/>
</g>
<g>
</g>
<g>
</g>
<g>
</g>
<g>
</g>
<g>
</g>
<g>
</g>
<g>
</g>
<g>
</g>
<g>
</g>
<g>
</g>
<g>
</g>
<g>
</g>
<g>
</g>
<g>
</g>
<g>
</g>
</svg>
