<?xml version="1.0" encoding="iso-8859-1"?>
<!-- Generator: Adobe Illustrator 16.0.0, SVG Export Plug-In . SVG Version: 6.00 Build 0)  -->
<!DOCTYPE svg PUBLIC "-//W3C//DTD SVG 1.1//EN" "http://www.w3.org/Graphics/SVG/1.1/DTD/svg11.dtd">
<svg version="1.1" id="Capa_1" xmlns="http://www.w3.org/2000/svg" xmlns:xlink="http://www.w3.org/1999/xlink" x="0px" y="0px"
	 width="106.06px" height="106.06px" viewBox="0 0 106.06 106.06" style="enable-background:new 0 0 106.06 106.06;"
	 xml:space="preserve">
<g>
	<path d="M90.547,15.518C69.859-5.172,36.2-5.172,15.516,15.513C-5.172,36.199-5.17,69.857,15.518,90.547
		c20.682,20.685,54.341,20.685,75.027-0.005C111.231,69.857,111.229,36.201,90.547,15.518z M84.758,84.758
		c-17.494,17.493-45.961,17.495-63.456,0.003c-17.498-17.498-17.495-45.967,0-63.461C38.797,3.808,67.262,3.806,84.76,21.303
		C102.254,38.796,102.252,67.264,84.758,84.758z M80.553,38.673c0,1.737-1.407,3.146-3.146,3.146h-4.982
		c-1.079,1.826-3.062,3.055-5.334,3.055c-3.423,0-6.201-2.773-6.203-6.198c0-0.001,0-0.001,0-0.002c0,0,0,0,0-0.001v-0.001
		c0-3.424,2.779-6.2,6.203-6.2c2.273,0,4.256,1.229,5.335,3.056h4.981C79.146,35.525,80.553,36.934,80.553,38.673z M33.636,41.818
		h-4.983c-1.738,0-3.147-1.409-3.147-3.146c0-1.738,1.409-3.147,3.147-3.147h4.983c1.079-1.826,3.063-3.055,5.335-3.055
		c3.424,0,6.201,2.776,6.201,6.2v0.001c0,0.001,0,0.001,0,0.001c0,0.001,0,0.001,0,0.002c-0.003,3.425-2.778,6.198-6.201,6.198
		C36.699,44.873,34.717,43.645,33.636,41.818z M76.368,71.888c-0.382,0.815-3.933,7.99-10.653,8.478
		c-0.234,0.019-0.472,0.026-0.708,0.026c-4.216,0-8.309-2.741-12.177-8.16c-1.956-2.739-4.956-5.978-8.213-5.978
		c-0.049,0-0.097,0-0.145,0.001c-3.674,0.108-6.985,4.249-7.951,5.835c-0.682,1.117-2.288,1.557-3.589,0.97
		c-1.3-0.585-1.808-1.966-1.131-3.088c0.198-0.329,4.942-8.065,12.468-8.301c4.725-0.145,9.124,2.596,13.092,8.154
		c2.862,4.012,5.67,6.148,7.906,5.97c2.762-0.201,5.347-3.876,6.164-5.625c0.553-1.175,2.101-1.744,3.466-1.27
		C76.259,69.377,76.917,70.714,76.368,71.888z"/>
</g>
<g>
</g>
<g>
</g>
<g>
</g>
<g>
</g>
<g>
</g>
<g>
</g>
<g>
</g>
<g>
</g>
<g>
</g>
<g>
</g>
<g>
</g>
<g>
</g>
<g>
</g>
<g>
</g>
<g>
</g>
</svg>
