<?xml version="1.0" encoding="iso-8859-1"?>
<!-- Generator: Adobe Illustrator 16.0.0, SVG Export Plug-In . SVG Version: 6.00 Build 0)  -->
<!DOCTYPE svg PUBLIC "-//W3C//DTD SVG 1.1//EN" "http://www.w3.org/Graphics/SVG/1.1/DTD/svg11.dtd">
<svg version="1.1" id="Capa_1" xmlns="http://www.w3.org/2000/svg" xmlns:xlink="http://www.w3.org/1999/xlink" x="0px" y="0px"
	 width="106.059px" height="106.059px" viewBox="0 0 106.059 106.059" style="enable-background:new 0 0 106.059 106.059;"
	 xml:space="preserve">
<g>
	<path d="M15.515,15.513C-5.173,36.199-5.171,69.857,15.517,90.547c20.682,20.684,54.341,20.684,75.027-0.005
		c20.687-20.685,20.685-54.341,0.002-75.024C69.858-5.171,36.199-5.171,15.515,15.513z M84.757,84.758
		c-17.494,17.493-45.96,17.495-63.455,0.002c-17.498-17.497-17.496-45.966,0-63.46C38.796,3.807,67.261,3.805,84.759,21.303
		C102.253,38.796,102.251,67.264,84.757,84.758z M34.465,32.479c-3.46-1.343-2.093-4.774-2.093-4.774
		c1.303-3.355,5.027-1.91,5.027-1.91c3.202,1.244,5.376,6.973,5.376,6.973c-2.719-0.586-4.6-0.154-4.6-0.154
		C36.039,33.09,34.465,32.479,34.465,32.479z M38.441,45.342c-1.818,0-3.292-2.091-3.292-4.671c0-2.578,1.475-4.67,3.292-4.67
		s3.292,2.092,3.292,4.67C41.732,43.251,40.258,45.342,38.441,45.342z M72.759,27.605c0,0,1.367,3.43-2.093,4.773
		c0,0-1.574,0.611-3.71,0.133c0,0-1.88-0.43-4.6,0.156c0,0,2.174-5.729,5.376-6.974C67.732,25.694,71.456,24.248,72.759,27.605z
		 M69.983,40.57c0,2.58-1.476,4.672-3.292,4.672c-1.817,0-3.292-2.092-3.292-4.672c0-2.578,1.475-4.67,3.292-4.67
		C68.508,35.9,69.983,37.992,69.983,40.57z M69.392,71.169c0,9.026-7.34,16.37-16.362,16.37c-9.023,0-16.364-7.344-16.364-16.37
		c0-9.023,7.34-16.365,16.363-16.365C62.051,54.804,69.392,62.145,69.392,71.169z"/>
</g>
<g>
</g>
<g>
</g>
<g>
</g>
<g>
</g>
<g>
</g>
<g>
</g>
<g>
</g>
<g>
</g>
<g>
</g>
<g>
</g>
<g>
</g>
<g>
</g>
<g>
</g>
<g>
</g>
<g>
</g>
</svg>
