<?xml version="1.0" encoding="iso-8859-1"?>
<!-- Generator: Adobe Illustrator 16.0.0, SVG Export Plug-In . SVG Version: 6.00 Build 0)  -->
<!DOCTYPE svg PUBLIC "-//W3C//DTD SVG 1.1//EN" "http://www.w3.org/Graphics/SVG/1.1/DTD/svg11.dtd">
<svg version="1.1" id="Capa_1" xmlns="http://www.w3.org/2000/svg" xmlns:xlink="http://www.w3.org/1999/xlink" x="0px" y="0px"
	 width="106.059px" height="106.059px" viewBox="0 0 106.059 106.059" style="enable-background:new 0 0 106.059 106.059;"
	 xml:space="preserve">
<g>
	<path d="M90.544,90.542c20.687-20.685,20.685-54.342,0.002-75.024C69.857-5.172,36.199-5.172,15.515,15.513
		C-5.173,36.198-5.171,69.858,15.517,90.547C36.199,111.23,69.857,111.23,90.544,90.542z M21.301,21.3
		C38.794,3.807,67.261,3.805,84.758,21.302c17.494,17.494,17.492,45.962-0.002,63.455c-17.493,17.494-45.961,17.496-63.455,0.002
		C3.803,67.263,3.806,38.794,21.301,21.3z"/>
	<path d="M38.994,44.967c0.134,0.092,0.29,0.138,0.446,0.138c0.159,0,0.318-0.048,0.455-0.145c0.059-0.041,1.456-1.032,2.87-2.467
		c1.985-2.013,2.991-3.856,2.991-5.484c0-1.024-0.365-2.114-1.002-2.988c-0.728-1-1.683-1.551-2.688-1.551
		c-1,0-1.942,0.437-2.626,1.173c-0.683-0.736-1.625-1.173-2.625-1.173c-1.008,0-1.963,0.551-2.691,1.551
		c-0.637,0.874-1.002,1.963-1.002,2.988C33.123,40.898,38.754,44.802,38.994,44.967z"/>
	<path d="M53.089,78.697c10.084,0,19.084-5.742,22.927-14.629c0.657-1.521-0.042-3.287-1.562-3.944
		c-1.521-0.659-3.286,0.043-3.944,1.563c-2.893,6.689-9.729,11.011-17.42,11.011c-7.868,0-14.747-4.318-17.523-11.004
		c-0.479-1.154-1.596-1.85-2.771-1.85c-0.384,0-0.773,0.074-1.149,0.229c-1.531,0.637-2.256,2.393-1.62,3.921
		C33.734,72.927,42.788,78.697,53.089,78.697z"/>
	<path d="M67.113,44.967c0.134,0.092,0.29,0.138,0.445,0.138c0.159,0,0.318-0.048,0.455-0.145c0.06-0.041,1.456-1.032,2.87-2.467
		c1.985-2.013,2.991-3.856,2.991-5.484c0-1.024-0.365-2.114-1.002-2.988c-0.728-1-1.683-1.551-2.688-1.551
		c-1,0-1.942,0.437-2.627,1.173c-0.683-0.736-1.625-1.173-2.625-1.173c-1.008,0-1.963,0.551-2.69,1.551
		c-0.637,0.874-1.002,1.963-1.002,2.988C61.241,40.898,66.873,44.802,67.113,44.967z"/>
</g>
<g>
</g>
<g>
</g>
<g>
</g>
<g>
</g>
<g>
</g>
<g>
</g>
<g>
</g>
<g>
</g>
<g>
</g>
<g>
</g>
<g>
</g>
<g>
</g>
<g>
</g>
<g>
</g>
<g>
</g>
</svg>
