<?xml version="1.0" encoding="iso-8859-1"?>
<!-- Generator: Adobe Illustrator 16.0.0, SVG Export Plug-In . SVG Version: 6.00 Build 0)  -->
<!DOCTYPE svg PUBLIC "-//W3C//DTD SVG 1.1//EN" "http://www.w3.org/Graphics/SVG/1.1/DTD/svg11.dtd">
<svg version="1.1" id="Capa_1" xmlns="http://www.w3.org/2000/svg" xmlns:xlink="http://www.w3.org/1999/xlink" x="0px" y="0px"
	 width="106.06px" height="106.06px" viewBox="0 0 106.06 106.06" style="enable-background:new 0 0 106.06 106.06;"
	 xml:space="preserve">
<g>
	<path d="M15.516,15.513C-5.172,36.199-5.17,69.857,15.518,90.547c20.682,20.685,54.34,20.685,75.027-0.006
		c20.687-20.684,20.685-54.34,0.002-75.022C69.858-5.172,36.199-5.172,15.516,15.513z M84.757,84.758
		c-17.494,17.492-45.962,17.494-63.455,0.002c-9.995-9.994-14.27-23.567-12.846-36.632l45.823,3.76l43.223-4.605
		C99.208,60.604,94.967,74.549,84.757,84.758z M32.313,42.115c0-3.424,2.777-6.201,6.201-6.201c3.422,0,6.199,2.777,6.199,6.201
		c0,3.426-2.777,6.203-6.199,6.203C35.09,48.318,32.313,45.542,32.313,42.115z M62.343,42.115c0-3.424,2.777-6.201,6.201-6.201
		c3.422,0,6.199,2.777,6.199,6.201c0,3.426-2.777,6.203-6.199,6.203C65.121,48.318,62.343,45.542,62.343,42.115z M53.78,31.529
		l-42.218,4.375c2.187-5.316,5.431-10.295,9.742-14.605C38.796,3.807,67.262,3.805,84.76,21.303
		c4.53,4.529,7.877,9.799,10.062,15.42L53.78,31.529z M27.197,65.82v9.752c0,4.686,3.799,8.485,8.486,8.485h35.361
		c4.688,0,8.486-3.801,8.486-8.485V65.82c0-4.688-3.8-8.486-8.486-8.486H35.683C30.996,57.334,27.197,61.133,27.197,65.82z
		 M39.288,80.754h-5.322c-1.297-0.938-2.271-2.293-2.725-3.871v-4.176h8.047V80.754z M67.438,60.636h5.321
		c1.297,0.939,2.271,2.295,2.726,3.873v4.174h-8.047V60.636z M67.438,72.707h8.047v4.176c-0.454,1.578-1.429,2.933-2.726,3.871
		h-5.321V72.707z M55.381,60.636h8.033v8.047h-8.033V60.636z M55.381,72.707h8.033v8.047h-8.033V72.707z M43.311,60.636h8.033v8.047
		h-8.033V60.636z M43.311,72.707h8.033v8.047h-8.033V72.707z M39.288,68.683h-8.047v-4.174c0.454-1.578,1.428-2.934,2.725-3.873
		h5.322V68.683z M23.314,57.332c0,2.146-1.739,3.885-3.882,3.885c-2.145,0-3.884-1.737-3.884-3.885c0-2.143,1.739-3.883,3.884-3.883
		C21.574,53.449,23.314,55.189,23.314,57.332z"/>
</g>
<g>
</g>
<g>
</g>
<g>
</g>
<g>
</g>
<g>
</g>
<g>
</g>
<g>
</g>
<g>
</g>
<g>
</g>
<g>
</g>
<g>
</g>
<g>
</g>
<g>
</g>
<g>
</g>
<g>
</g>
</svg>
