<?xml version="1.0" encoding="iso-8859-1"?>
<!-- Generator: Adobe Illustrator 16.0.0, SVG Export Plug-In . SVG Version: 6.00 Build 0)  -->
<!DOCTYPE svg PUBLIC "-//W3C//DTD SVG 1.1//EN" "http://www.w3.org/Graphics/SVG/1.1/DTD/svg11.dtd">
<svg version="1.1" id="Capa_1" xmlns="http://www.w3.org/2000/svg" xmlns:xlink="http://www.w3.org/1999/xlink" x="0px" y="0px"
	 width="106.059px" height="106.059px" viewBox="0 0 106.059 106.059" style="enable-background:new 0 0 106.059 106.059;"
	 xml:space="preserve">
<g>
	<path d="M15.515,15.512C-5.173,36.198-5.171,69.858,15.517,90.547c20.682,20.684,54.341,20.684,75.027-0.004
		c20.687-20.685,20.685-54.342,0.002-75.024C69.858-5.172,36.199-5.172,15.515,15.512z M84.758,84.758
		c-17.494,17.494-45.961,17.496-63.456,0.002c-17.498-17.497-17.495-45.966,0-63.46C38.796,3.806,67.262,3.804,84.76,21.301
		C102.254,38.795,102.252,67.265,84.758,84.758z M80.553,38.672c0,1.738-1.407,3.147-3.146,3.147h-4.982
		c-1.079,1.826-3.062,3.055-5.334,3.055c-3.423,0-6.201-2.775-6.203-6.2v-0.001l0,0l0,0l0,0c0-3.423,2.779-6.201,6.203-6.201
		c2.272,0,4.256,1.229,5.335,3.055h4.981C79.146,35.525,80.553,36.935,80.553,38.672z M44.026,42.262
		c0.721-1.013,1.145-2.252,1.146-3.59l0,0C45.171,40.01,44.747,41.249,44.026,42.262z M33.635,41.818h-4.983
		c-1.738,0-3.147-1.409-3.147-3.147c0-1.738,1.409-3.147,3.147-3.147h4.983c1.079-1.826,3.063-3.055,5.335-3.055
		c3.424,0,6.201,2.777,6.201,6.201l0,0l0,0l0,0l-2.735,5.143c-0.989,0.669-2.183,1.059-3.466,1.059
		C36.698,44.873,34.715,43.646,33.635,41.818z M75.638,71.029c0,1.921-1.558,3.479-3.479,3.479H33.901
		c-1.921,0-3.479-1.558-3.479-3.479s1.558-3.478,3.479-3.478H72.16C74.081,67.552,75.638,69.108,75.638,71.029z"/>
</g>
<g>
</g>
<g>
</g>
<g>
</g>
<g>
</g>
<g>
</g>
<g>
</g>
<g>
</g>
<g>
</g>
<g>
</g>
<g>
</g>
<g>
</g>
<g>
</g>
<g>
</g>
<g>
</g>
<g>
</g>
</svg>
