<?xml version="1.0" encoding="iso-8859-1"?>
<!-- Generator: Adobe Illustrator 16.0.0, SVG Export Plug-In . SVG Version: 6.00 Build 0)  -->
<!DOCTYPE svg PUBLIC "-//W3C//DTD SVG 1.1//EN" "http://www.w3.org/Graphics/SVG/1.1/DTD/svg11.dtd">
<svg version="1.1" id="Capa_1" xmlns="http://www.w3.org/2000/svg" xmlns:xlink="http://www.w3.org/1999/xlink" x="0px" y="0px"
	 width="106.059px" height="106.059px" viewBox="0 0 106.059 106.059" style="enable-background:new 0 0 106.059 106.059;"
	 xml:space="preserve">
<g>
	<path d="M90.544,90.542c20.687-20.684,20.685-54.341,0.002-75.024C69.857-5.171,36.199-5.171,15.515,15.512
		C-5.173,36.199-5.171,69.858,15.517,90.546C36.199,111.23,69.857,111.23,90.544,90.542z M21.301,21.3
		C38.794,3.807,67.261,3.805,84.758,21.302c17.494,17.494,17.492,45.963-0.002,63.455c-17.493,17.494-45.961,17.496-63.455,0.003
		C3.803,67.262,3.806,38.794,21.301,21.3z M33.24,38.671c0-3.424,2.777-6.201,6.2-6.201c3.423,0,6.2,2.777,6.2,6.201
		c0,3.426-2.777,6.203-6.2,6.203C36.017,44.874,33.24,42.096,33.24,38.671z M61.356,38.671c0-3.424,2.779-6.201,6.202-6.201
		c3.424,0,6.2,2.777,6.2,6.201c0,3.426-2.776,6.203-6.2,6.203C64.136,44.874,61.356,42.096,61.356,38.671z M53.1,84.725
		c11.245,0,21.278-6.398,25.563-16.304c0.191-0.441,0.146-0.952-0.118-1.355c-0.265-0.402-0.714-0.646-1.196-0.646l-48.637-0.06
		c-0.001,0-0.002,0-0.002,0c-0.479,0-0.926,0.238-1.192,0.638c-0.266,0.398-0.315,0.903-0.131,1.347
		C31.521,78.295,41.614,84.725,53.1,84.725z M63.845,78.292h0.006v-4.574h-0.006v-5.151l4.028,0.005v8.389
		c-1.219,1.126-2.568,2.109-4.028,2.925V78.292z M55.451,68.554l3.82,0.006v13.23c-1.233,0.354-2.515,0.594-3.82,0.731V68.554z
		 M46.598,68.544l4.348,0.006v14.001c-1.495-0.137-2.952-0.407-4.348-0.819V68.544z M38.45,73.561h0.004v-5.025l3.569,0.004V79.79
		c-1.255-0.71-2.429-1.536-3.5-2.477v-0.034H38.45V73.561z"/>
</g>
<g>
</g>
<g>
</g>
<g>
</g>
<g>
</g>
<g>
</g>
<g>
</g>
<g>
</g>
<g>
</g>
<g>
</g>
<g>
</g>
<g>
</g>
<g>
</g>
<g>
</g>
<g>
</g>
<g>
</g>
</svg>
