<?xml version="1.0" encoding="iso-8859-1"?>
<!-- Generator: Adobe Illustrator 16.0.0, SVG Export Plug-In . SVG Version: 6.00 Build 0)  -->
<!DOCTYPE svg PUBLIC "-//W3C//DTD SVG 1.1//EN" "http://www.w3.org/Graphics/SVG/1.1/DTD/svg11.dtd">
<svg version="1.1" id="Capa_1" xmlns="http://www.w3.org/2000/svg" xmlns:xlink="http://www.w3.org/1999/xlink" x="0px" y="0px"
	 width="106.059px" height="106.059px" viewBox="0 0 106.059 106.059" style="enable-background:new 0 0 106.059 106.059;"
	 xml:space="preserve">
<g>
	<path d="M90.544,90.542c20.687-20.685,20.685-54.342,0.002-75.024C69.857-5.172,36.199-5.172,15.515,15.513
		C-5.173,36.198-5.171,69.858,15.517,90.547C36.199,111.23,69.857,111.23,90.544,90.542z M21.301,21.3
		C38.794,3.807,67.261,3.805,84.758,21.302c17.494,17.494,17.492,45.962-0.002,63.455c-17.493,17.494-45.961,17.496-63.455,0.002
		C3.803,67.263,3.806,38.794,21.301,21.3z M53.1,80.726c11.245,0,21.278-6.4,25.563-16.304c0.191-0.443,0.146-0.953-0.118-1.356
		s-0.714-0.646-1.196-0.646l-48.637-0.061c-0.001,0-0.002,0-0.002,0c-0.479,0-0.926,0.239-1.192,0.637
		c-0.266,0.398-0.315,0.904-0.131,1.348C31.521,74.295,41.614,80.726,53.1,80.726z M73.034,66.413
		C68.746,72.782,61.305,76.727,53.1,76.727c-8.401,0-15.917-3.962-20.132-10.361L73.034,66.413z M33.24,38.671
		c0-3.424,2.777-6.201,6.2-6.201c3.423,0,6.2,2.776,6.2,6.201c0,3.426-2.777,6.202-6.2,6.202
		C36.017,44.873,33.24,42.097,33.24,38.671z M61.356,38.671c0-3.424,2.779-6.201,6.202-6.201c3.424,0,6.2,2.776,6.2,6.201
		c0,3.426-2.776,6.202-6.2,6.202C64.136,44.873,61.356,42.097,61.356,38.671z"/>
</g>
<g>
</g>
<g>
</g>
<g>
</g>
<g>
</g>
<g>
</g>
<g>
</g>
<g>
</g>
<g>
</g>
<g>
</g>
<g>
</g>
<g>
</g>
<g>
</g>
<g>
</g>
<g>
</g>
<g>
</g>
</svg>
