<?xml version="1.0" encoding="iso-8859-1"?>
<!-- Generator: Adobe Illustrator 16.0.0, SVG Export Plug-In . SVG Version: 6.00 Build 0)  -->
<!DOCTYPE svg PUBLIC "-//W3C//DTD SVG 1.1//EN" "http://www.w3.org/Graphics/SVG/1.1/DTD/svg11.dtd">
<svg version="1.1" id="Capa_1" xmlns="http://www.w3.org/2000/svg" xmlns:xlink="http://www.w3.org/1999/xlink" x="0px" y="0px"
	 width="106.059px" height="106.059px" viewBox="0 0 106.059 106.059" style="enable-background:new 0 0 106.059 106.059;"
	 xml:space="preserve">
<g>
	<path d="M90.546,15.518C69.859-5.172,36.2-5.172,15.516,15.513C-5.172,36.198-5.17,69.858,15.518,90.547
		C36.2,111.23,69.859,111.23,90.543,90.543C111.23,69.858,111.228,36.2,90.546,15.518z M84.757,84.758
		c-17.493,17.494-45.96,17.496-63.455,0.002c-17.498-17.497-17.495-45.966,0-63.46C38.797,3.807,67.262,3.805,84.759,21.302
		C102.253,38.796,102.251,67.265,84.757,84.758z M77.349,61.846l-48.637-0.068c0,0-0.001,0-0.002,0
		c-0.479,0-0.926,0.273-1.191,0.729c-0.267,0.455-0.316,1.032-0.132,1.54c4.134,11.375,14.228,18.725,25.714,18.725
		c11.245,0,21.28-7.315,25.563-18.636c0.191-0.506,0.148-1.089-0.117-1.55C78.282,62.124,77.833,61.847,77.349,61.846z
		 M41.889,77.367c-2.64-1.153-5.017-2.712-7.013-4.614h7.013V77.367z M41.889,69.451h-9.785v-4.949l9.785,0.011V69.451z
		 M55.233,79.562c-0.729,0.057-1.46,0.095-2.2,0.095c-2.636,0-5.186-0.359-7.585-1.023v-5.88h9.785V79.562z M55.233,69.451h-9.785
		v-4.935l9.785,0.011V69.451z M68.576,74.768c-2.835,2.045-6.17,3.52-9.785,4.283v-6.299h9.785V74.768z M68.576,69.451h-9.785v-4.92
		l9.785,0.013V69.451z M75.773,66.202c-0.533,1.145-1.179,2.226-1.9,3.249h-1.738v-4.903l2.47,0.002
		c0.43,0.001,0.827,0.202,1.064,0.534C75.904,65.418,75.943,65.838,75.773,66.202z M33.241,38.671c0-3.424,2.777-6.201,6.2-6.201
		c3.424,0,6.2,2.776,6.2,6.201c0,3.426-2.776,6.202-6.2,6.202C36.018,44.873,33.241,42.097,33.241,38.671z M61.357,38.671
		c0-3.424,2.78-6.201,6.202-6.201c3.425,0,6.201,2.776,6.201,6.201c0,3.426-2.776,6.202-6.201,6.202
		C64.137,44.873,61.357,42.097,61.357,38.671z"/>
</g>
<g>
</g>
<g>
</g>
<g>
</g>
<g>
</g>
<g>
</g>
<g>
</g>
<g>
</g>
<g>
</g>
<g>
</g>
<g>
</g>
<g>
</g>
<g>
</g>
<g>
</g>
<g>
</g>
<g>
</g>
</svg>
