<?xml version="1.0" encoding="iso-8859-1"?>
<!-- Generator: Adobe Illustrator 16.0.0, SVG Export Plug-In . SVG Version: 6.00 Build 0)  -->
<!DOCTYPE svg PUBLIC "-//W3C//DTD SVG 1.1//EN" "http://www.w3.org/Graphics/SVG/1.1/DTD/svg11.dtd">
<svg version="1.1" id="Capa_1" xmlns="http://www.w3.org/2000/svg" xmlns:xlink="http://www.w3.org/1999/xlink" x="0px" y="0px"
	 width="106.059px" height="106.059px" viewBox="0 0 106.059 106.059" style="enable-background:new 0 0 106.059 106.059;"
	 xml:space="preserve">
<g>
	<path d="M90.545,90.542c20.686-20.685,20.684-54.342,0.002-75.024C69.857-5.172,36.198-5.172,15.514,15.513
		C-5.173,36.198-5.171,69.858,15.516,90.547C36.198,111.23,69.857,111.23,90.545,90.542z M21.301,21.3
		C38.794,3.807,67.261,3.805,84.759,21.302c17.494,17.494,17.492,45.962-0.002,63.455c-17.494,17.494-45.962,17.496-63.456,0.002
		C3.803,67.263,3.805,38.794,21.301,21.3z"/>
	<path d="M75.639,71.029c0-1.921-1.559-3.478-3.479-3.478H33.901c-1.921,0-3.479,1.557-3.479,3.478s1.558,3.479,3.479,3.479H72.16
		C74.081,74.508,75.639,72.95,75.639,71.029z"/>
	<path d="M31.715,47.109c0.279,0.13,0.622,0.09,0.858-0.1l9.758-7.697c0.193-0.154,0.304-0.388,0.304-0.641s-0.11-0.486-0.308-0.646
		l-9.755-7.695c-0.144-0.112-0.324-0.175-0.507-0.175c-0.122,0-0.246,0.027-0.358,0.082c-0.279,0.135-0.46,0.425-0.46,0.738v3.553
		c0,0.182,0.084,0.351,0.225,0.462l4.664,3.682l-4.664,3.68c-0.141,0.112-0.225,0.282-0.225,0.463v3.554
		C31.247,46.682,31.421,46.965,31.715,47.109z"/>
	<path d="M73.43,47.01c0.143,0.112,0.323,0.175,0.506,0.175c0.122,0,0.246-0.027,0.359-0.082c0.278-0.135,0.459-0.425,0.459-0.738
		v-3.552c0-0.181-0.083-0.35-0.226-0.462l-4.664-3.681l4.664-3.681c0.143-0.111,0.226-0.282,0.226-0.463v-3.554
		c0-0.313-0.175-0.596-0.468-0.741c-0.278-0.13-0.622-0.09-0.858,0.1l-9.756,7.698c-0.193,0.154-0.306,0.389-0.306,0.642
		s0.111,0.485,0.31,0.645L73.43,47.01z"/>
</g>
<g>
</g>
<g>
</g>
<g>
</g>
<g>
</g>
<g>
</g>
<g>
</g>
<g>
</g>
<g>
</g>
<g>
</g>
<g>
</g>
<g>
</g>
<g>
</g>
<g>
</g>
<g>
</g>
<g>
</g>
</svg>
