<?xml version="1.0" encoding="iso-8859-1"?>
<!-- Generator: Adobe Illustrator 16.0.0, SVG Export Plug-In . SVG Version: 6.00 Build 0)  -->
<!DOCTYPE svg PUBLIC "-//W3C//DTD SVG 1.1//EN" "http://www.w3.org/Graphics/SVG/1.1/DTD/svg11.dtd">
<svg version="1.1" id="Capa_1" xmlns="http://www.w3.org/2000/svg" xmlns:xlink="http://www.w3.org/1999/xlink" x="0px" y="0px"
	 width="106.059px" height="106.059px" viewBox="0 0 106.059 106.059" style="enable-background:new 0 0 106.059 106.059;"
	 xml:space="preserve">
<g>
	<path d="M90.546,15.518C69.858-5.172,36.198-5.172,15.515,15.513C-5.173,36.198-5.171,69.858,15.517,90.547
		c20.682,20.684,54.341,20.684,75.027-0.004C111.23,69.858,111.229,36.2,90.546,15.518z M84.757,84.758
		c-17.494,17.494-45.961,17.496-63.455,0.002c-17.498-17.497-17.496-45.966,0-63.46C38.795,3.807,67.261,3.805,84.759,21.302
		C102.253,38.796,102.251,67.265,84.757,84.758z M37.84,45.624l-9.456-9.455c-1.229-1.229-1.229-3.223,0-4.451
		c1.229-1.229,3.222-1.229,4.451,0l9.456,9.455c1.229,1.229,1.229,3.222,0,4.45C41.062,46.854,39.069,46.854,37.84,45.624z
		 M77.673,31.719c1.229,1.229,1.229,3.222,0,4.451l-9.456,9.456c-1.229,1.229-3.222,1.229-4.451,0c-1.229-1.229-1.228-3.224,0-4.451
		l9.456-9.455C74.451,30.489,76.444,30.489,77.673,31.719z M75.639,71.029c0,1.921-1.558,3.479-3.479,3.479H33.902
		c-1.921,0-3.479-1.558-3.479-3.479s1.558-3.478,3.479-3.478h38.259C74.081,67.552,75.639,69.108,75.639,71.029z"/>
</g>
<g>
</g>
<g>
</g>
<g>
</g>
<g>
</g>
<g>
</g>
<g>
</g>
<g>
</g>
<g>
</g>
<g>
</g>
<g>
</g>
<g>
</g>
<g>
</g>
<g>
</g>
<g>
</g>
<g>
</g>
</svg>
