<?xml version="1.0" encoding="iso-8859-1"?>
<!-- Generator: Adobe Illustrator 16.0.0, SVG Export Plug-In . SVG Version: 6.00 Build 0)  -->
<!DOCTYPE svg PUBLIC "-//W3C//DTD SVG 1.1//EN" "http://www.w3.org/Graphics/SVG/1.1/DTD/svg11.dtd">
<svg version="1.1" id="Capa_1" xmlns="http://www.w3.org/2000/svg" xmlns:xlink="http://www.w3.org/1999/xlink" x="0px" y="0px"
	 width="106.059px" height="106.059px" viewBox="0 0 106.059 106.059" style="enable-background:new 0 0 106.059 106.059;"
	 xml:space="preserve">
<g>
	<path d="M90.544,90.542c20.687-20.685,20.685-54.341,0.002-75.023c-20.688-20.69-54.347-20.69-75.031-0.007
		C-5.173,36.199-5.171,69.857,15.517,90.546C36.199,111.23,69.858,111.23,90.544,90.542z M21.302,21.299
		C38.796,3.807,67.262,3.805,84.759,21.301c2.77,2.77,5.097,5.814,6.988,9.045l-9.992,4.51c-1.628-5.424-6.661-9.389-12.607-9.389
		c-6.293,0-11.563,4.441-12.856,10.354h-6.677c-1.307-5.893-6.566-10.316-12.847-10.316c-5.972,0-11.021,4-12.626,9.461l-9.91-4.473
		C16.139,27.205,18.491,24.109,21.302,21.299z M12.688,33.406l10.931,4.934c-0.002,0.111-0.017,0.219-0.017,0.33
		c0,7.262,5.907,13.168,13.166,13.168c7.11,0,12.908-5.67,13.144-12.725h6.095c0.255,7.037,6.044,12.688,13.143,12.688
		c7.26,0,13.167-5.906,13.167-13.168c0-0.137-0.018-0.271-0.021-0.408l11.005-4.967c8.206,16.752,5.367,37.592-8.542,51.499
		c-17.493,17.494-45.96,17.496-63.455,0.004C7.432,70.891,4.57,50.133,12.688,33.406z M30.025,63.994
		c-0.636-1.528,0.089-3.284,1.62-3.922c0.376-0.155,0.766-0.229,1.15-0.229c1.176,0.002,2.292,0.696,2.771,1.852
		c2.777,6.685,9.655,11.004,17.523,11.004c7.69,0,14.528-4.321,17.42-11.012c0.658-1.521,2.424-2.221,3.944-1.563
		c1.52,0.658,2.22,2.425,1.562,3.945c-3.843,8.887-12.843,14.629-22.927,14.629C42.788,78.697,33.735,72.926,30.025,63.994z"/>
</g>
<g>
</g>
<g>
</g>
<g>
</g>
<g>
</g>
<g>
</g>
<g>
</g>
<g>
</g>
<g>
</g>
<g>
</g>
<g>
</g>
<g>
</g>
<g>
</g>
<g>
</g>
<g>
</g>
<g>
</g>
</svg>
