<?xml version="1.0" encoding="iso-8859-1"?>
<!-- Generator: Adobe Illustrator 16.0.0, SVG Export Plug-In . SVG Version: 6.00 Build 0)  -->
<!DOCTYPE svg PUBLIC "-//W3C//DTD SVG 1.1//EN" "http://www.w3.org/Graphics/SVG/1.1/DTD/svg11.dtd">
<svg version="1.1" id="Capa_1" xmlns="http://www.w3.org/2000/svg" xmlns:xlink="http://www.w3.org/1999/xlink" x="0px" y="0px"
	 width="106.059px" height="106.059px" viewBox="0 0 106.059 106.059" style="enable-background:new 0 0 106.059 106.059;"
	 xml:space="preserve">
<g>
	<path d="M15.516,15.512C-5.173,36.198-5.171,69.858,15.518,90.547C36.2,111.23,69.859,111.23,90.544,90.543
		c20.687-20.685,20.685-54.342,0.002-75.024C69.859-5.172,36.199-5.172,15.516,15.512z M84.757,84.758
		c-17.493,17.494-45.961,17.496-63.455,0.002c-17.498-17.497-17.495-45.966,0-63.46c17.494-17.493,45.96-17.495,63.457,0.002
		C102.253,38.795,102.251,67.265,84.757,84.758z M77.35,61.846l-48.638-0.068c0,0-0.001,0-0.002,0c-0.479,0-0.926,0.273-1.191,0.729
		c-0.267,0.455-0.316,1.032-0.132,1.54c4.134,11.375,14.228,18.725,25.714,18.725c11.245,0,21.28-7.315,25.563-18.636
		c0.191-0.506,0.148-1.089-0.117-1.55C78.282,62.124,77.832,61.847,77.35,61.846z M41.889,77.367
		c-2.64-1.153-5.017-2.712-7.013-4.614h7.013V77.367z M41.889,69.451h-9.785v-4.949l9.785,0.011V69.451z M55.233,79.562
		c-0.729,0.057-1.46,0.095-2.201,0.095c-2.636,0-5.186-0.359-7.585-1.023v-5.88h9.786V79.562z M55.233,69.451h-9.786v-4.935
		l9.786,0.011V69.451z M68.575,74.768c-2.835,2.045-6.17,3.52-9.785,4.283v-6.299h9.785V74.768z M68.575,69.451H58.79v-4.92
		l9.785,0.013V69.451z M75.773,66.202c-0.533,1.145-1.179,2.226-1.9,3.249h-1.738v-4.903l2.47,0.002
		c0.43,0.001,0.827,0.202,1.064,0.534C75.904,65.418,75.943,65.838,75.773,66.202z M32.684,37.008c0-1.025,0.365-2.114,1.002-2.988
		c0.729-1,1.684-1.551,2.691-1.551c1,0,1.942,0.437,2.625,1.173c0.684-0.736,1.626-1.173,2.626-1.173
		c1.006,0,1.961,0.551,2.688,1.551c0.637,0.874,1.002,1.963,1.002,2.988c0,1.628-1.006,3.473-2.991,5.485
		c-1.414,1.434-2.812,2.425-2.87,2.466c-0.137,0.097-0.296,0.145-0.455,0.145c-0.156,0-0.313-0.046-0.446-0.138
		C38.316,44.801,32.684,40.898,32.684,37.008z M60.803,37.008c0-1.025,0.365-2.114,1.002-2.988c0.729-1,1.685-1.551,2.691-1.551
		c1,0,1.942,0.437,2.625,1.173c0.684-0.736,1.626-1.173,2.626-1.173c1.006,0,1.961,0.551,2.688,1.551
		c0.637,0.874,1.002,1.963,1.002,2.988c0,1.628-1.007,3.473-2.991,5.485c-1.414,1.434-2.812,2.425-2.87,2.466
		c-0.137,0.097-0.296,0.145-0.455,0.145c-0.156,0-0.313-0.046-0.446-0.138C66.435,44.801,60.803,40.898,60.803,37.008z"/>
</g>
<g>
</g>
<g>
</g>
<g>
</g>
<g>
</g>
<g>
</g>
<g>
</g>
<g>
</g>
<g>
</g>
<g>
</g>
<g>
</g>
<g>
</g>
<g>
</g>
<g>
</g>
<g>
</g>
<g>
</g>
</svg>
