<?xml version="1.0" encoding="iso-8859-1"?>
<!-- Generator: Adobe Illustrator 16.0.0, SVG Export Plug-In . SVG Version: 6.00 Build 0)  -->
<!DOCTYPE svg PUBLIC "-//W3C//DTD SVG 1.1//EN" "http://www.w3.org/Graphics/SVG/1.1/DTD/svg11.dtd">
<svg version="1.1" id="Capa_1" xmlns="http://www.w3.org/2000/svg" xmlns:xlink="http://www.w3.org/1999/xlink" x="0px" y="0px"
	 width="106.06px" height="106.06px" viewBox="0 0 106.06 106.06" style="enable-background:new 0 0 106.06 106.06;"
	 xml:space="preserve">
<g>
	<path d="M15.516,15.512C-5.172,36.199-5.17,69.857,15.518,90.547c20.682,20.685,54.342,20.685,75.027-0.005
		c20.687-20.685,20.685-54.341,0.002-75.023C69.86-5.172,36.199-5.172,15.516,15.512z M45.129,83.321
		c-0.032-0.22-0.046-0.454-0.072-0.68c-0.103-0.903-0.168-1.838-0.167-2.812c0-0.218,0.006-0.428,0.012-0.64
		c0.055-2.208,0.359-4.061,0.583-5.141c0.324-0.062,0.69-0.094,1.092-0.094c3.049,0,6.922,1.734,6.956,1.751
		c0.008,0.004,0.079,0.034,0.087,0.036c0.375,0.146,0.786,0.137,1.164-0.036c0.038-0.018,3.9-1.751,6.955-1.751
		c0.401,0,0.769,0.031,1.094,0.095c0.226,1.076,0.533,2.928,0.591,5.14c0.005,0.21,0.013,0.418,0.013,0.634
		c0.003,0.973-0.062,1.908-0.165,2.816c-0.025,0.223-0.039,0.454-0.07,0.672c-0.854,5.879-3.896,9.92-9.042,12.014
		C49.025,93.241,45.988,89.202,45.129,83.321z M43.461,70.719c-0.467,0.218-0.819,0.657-0.969,1.205
		c-0.008,0.027-0.748,2.821-0.89,6.616c-0.005,0.138,0,0.271-0.003,0.405c-3.126-0.567-5.354-2.232-5.354-5.979
		c0-4.86,3.741-8.815,8.338-8.815c4.279,0,5.887,0.467,6.88,1.998c0.609,0.938,1.616,1.498,2.691,1.498s2.083-0.561,2.69-1.498
		c0.993-1.531,2.602-1.998,6.88-1.998c4.599,0,8.339,3.955,8.339,8.815c0,3.747-2.229,5.412-5.355,5.979
		c-0.003-0.138,0.002-0.271-0.003-0.41c-0.146-3.848-0.884-6.592-0.889-6.609c-0.149-0.549-0.501-0.988-0.969-1.207
		c-0.863-0.406-1.912-0.612-3.113-0.612c-2.904,0-6.168,1.184-7.581,1.758c-1.41-0.574-4.667-1.758-7.581-1.758
		C45.372,70.106,44.324,70.312,43.461,70.719z M84.757,84.758C77.274,92.24,67.781,96.513,58,97.594
		c6.274-3.787,8.19-10.146,8.621-15.178c5.005-0.784,8.708-3.735,8.708-9.449c0-6.774-5.194-12.266-11.603-12.266
		c-3.975,0-7.48,0.274-9.571,3.495c-2.091-3.221-5.597-3.495-9.572-3.495c-6.408,0-11.602,5.49-11.602,12.266
		c0,5.714,3.704,8.665,8.709,9.451c0.438,5.126,2.414,11.635,8.981,15.395c-10.691-0.557-21.22-4.904-29.369-13.052
		c-17.498-17.498-17.496-45.967,0-63.461C38.796,3.807,67.26,3.805,84.758,21.302C102.253,38.795,102.251,67.264,84.757,84.758z
		 M42.826,38.027c0.197,0.158,0.308,0.392,0.308,0.645s-0.11,0.486-0.304,0.641l-9.758,7.697c-0.236,0.189-0.579,0.229-0.858,0.1
		c-0.294-0.146-0.468-0.428-0.468-0.741v-3.554c0-0.181,0.084-0.351,0.225-0.463l4.664-3.68l-4.664-3.681
		c-0.141-0.112-0.225-0.281-0.225-0.462v-3.552c0-0.313,0.181-0.604,0.46-0.738c0.112-0.055,0.236-0.082,0.358-0.082
		c0.183,0,0.363,0.062,0.507,0.175L42.826,38.027z M75.252,30.973v3.554c0,0.181-0.083,0.351-0.225,0.463l-4.664,3.68l4.664,3.681
		c0.142,0.112,0.225,0.281,0.225,0.462v3.552c0,0.313-0.18,0.604-0.459,0.738c-0.113,0.055-0.237,0.082-0.359,0.082
		c-0.183,0-0.362-0.062-0.506-0.175l-9.755-7.695c-0.197-0.158-0.309-0.392-0.309-0.645s0.111-0.487,0.305-0.641l9.757-7.697
		c0.237-0.188,0.58-0.229,0.859-0.1C75.079,30.378,75.252,30.66,75.252,30.973z"/>
</g>
<g>
</g>
<g>
</g>
<g>
</g>
<g>
</g>
<g>
</g>
<g>
</g>
<g>
</g>
<g>
</g>
<g>
</g>
<g>
</g>
<g>
</g>
<g>
</g>
<g>
</g>
<g>
</g>
<g>
</g>
</svg>
