<?xml version="1.0" encoding="iso-8859-1"?>
<!-- Generator: Adobe Illustrator 16.0.0, SVG Export Plug-In . SVG Version: 6.00 Build 0)  -->
<!DOCTYPE svg PUBLIC "-//W3C//DTD SVG 1.1//EN" "http://www.w3.org/Graphics/SVG/1.1/DTD/svg11.dtd">
<svg version="1.1" id="Capa_1" xmlns="http://www.w3.org/2000/svg" xmlns:xlink="http://www.w3.org/1999/xlink" x="0px" y="0px"
	 width="106.06px" height="106.059px" viewBox="0 0 106.06 106.059" style="enable-background:new 0 0 106.06 106.059;"
	 xml:space="preserve">
<g>
	<path d="M15.515,15.511C-5.172,36.198-5.17,69.858,15.517,90.545c20.682,20.686,54.34,20.686,75.028-0.004
		c20.686-20.684,20.684-54.341,0.002-75.024C69.857-5.172,36.199-5.172,15.515,15.511z M53.033,96.363
		c-5.986-2.165-9.529-6.355-10.531-12.457c-0.188-1.143-0.281-2.36-0.279-3.621c0.004-2.584,0.406-4.771,0.693-5.997
		c0.377-0.064,0.805-0.097,1.273-0.097c3.557,0,8.074,1.8,8.113,1.815c0.01,0.004,0.092,0.035,0.104,0.038
		c0.438,0.151,0.916,0.142,1.357-0.038c0.043-0.018,4.551-1.815,8.114-1.815c0.469,0,0.896,0.031,1.274,0.098
		c0.289,1.223,0.695,3.402,0.705,5.989c0.004,1.256-0.088,2.474-0.275,3.62C62.589,89.998,59.039,94.191,53.033,96.363z
		 M40.554,70.83c-0.543,0.227-0.955,0.683-1.129,1.251c-0.008,0.026-0.75,2.521-0.99,6.021c-3.48-2.146-5.908-5.183-7.186-9.028
		c-0.369-1.54-0.41-3.828,0.088-4.468c0.068-0.086,0.338-0.122,0.547-0.127c0.326,0.007,0.871,0.054,1.361,0.164
		c2.055,1.013,9.283,4.167,19.539,4.167c6.785,0,13.502-1.399,19.888-4.136c0.996-0.244,1.912-0.244,2.047-0.07
		c0.5,0.643,0.459,2.929,0.102,4.427c-1.287,3.884-3.715,6.922-7.19,9.065c-0.242-3.542-0.984-5.994-0.99-6.014
		c-0.174-0.569-0.584-1.025-1.129-1.253c-1.008-0.421-2.23-0.635-3.633-0.635c-3.39,0-7.196,1.228-8.845,1.823
		c-1.645-0.597-5.445-1.823-8.844-1.823C42.785,70.195,41.562,70.409,40.554,70.83z M84.759,84.756
		c-7.062,7.061-15.906,11.268-25.099,12.629c5.533-3.918,7.402-9.564,7.89-14.195c5.979-2.702,10.02-7.126,11.996-13.199
		c0.057-0.219,1.362-5.4-0.789-8.181c-0.871-1.123-2.164-1.692-3.849-1.692c-0.805,0-1.707,0.132-2.752,0.415
		c-6.278,2.714-12.801,4.09-19.381,4.09c-11.178,0-18.76-4.03-18.834-4.07c-0.035-0.019-0.072-0.032-0.109-0.044
		c-0.848-0.226-1.82-0.364-2.67-0.384v0.002c-0.021-0.003-0.041-0.004-0.063-0.004l-0.133-0.005c-0.047,0-0.094,0.008-0.139,0.021
		c-1.547,0.073-2.742,0.657-3.555,1.738c-2.098,2.789-0.814,7.896-0.75,8.145c1.969,6.048,6.01,10.473,11.992,13.173
		c0.486,4.63,2.357,10.275,7.893,14.193c-9.193-1.358-18.045-5.565-25.105-12.628c-17.498-17.497-17.496-45.966,0-63.46
		C38.794,3.806,67.262,3.804,84.76,21.301C102.255,38.795,102.253,67.263,84.759,84.756z M42.828,37.87
		c0.197,0.158,0.309,0.392,0.309,0.645c0,0.253-0.111,0.486-0.305,0.641l-9.758,7.697c-0.236,0.189-0.578,0.229-0.857,0.1
		c-0.295-0.146-0.469-0.428-0.469-0.741v-3.554c0-0.181,0.084-0.351,0.225-0.463l4.664-3.68l-4.664-3.681
		c-0.141-0.112-0.225-0.281-0.225-0.462V30.82c0-0.313,0.182-0.604,0.461-0.738C32.32,30.027,32.445,30,32.566,30
		c0.184,0,0.363,0.062,0.508,0.175L42.828,37.87z M64.176,39.157c-0.197-0.158-0.31-0.392-0.31-0.645s0.111-0.486,0.306-0.641
		l9.758-7.697c0.236-0.189,0.58-0.229,0.858-0.1c0.294,0.146,0.468,0.428,0.468,0.741v3.554c0,0.181-0.084,0.351-0.226,0.463
		l-4.664,3.68l4.664,3.681c0.142,0.112,0.226,0.281,0.226,0.462v3.552c0,0.313-0.181,0.604-0.459,0.738
		c-0.113,0.055-0.238,0.082-0.359,0.082c-0.184,0-0.363-0.062-0.506-0.175L64.176,39.157z"/>
</g>
<g>
</g>
<g>
</g>
<g>
</g>
<g>
</g>
<g>
</g>
<g>
</g>
<g>
</g>
<g>
</g>
<g>
</g>
<g>
</g>
<g>
</g>
<g>
</g>
<g>
</g>
<g>
</g>
<g>
</g>
</svg>
