<?xml version="1.0" encoding="iso-8859-1"?>
<!-- Generator: Adobe Illustrator 16.0.0, SVG Export Plug-In . SVG Version: 6.00 Build 0)  -->
<!DOCTYPE svg PUBLIC "-//W3C//DTD SVG 1.1//EN" "http://www.w3.org/Graphics/SVG/1.1/DTD/svg11.dtd">
<svg version="1.1" id="Capa_1" xmlns="http://www.w3.org/2000/svg" xmlns:xlink="http://www.w3.org/1999/xlink" x="0px" y="0px"
	 width="106.06px" height="106.06px" viewBox="0 0 106.06 106.06" style="enable-background:new 0 0 106.06 106.06;"
	 xml:space="preserve">
<g>
	<path d="M53.029,106.059c13.586,0,27.172-5.172,37.517-15.519c20.686-20.684,20.684-54.339,0.002-75.022
		C80.202,5.173,66.615,0.001,53.029,0.001c-13.587,0-27.173,5.17-37.515,15.514C-5.173,36.2-5.171,69.858,15.516,90.546
		C25.857,100.889,39.443,106.059,53.029,106.059z M21.301,21.3c8.748-8.747,20.237-13.12,31.728-13.12
		c11.49,0,22.98,4.373,31.729,13.123c17.494,17.492,17.492,45.961-0.002,63.453C76.01,93.505,64.52,97.878,53.029,97.88
		c-11.49,0-22.98-4.373-31.728-13.119c-2.188-2.188-4.101-4.547-5.741-7.033C4.078,60.317,5.993,36.608,21.301,21.3z M51.984,73.03
		c0-2.482,1.305-4.496,2.912-4.496h24.271c1.606,0,2.91,2.014,2.91,4.496c0,2.481-1.304,4.496-2.91,4.496H54.896
		C53.289,77.526,51.984,75.512,51.984,73.03z M31.74,30.671c0-4.113,3.12-7.451,6.965-7.451c3.846,0,6.966,3.338,6.966,7.451
		c0,4.117-3.12,7.453-6.966,7.453C34.86,38.124,31.74,34.788,31.74,30.671z M61.326,30.671c0-4.113,3.123-7.451,6.97-7.451
		c3.845,0,6.965,3.338,6.965,7.451c0,4.117-3.12,7.453-6.965,7.453C64.449,38.124,61.326,34.788,61.326,30.671z"/>
</g>
<g>
</g>
<g>
</g>
<g>
</g>
<g>
</g>
<g>
</g>
<g>
</g>
<g>
</g>
<g>
</g>
<g>
</g>
<g>
</g>
<g>
</g>
<g>
</g>
<g>
</g>
<g>
</g>
<g>
</g>
</svg>
