<?xml version="1.0" encoding="iso-8859-1"?>
<!-- Generator: Adobe Illustrator 16.0.0, SVG Export Plug-In . SVG Version: 6.00 Build 0)  -->
<!DOCTYPE svg PUBLIC "-//W3C//DTD SVG 1.1//EN" "http://www.w3.org/Graphics/SVG/1.1/DTD/svg11.dtd">
<svg version="1.1" id="Capa_1" xmlns="http://www.w3.org/2000/svg" xmlns:xlink="http://www.w3.org/1999/xlink" x="0px" y="0px"
	 width="106.058px" height="106.059px" viewBox="0 0 106.058 106.059" style="enable-background:new 0 0 106.058 106.059;"
	 xml:space="preserve">
<g>
	<path d="M15.515,15.512C-5.172,36.198-5.17,69.858,15.517,90.547c20.682,20.684,54.34,20.684,75.028-0.004
		c20.686-20.685,20.684-54.342,0.002-75.024C69.857-5.172,36.199-5.172,15.515,15.512z M84.758,84.758
		c-17.494,17.494-45.963,17.496-63.456,0.002c-17.498-17.497-17.496-45.966,0-63.46C38.795,3.806,67.262,3.804,84.76,21.301
		C102.254,38.795,102.252,67.265,84.758,84.758z M37.84,45.624l-9.455-9.456c-1.229-1.229-1.229-3.222,0-4.451s3.221-1.229,4.451,0
		l9.455,9.455c1.229,1.229,1.229,3.222,0,4.451C41.062,46.854,39.068,46.854,37.84,45.624z M77.674,31.718
		c1.229,1.229,1.229,3.222-0.002,4.451l-9.455,9.456c-1.229,1.229-3.224,1.229-4.451,0c-1.229-1.229-1.228-3.223,0-4.451
		l9.457-9.455C74.451,30.489,76.443,30.489,77.674,31.718z M70.154,70.198c0,7.058-7.905,12.798-17.625,12.798
		c-9.719,0-17.625-5.74-17.625-12.798c0-7.055,7.906-12.794,17.625-12.794C62.249,57.404,70.154,63.144,70.154,70.198z"/>
</g>
<g>
</g>
<g>
</g>
<g>
</g>
<g>
</g>
<g>
</g>
<g>
</g>
<g>
</g>
<g>
</g>
<g>
</g>
<g>
</g>
<g>
</g>
<g>
</g>
<g>
</g>
<g>
</g>
<g>
</g>
</svg>
