<?xml version="1.0" encoding="iso-8859-1"?>
<!-- Generator: Adobe Illustrator 16.0.0, SVG Export Plug-In . SVG Version: 6.00 Build 0)  -->
<!DOCTYPE svg PUBLIC "-//W3C//DTD SVG 1.1//EN" "http://www.w3.org/Graphics/SVG/1.1/DTD/svg11.dtd">
<svg version="1.1" id="Capa_1" xmlns="http://www.w3.org/2000/svg" xmlns:xlink="http://www.w3.org/1999/xlink" x="0px" y="0px"
	 width="106.059px" height="106.059px" viewBox="0 0 106.059 106.059" style="enable-background:new 0 0 106.059 106.059;"
	 xml:space="preserve">
<g>
	<path d="M15.515,15.513C-5.173,36.198-5.171,69.857,15.517,90.547c20.682,20.684,54.341,20.684,75.027-0.005
		c20.687-20.685,20.685-54.342,0.002-75.024C69.858-5.172,36.198-5.172,15.515,15.513z M84.757,84.758
		c-17.494,17.493-45.961,17.495-63.455,0.002c-5.689-5.689-9.517-12.541-11.506-19.796c4.55,2.507,11.675,5.726,21.101,7.812
		c5.376,1.19,11.882,2.069,19.372,2.069c12.775,0,28.418-2.579,46.165-10.525C94.499,71.812,90.613,78.9,84.757,84.758z
		 M97.557,58.302c-28.25,13.52-51.025,12.763-65.311,9.65C19.883,65.26,11.637,60.417,8.504,58.34
		c-1.559-13.19,2.699-26.943,12.797-37.041C38.794,3.806,67.26,3.804,84.758,21.302C94.847,31.389,99.104,45.124,97.557,58.302z
		 M38.093,79.94c3.636,0.595,8.033,1.034,13.097,1.034c8.638,0,19.213-1.288,31.213-5.258c-1.31,3.743-3.938,7.282-7.896,10.21
		c-11.828,8.736-31.075,8.738-42.901,0.001c-3.847-2.843-6.434-6.267-7.779-9.891C26.904,77.29,31.721,78.898,38.093,79.94z
		 M42.828,41.669c1.16,1.127,1.884,2.7,1.884,4.445c0,3.426-2.777,6.203-6.199,6.203c-3.424,0-6.201-2.777-6.201-6.203
		c0-1.679,0.67-3.197,1.754-4.314l-5.182-5.184c-1.229-1.229-1.229-3.221,0-4.448c1.229-1.23,3.221-1.23,4.451,0l9.455,9.454
		C42.804,41.637,42.814,41.653,42.828,41.669z M78.173,32.168c1.229,1.229,1.229,3.221-0.002,4.448L72.989,41.8
		c1.084,1.115,1.754,2.637,1.754,4.314c0,3.426-2.777,6.203-6.199,6.203c-3.424,0-6.201-2.777-6.201-6.203
		c0-1.744,0.725-3.317,1.885-4.444c0.014-0.016,0.022-0.032,0.037-0.048l9.457-9.454C74.95,30.937,76.943,30.937,78.173,32.168z"/>
</g>
<g>
</g>
<g>
</g>
<g>
</g>
<g>
</g>
<g>
</g>
<g>
</g>
<g>
</g>
<g>
</g>
<g>
</g>
<g>
</g>
<g>
</g>
<g>
</g>
<g>
</g>
<g>
</g>
<g>
</g>
</svg>
