<?xml version="1.0" encoding="iso-8859-1"?>
<!-- Generator: Adobe Illustrator 16.0.0, SVG Export Plug-In . SVG Version: 6.00 Build 0)  -->
<!DOCTYPE svg PUBLIC "-//W3C//DTD SVG 1.1//EN" "http://www.w3.org/Graphics/SVG/1.1/DTD/svg11.dtd">
<svg version="1.1" id="Capa_1" xmlns="http://www.w3.org/2000/svg" xmlns:xlink="http://www.w3.org/1999/xlink" x="0px" y="0px"
	 width="106.059px" height="106.059px" viewBox="0 0 106.059 106.059" style="enable-background:new 0 0 106.059 106.059;"
	 xml:space="preserve">
<g>
	<path d="M90.546,15.518C69.858-5.172,36.198-5.172,15.515,15.513C-5.173,36.198-5.171,69.858,15.517,90.547
		c20.682,20.684,54.341,20.684,75.027-0.004C111.23,69.858,111.229,36.2,90.546,15.518z M84.757,84.758
		c-17.494,17.494-45.961,17.496-63.455,0.002c-17.498-17.497-17.496-45.966,0-63.46C38.795,3.807,67.261,3.805,84.759,21.302
		C102.253,38.796,102.251,67.265,84.757,84.758z M63.766,45.626c-1.229-1.229-1.229-3.223,0-4.451l9.456-9.455
		c1.229-1.229,3.223-1.229,4.451,0c1.229,1.229,1.229,3.222-0.001,4.451l-9.455,9.456C66.988,46.854,64.994,46.854,63.766,45.626z
		 M77.878,47.999c0,2.255-1.827,4.081-4.079,4.081s-4.079-1.826-4.079-4.081c0-2.252,1.827-4.079,4.079-4.079
		C76.05,43.92,77.878,45.746,77.878,47.999z M28.385,36.17c-1.229-1.229-1.229-3.223-0.001-4.451c1.229-1.229,3.222-1.229,4.451,0
		l9.456,9.455c1.229,1.229,1.229,3.222,0,4.45c-1.229,1.229-3.223,1.229-4.451,0L28.385,36.17z M32.258,43.92
		c2.252,0,4.079,1.826,4.079,4.079c0,2.255-1.827,4.081-4.079,4.081c-2.251,0-4.079-1.826-4.079-4.081
		C28.179,45.746,30.007,43.92,32.258,43.92z M70.712,57.334H35.351c-4.687,0-8.486,3.8-8.486,8.485v9.752
		c0,4.688,3.799,8.486,8.486,8.486h35.361c4.688,0,8.486-3.8,8.486-8.486v-9.752C79.198,61.134,75.398,57.334,70.712,57.334z
		 M38.956,80.755h-5.322c-1.297-0.939-2.271-2.294-2.725-3.872v-4.176h8.047V80.755z M38.956,68.685h-8.047v-4.174
		c0.454-1.578,1.428-2.935,2.725-3.873h5.322V68.685z M51.012,80.755h-8.033v-8.048h8.033V80.755z M51.012,68.685h-8.033v-8.047
		h8.033V68.685z M63.083,80.755H55.05v-8.048h8.033V80.755z M63.083,68.685H55.05v-8.047h8.033V68.685z M75.153,76.883
		c-0.454,1.578-1.429,2.933-2.726,3.872h-5.321v-8.048h8.047V76.883z M75.153,68.685h-8.047v-8.047h5.321
		c1.297,0.938,2.271,2.295,2.726,3.873V68.685z"/>
</g>
<g>
</g>
<g>
</g>
<g>
</g>
<g>
</g>
<g>
</g>
<g>
</g>
<g>
</g>
<g>
</g>
<g>
</g>
<g>
</g>
<g>
</g>
<g>
</g>
<g>
</g>
<g>
</g>
<g>
</g>
</svg>
