<?xml version="1.0" encoding="iso-8859-1"?>
<!-- Generator: Adobe Illustrator 16.0.0, SVG Export Plug-In . SVG Version: 6.00 Build 0)  -->
<!DOCTYPE svg PUBLIC "-//W3C//DTD SVG 1.1//EN" "http://www.w3.org/Graphics/SVG/1.1/DTD/svg11.dtd">
<svg version="1.1" id="Capa_1" xmlns="http://www.w3.org/2000/svg" xmlns:xlink="http://www.w3.org/1999/xlink" x="0px" y="0px"
	 width="106.059px" height="106.059px" viewBox="0 0 106.059 106.059" style="enable-background:new 0 0 106.059 106.059;"
	 xml:space="preserve">
<g>
	<path d="M90.544,90.542c20.687-20.685,20.685-54.341,0.002-75.023c-20.688-20.69-54.347-20.69-75.03-0.006
		C-5.173,36.199-5.171,69.857,15.518,90.547C36.199,111.23,69.858,111.23,90.544,90.542z M21.302,21.299
		c17.493-17.492,45.96-17.494,63.457,0.003c17.494,17.493,17.492,45.962-0.002,63.456c-17.493,17.493-45.962,17.495-63.455,0.003
		C3.804,67.262,3.807,38.793,21.302,21.299z M44.863,84.267c1.339,0.479,2.721,0.848,4.132,1.095
		c1.343,0.235,2.713,0.364,4.105,0.364c1.34,0,2.662-0.127,3.96-0.354c1.41-0.247,2.793-0.614,4.135-1.101
		c7.785-2.818,14.249-9.408,17.469-16.85c0.191-0.443,0.146-0.953-0.118-1.356s-0.714-0.646-1.196-0.646l-48.637-0.059
		c-0.001,0-0.002,0-0.002,0c-0.479,0-0.926,0.238-1.192,0.637c-0.266,0.398-0.315,0.904-0.131,1.349
		C30.493,74.821,36.965,81.438,44.863,84.267z M56.975,81.275c-1.266,0.283-2.559,0.45-3.874,0.45c-1.366,0-2.705-0.172-4.014-0.464
		c-0.688-0.153-1.366-0.347-2.034-0.568c1.146-2.468,3.649-4.044,5.977-4.044c2.331,0,4.836,1.579,5.98,4.053
		C58.341,80.927,57.663,81.122,56.975,81.275z M73.034,69.413c-2.203,3.271-5.243,6.422-8.787,8.719
		c-2.232-3.272-6.411-5.482-11.218-5.482c-4.813,0-8.998,2.217-11.229,5.496c-3.6-2.308-6.658-5.48-8.832-8.781L73.034,69.413z
		 M33.24,38.67c0-3.424,2.777-6.201,6.2-6.201c3.423,0,6.2,2.777,6.2,6.201c0,3.426-2.777,6.203-6.2,6.203
		C36.017,44.873,33.24,42.095,33.24,38.67z M61.357,38.67c0-3.424,2.779-6.201,6.203-6.201c3.423,0,6.199,2.777,6.199,6.201
		c0,3.426-2.776,6.203-6.199,6.203C64.137,44.873,61.357,42.095,61.357,38.67z"/>
</g>
<g>
</g>
<g>
</g>
<g>
</g>
<g>
</g>
<g>
</g>
<g>
</g>
<g>
</g>
<g>
</g>
<g>
</g>
<g>
</g>
<g>
</g>
<g>
</g>
<g>
</g>
<g>
</g>
<g>
</g>
</svg>
