<?xml version="1.0" encoding="iso-8859-1"?>
<!-- Generator: Adobe Illustrator 16.0.0, SVG Export Plug-In . SVG Version: 6.00 Build 0)  -->
<!DOCTYPE svg PUBLIC "-//W3C//DTD SVG 1.1//EN" "http://www.w3.org/Graphics/SVG/1.1/DTD/svg11.dtd">
<svg version="1.1" id="Capa_1" xmlns="http://www.w3.org/2000/svg" xmlns:xlink="http://www.w3.org/1999/xlink" x="0px" y="0px"
	 width="106.059px" height="106.059px" viewBox="0 0 106.059 106.059" style="enable-background:new 0 0 106.059 106.059;"
	 xml:space="preserve">
<g>
	<path d="M90.546,15.518C69.858-5.172,36.2-5.172,15.516,15.513C-5.172,36.198-5.17,69.858,15.518,90.547
		c20.682,20.684,54.34,20.684,75.026-0.004C111.23,69.858,111.228,36.2,90.546,15.518z M84.757,84.758
		c-17.493,17.494-45.961,17.496-63.455,0.002c-17.498-17.497-17.495-45.966,0-63.46C38.796,3.807,67.262,3.805,84.759,21.302
		C102.253,38.796,102.251,67.265,84.757,84.758z M33.241,38.671c0-3.424,2.777-6.201,6.2-6.201c3.423,0,6.2,2.776,6.2,6.201
		c0,3.426-2.777,6.202-6.2,6.202C36.018,44.873,33.241,42.097,33.241,38.671z M61.357,38.671c0-3.424,2.779-6.201,6.202-6.201
		c3.424,0,6.2,2.776,6.2,6.201c0,3.426-2.776,6.202-6.2,6.202C64.136,44.873,61.357,42.097,61.357,38.671z M78.546,61.065
		c0.266,0.403,0.311,0.913,0.118,1.356c-4.285,9.903-14.318,16.304-25.563,16.304c-11.486,0-21.58-6.431-25.714-16.382
		c-0.185-0.443-0.135-0.949,0.131-1.348c0.267-0.397,0.714-0.637,1.192-0.637c0.001,0,0.001,0,0.002,0l31.053,0.038v6.672h6.752
		l0.009-6.664l10.823,0.014C77.833,60.42,78.282,60.662,78.546,61.065z"/>
</g>
<g>
</g>
<g>
</g>
<g>
</g>
<g>
</g>
<g>
</g>
<g>
</g>
<g>
</g>
<g>
</g>
<g>
</g>
<g>
</g>
<g>
</g>
<g>
</g>
<g>
</g>
<g>
</g>
<g>
</g>
</svg>
