<?xml version="1.0" encoding="iso-8859-1"?>
<!-- Generator: Adobe Illustrator 16.0.0, SVG Export Plug-In . SVG Version: 6.00 Build 0)  -->
<!DOCTYPE svg PUBLIC "-//W3C//DTD SVG 1.1//EN" "http://www.w3.org/Graphics/SVG/1.1/DTD/svg11.dtd">
<svg version="1.1" id="Capa_1" xmlns="http://www.w3.org/2000/svg" xmlns:xlink="http://www.w3.org/1999/xlink" x="0px" y="0px"
	 width="106.06px" height="106.059px" viewBox="0 0 106.06 106.059" style="enable-background:new 0 0 106.06 106.059;"
	 xml:space="preserve">
<g>
	<path d="M15.515,15.511C-5.172,36.198-5.17,69.858,15.517,90.545c20.682,20.686,54.34,20.686,75.028-0.004
		c20.686-20.684,20.684-54.341,0.002-75.024C69.857-5.172,36.199-5.172,15.515,15.511z M84.759,84.756
		c-17.494,17.494-45.963,17.496-63.456,0.003c-17.498-17.497-17.496-45.966,0-63.46C38.795,3.806,67.263,3.804,84.761,21.301
		C102.255,38.795,102.253,67.263,84.759,84.756z M28.795,45.48c-1.23,1.148-3.115,1.07-4.248-0.143
		c-1.133-1.212-1.07-3.113,0.143-4.246c5.863-5.483,12.408-2.385,15.072,0c1.236,1.107,1.342,3.007,0.234,4.243
		c-0.117,0.13-0.242,0.249-0.375,0.354c-1.127,0.892-2.762,0.871-3.867-0.119C35.383,45.239,32.045,42.428,28.795,45.48z
		 M81.266,41.127c1.236,1.107,1.342,3.007,0.236,4.243c-0.117,0.13-0.244,0.249-0.377,0.354c-1.125,0.892-2.763,0.871-3.867-0.119
		c-0.369-0.33-3.707-3.141-6.959-0.089c-1.229,1.148-3.115,1.07-4.246-0.143c-1.133-1.212-1.07-3.113,0.141-4.246
		C72.059,35.644,78.602,38.742,81.266,41.127z M77.208,61.31l-48.64-0.067c0,0,0,0-0.002,0c-0.479,0-0.926,0.272-1.191,0.729
		c-0.265,0.456-0.316,1.033-0.131,1.54c4.133,11.374,14.227,18.726,25.713,18.726c11.246,0,21.281-7.314,25.564-18.636
		c0.191-0.508,0.148-1.09-0.117-1.551C78.14,61.589,77.689,61.311,77.208,61.31z M41.746,76.832
		c-2.641-1.154-5.018-2.712-7.014-4.615h7.014V76.832z M41.746,68.917h-9.785v-4.95l9.785,0.013V68.917z M55.091,79.026
		c-0.729,0.058-1.461,0.095-2.202,0.095c-2.635,0-5.186-0.359-7.584-1.023v-5.881h9.786V79.026z M55.091,68.917h-9.786v-4.935
		l9.786,0.011V68.917z M68.432,74.232c-2.834,2.046-6.17,3.52-9.785,4.282v-6.299h9.785V74.232z M68.432,68.917h-9.785v-4.92
		l9.785,0.012V68.917z M75.63,65.667c-0.533,1.146-1.179,2.226-1.9,3.249h-1.738v-4.904l2.47,0.002
		c0.43,0.001,0.827,0.202,1.065,0.534C75.76,64.882,75.8,65.301,75.63,65.667z"/>
</g>
<g>
</g>
<g>
</g>
<g>
</g>
<g>
</g>
<g>
</g>
<g>
</g>
<g>
</g>
<g>
</g>
<g>
</g>
<g>
</g>
<g>
</g>
<g>
</g>
<g>
</g>
<g>
</g>
<g>
</g>
</svg>
