<?xml version="1.0" encoding="iso-8859-1"?>
<!-- Generator: Adobe Illustrator 16.0.0, SVG Export Plug-In . SVG Version: 6.00 Build 0)  -->
<!DOCTYPE svg PUBLIC "-//W3C//DTD SVG 1.1//EN" "http://www.w3.org/Graphics/SVG/1.1/DTD/svg11.dtd">
<svg version="1.1" id="Capa_1" xmlns="http://www.w3.org/2000/svg" xmlns:xlink="http://www.w3.org/1999/xlink" x="0px" y="0px"
	 width="106.059px" height="106.059px" viewBox="0 0 106.059 106.059" style="enable-background:new 0 0 106.059 106.059;"
	 xml:space="preserve">
<g>
	<path d="M15.515,15.511C-5.173,36.198-5.171,69.858,15.517,90.545c20.682,20.686,54.341,20.686,75.027-0.004
		c20.687-20.684,20.685-54.341,0.002-75.024C69.858-5.172,36.199-5.172,15.515,15.511z M84.757,84.756
		c-17.494,17.494-45.96,17.496-63.455,0.003c-17.498-17.497-17.496-45.966,0-63.46C38.796,3.806,67.261,3.804,84.759,21.301
		C102.253,38.795,102.251,67.263,84.757,84.756z M74.907,60.617c-0.733,0-1.579,0.115-2.553,0.374
		c-7.171,3.099-13.854,4.131-19.58,4.131c-11.451,0-19.072-4.131-19.072-4.131c-0.898-0.239-1.834-0.353-2.551-0.367v-0.007H31.15
		c-0.019,0-0.033,0.005-0.052,0.005c-0.042-0.001-0.092-0.005-0.132-0.005l0.001,0.017c-6.297,0.187-3.969,9.231-3.969,9.231
		C31.747,84.451,47.581,85.47,51.92,85.47c0.706,0,1.108-0.026,1.108-0.026s0.401,0.026,1.107,0.026
		c4.34,0,20.175-1.021,24.923-15.605C79.06,69.865,81.452,60.617,74.907,60.617z M32.779,73.371
		c-0.803-1.219-1.491-2.602-2.015-4.182c-0.356-1.487-0.494-4.026,0.182-4.895c0.072-0.092,0.242-0.301,0.95-0.316
		c0.246,0.005,0.561,0.031,0.883,0.075V73.371z M42.112,80.432c-1.813-0.658-3.647-1.573-5.333-2.834V65.574
		c1.421,0.513,3.218,1.066,5.333,1.546V80.432z M51.696,82.111c-1.265-0.014-3.274-0.122-5.583-0.575V67.843
		c1.728,0.239,3.595,0.398,5.583,0.443V82.111z M60.696,81.377c-1.908,0.428-3.65,0.613-5,0.688V68.213
		c1.673-0.1,3.341-0.286,5-0.559V81.377z M69.612,77.341c-1.547,1.214-3.23,2.126-4.917,2.806V66.826
		c1.65-0.412,3.291-0.909,4.917-1.493V77.341z M75.295,69.187c-0.449,1.355-1.021,2.563-1.683,3.651v-8.829
		c0.158-0.016,0.321-0.035,0.463-0.035c0.787,0,0.962,0.226,1.037,0.32C75.79,65.164,75.65,67.709,75.295,69.187z M33.24,38.67
		c0-3.424,2.777-6.201,6.201-6.201c3.423,0,6.2,2.777,6.2,6.201c0,3.426-2.777,6.203-6.2,6.203
		C36.017,44.873,33.24,42.095,33.24,38.67z M61.357,38.67c0-3.424,2.779-6.201,6.203-6.201c3.423,0,6.2,2.777,6.2,6.201
		c0,3.426-2.776,6.203-6.2,6.203S61.357,42.095,61.357,38.67z"/>
</g>
<g>
</g>
<g>
</g>
<g>
</g>
<g>
</g>
<g>
</g>
<g>
</g>
<g>
</g>
<g>
</g>
<g>
</g>
<g>
</g>
<g>
</g>
<g>
</g>
<g>
</g>
<g>
</g>
<g>
</g>
</svg>
