<?xml version="1.0" encoding="iso-8859-1"?>
<!-- Generator: Adobe Illustrator 16.0.0, SVG Export Plug-In . SVG Version: 6.00 Build 0)  -->
<!DOCTYPE svg PUBLIC "-//W3C//DTD SVG 1.1//EN" "http://www.w3.org/Graphics/SVG/1.1/DTD/svg11.dtd">
<svg version="1.1" id="Capa_1" xmlns="http://www.w3.org/2000/svg" xmlns:xlink="http://www.w3.org/1999/xlink" x="0px" y="0px"
	 width="106.059px" height="106.059px" viewBox="0 0 106.059 106.059" style="enable-background:new 0 0 106.059 106.059;"
	 xml:space="preserve">
<g>
	<path d="M15.516,15.512C-5.173,36.198-5.171,69.858,15.518,90.547C36.2,111.23,69.858,111.23,90.544,90.543
		c20.687-20.685,20.685-54.342,0.002-75.024C69.858-5.172,36.199-5.172,15.516,15.512z M84.757,84.758
		c-17.493,17.494-45.962,17.496-63.455,0.002c-17.498-17.497-17.495-45.966,0-63.46c17.493-17.493,45.96-17.495,63.457,0.002
		C102.253,38.795,102.251,67.265,84.757,84.758z M78.546,61.065c0.266,0.403,0.311,0.913,0.118,1.356
		c-4.285,9.903-14.318,16.304-25.563,16.304c-11.486,0-21.58-6.431-25.714-16.382c-0.185-0.443-0.135-0.949,0.131-1.348
		c0.267-0.397,0.714-0.637,1.192-0.637c0.001,0,0.001,0,0.002,0L77.35,60.42C77.832,60.42,78.281,60.662,78.546,61.065z
		 M33.122,37.008c0-1.025,0.365-2.114,1.002-2.988c0.729-1,1.684-1.551,2.691-1.551c1,0,1.942,0.437,2.625,1.173
		c0.684-0.736,1.626-1.173,2.626-1.173c1.006,0,1.961,0.551,2.688,1.551c0.637,0.874,1.002,1.963,1.002,2.988
		c0,1.628-1.006,3.473-2.991,5.485c-1.414,1.434-2.812,2.425-2.87,2.466c-0.137,0.097-0.296,0.145-0.455,0.145
		c-0.156,0-0.313-0.046-0.446-0.138C38.754,44.801,33.122,40.898,33.122,37.008z M61.241,37.008c0-1.025,0.365-2.114,1.002-2.988
		c0.729-1,1.684-1.551,2.69-1.551c1,0,1.942,0.437,2.625,1.173c0.685-0.736,1.626-1.173,2.626-1.173
		c1.007,0,1.962,0.551,2.688,1.551c0.637,0.874,1.002,1.963,1.002,2.988c0,1.628-1.006,3.473-2.991,5.485
		c-1.414,1.434-2.812,2.425-2.87,2.466c-0.137,0.097-0.296,0.145-0.455,0.145c-0.155,0-0.312-0.046-0.445-0.138
		C66.873,44.801,61.241,40.898,61.241,37.008z"/>
</g>
<g>
</g>
<g>
</g>
<g>
</g>
<g>
</g>
<g>
</g>
<g>
</g>
<g>
</g>
<g>
</g>
<g>
</g>
<g>
</g>
<g>
</g>
<g>
</g>
<g>
</g>
<g>
</g>
<g>
</g>
</svg>
