<?xml version="1.0" encoding="iso-8859-1"?>
<!-- Generator: Adobe Illustrator 16.0.0, SVG Export Plug-In . SVG Version: 6.00 Build 0)  -->
<!DOCTYPE svg PUBLIC "-//W3C//DTD SVG 1.1//EN" "http://www.w3.org/Graphics/SVG/1.1/DTD/svg11.dtd">
<svg version="1.1" id="Capa_1" xmlns="http://www.w3.org/2000/svg" xmlns:xlink="http://www.w3.org/1999/xlink" x="0px" y="0px"
	 width="106.059px" height="106.059px" viewBox="0 0 106.059 106.059" style="enable-background:new 0 0 106.059 106.059;"
	 xml:space="preserve">
<g>
	<path d="M90.544,90.542c20.687-20.685,20.685-54.342,0.002-75.024C69.858-5.172,36.199-5.172,15.515,15.513
		C-5.173,36.198-5.171,69.858,15.517,90.547C36.199,111.23,69.858,111.23,90.544,90.542z M21.302,21.3
		C38.796,3.807,67.261,3.805,84.759,21.302c17.494,17.494,17.492,45.962-0.002,63.455c-17.494,17.494-45.96,17.496-63.455,0.002
		C3.804,67.263,3.806,38.794,21.302,21.3z M21.459,38.876v-0.409c0-4.845,3.403-8.771,7.6-8.771h12.982
		c3.397,0,6.273,2.574,7.246,6.125h8.423c0.973-3.55,3.849-6.125,7.246-6.125h12.983c4.196,0,7.6,3.926,7.6,8.771v0.409
		c0,4.844-3.403,8.771-7.6,8.771H64.956c-4.127,0-7.479-3.8-7.589-8.533H49.63c-0.11,4.733-3.462,8.533-7.589,8.533H29.058
		C24.862,47.646,21.459,43.72,21.459,38.876z M76.017,64.068c-3.843,8.887-12.843,14.629-22.927,14.629
		c-10.301,0-19.354-5.771-23.064-14.703c-0.636-1.529,0.089-3.285,1.62-3.921c0.376-0.155,0.766-0.229,1.15-0.229
		c1.176,0,2.292,0.695,2.771,1.85c2.777,6.686,9.655,11.004,17.523,11.004c7.69,0,14.528-4.321,17.42-11.011
		c0.658-1.521,2.424-2.222,3.944-1.563S76.675,62.548,76.017,64.068z"/>
</g>
<g>
</g>
<g>
</g>
<g>
</g>
<g>
</g>
<g>
</g>
<g>
</g>
<g>
</g>
<g>
</g>
<g>
</g>
<g>
</g>
<g>
</g>
<g>
</g>
<g>
</g>
<g>
</g>
<g>
</g>
</svg>
