<?xml version="1.0" encoding="iso-8859-1"?>
<!-- Generator: Adobe Illustrator 16.0.0, SVG Export Plug-In . SVG Version: 6.00 Build 0)  -->
<!DOCTYPE svg PUBLIC "-//W3C//DTD SVG 1.1//EN" "http://www.w3.org/Graphics/SVG/1.1/DTD/svg11.dtd">
<svg version="1.1" id="Capa_1" xmlns="http://www.w3.org/2000/svg" xmlns:xlink="http://www.w3.org/1999/xlink" x="0px" y="0px"
	 width="106.059px" height="106.059px" viewBox="0 0 106.059 106.059" style="enable-background:new 0 0 106.059 106.059;"
	 xml:space="preserve">
<g>
	<path d="M70.137,35.384c1.769,0,3.203,1.436,3.203,3.203c0,1.771-1.436,3.205-3.203,3.205c-1.77,0-3.203-1.435-3.203-3.205
		C66.934,36.819,68.369,35.384,70.137,35.384z M34.724,38.588c0,1.771,1.434,3.205,3.203,3.205c1.768,0,3.203-1.435,3.203-3.205
		c0-1.769-1.436-3.203-3.203-3.203C36.158,35.384,34.724,36.819,34.724,38.588z M90.545,90.542
		c-20.688,20.688-54.347,20.688-75.028,0.005C-5.17,69.857-5.172,36.199,15.515,15.513C36.199-5.172,69.857-5.172,90.547,15.518
		C111.228,36.201,111.23,69.857,90.545,90.542z M95.387,32.703l-0.09,0.04h0.107L95.387,32.703z M13.025,32.743h13.109
		c2.158-4.336,6.633-7.321,11.793-7.321c6.279,0,11.541,4.424,12.848,10.315h6.676c1.293-5.912,6.563-10.354,12.856-10.354
		c5.177,0,9.658,3.005,11.808,7.358h10.92c-2.086-4.125-4.834-7.999-8.274-11.44C67.26,3.805,38.795,3.807,21.302,21.3
		C17.859,24.742,15.111,28.617,13.025,32.743z M70.307,29.463c-5.012,0-9.09,4.075-9.09,9.088c0,5.012,4.078,9.09,9.09,9.09
		c5.011,0,9.089-4.078,9.089-9.09C79.396,33.538,75.318,29.463,70.307,29.463z M37.927,29.499c-5.012,0-9.09,4.076-9.09,9.089
		c0,5.012,4.078,9.09,9.09,9.09c5.01,0,9.088-4.078,9.088-9.09C47.015,33.575,42.937,29.499,37.927,29.499z M95.168,37.721H83.387
		l0.066,0.421c0.004,0.137,0.02,0.271,0.02,0.408c0,7.262-5.905,13.168-13.166,13.168c-7.098,0-12.887-5.65-13.143-12.688h-6.094
		c-0.236,7.056-6.035,12.726-13.145,12.726c-7.26,0-13.166-5.906-13.166-13.168c0-0.084,0.01-0.168,0.012-0.252l0.098-0.614H10.892
		C5.156,53.59,8.601,72.06,21.302,84.76c17.492,17.492,45.96,17.489,63.455-0.003C97.455,72.06,100.902,53.59,95.168,37.721z
		 M53.982,61.408c-10.301,0-19.354,5.771-23.064,14.703c-0.635,1.529,0.09,3.285,1.619,3.922c0.377,0.156,0.768,0.23,1.15,0.23
		c1.176-0.001,2.291-0.697,2.771-1.852c2.777-6.685,9.654-11.005,17.523-11.005c7.689,0,14.527,4.322,17.42,11.013
		c0.658,1.521,2.424,2.222,3.945,1.562c1.52-0.658,2.221-2.424,1.562-3.945C73.066,67.15,64.066,61.408,53.982,61.408z
		 M54.369,70.475c-3.697,0-6.691,2.997-6.691,6.693c0,3.695,2.994,6.692,6.691,6.692c3.695,0,6.69-2.997,6.69-6.692
		C61.059,73.472,58.064,70.475,54.369,70.475z"/>
</g>
<g>
</g>
<g>
</g>
<g>
</g>
<g>
</g>
<g>
</g>
<g>
</g>
<g>
</g>
<g>
</g>
<g>
</g>
<g>
</g>
<g>
</g>
<g>
</g>
<g>
</g>
<g>
</g>
<g>
</g>
</svg>
