<?xml version="1.0" encoding="iso-8859-1"?>
<!-- Generator: Adobe Illustrator 16.0.0, SVG Export Plug-In . SVG Version: 6.00 Build 0)  -->
<!DOCTYPE svg PUBLIC "-//W3C//DTD SVG 1.1//EN" "http://www.w3.org/Graphics/SVG/1.1/DTD/svg11.dtd">
<svg version="1.1" id="Capa_1" xmlns="http://www.w3.org/2000/svg" xmlns:xlink="http://www.w3.org/1999/xlink" x="0px" y="0px"
	 width="106.06px" height="106.06px" viewBox="0 0 106.06 106.06" style="enable-background:new 0 0 106.06 106.06;"
	 xml:space="preserve">
<g>
	<path d="M15.515,15.512C-5.172,36.199-5.17,69.857,15.517,90.547c20.682,20.685,54.34,20.685,75.028-0.005
		c20.686-20.685,20.684-54.341,0.002-75.023C69.857-5.172,36.199-5.172,15.515,15.512z M84.759,84.758
		c-17.494,17.493-45.963,17.495-63.456,0.003C8.317,71.775,4.979,52.75,11.266,36.65l12.348,5.77
		c-0.002,0.084-0.012,0.167-0.012,0.252c0,7.261,5.906,13.167,13.166,13.167c7.109,0,12.908-5.67,13.145-12.726h6.095
		c0.256,7.038,6.045,12.688,13.143,12.688c7.26,0,13.166-5.906,13.166-13.167c0-0.138-0.016-0.271-0.02-0.408l12.477-5.632
		C101.089,52.706,97.757,71.76,84.759,84.758z M27.677,42.671c0-5.012,4.078-9.089,9.09-9.089c5.01,0,9.088,4.077,9.088,9.089
		c0,5.012-4.078,9.089-9.088,9.089C31.756,51.759,27.677,47.682,27.677,42.671z M60.059,42.633c0-5.012,4.078-9.089,9.09-9.089
		c5.01,0,9.088,4.077,9.088,9.089s-4.078,9.089-9.088,9.089C64.137,51.722,60.059,47.646,60.059,42.633z M81.757,38.856
		c-1.627-5.424-6.662-9.389-12.607-9.389c-6.293,0-11.563,4.441-12.856,10.354h-6.677c-1.307-5.894-6.568-10.316-12.848-10.316
		c-5.92,0-10.938,3.928-12.59,9.314L12.67,33.441c2.125-4.389,4.994-8.505,8.633-12.143C38.795,3.806,67.263,3.804,84.761,21.301
		c3.674,3.674,6.563,7.835,8.694,12.273L81.757,38.856z M76.076,70.456v5.609c0,2.803-2.084,5.083-4.643,5.083
		c-2.562,0-4.643-2.28-4.643-5.083c0,2.803-2.082,5.083-4.644,5.083c-2.18,0-4.002-1.66-4.496-3.882
		c-0.496,2.222-2.315,3.882-4.498,3.882c-2.561,0-4.643-2.28-4.643-5.083c0,2.803-2.082,5.083-4.643,5.083
		c-2.18,0-4.002-1.66-4.496-3.882c-0.496,2.222-2.316,3.882-4.498,3.882c-2.559,0-4.643-2.28-4.643-5.083v-5.609
		c0-2.803,2.084-5.083,4.643-5.083c0.195,0,0.379,0.037,0.566,0.063c0.201-0.04,0.408-0.063,0.621-0.063h34.65
		c0.129,0,0.252,0.022,0.379,0.038c0.114-0.01,0.227-0.038,0.346-0.038C73.992,65.373,76.076,67.653,76.076,70.456z M36.767,45.876
		c-1.77,0-3.203-1.435-3.203-3.205c0-1.769,1.434-3.203,3.203-3.203c1.768,0,3.203,1.435,3.203,3.203
		C39.97,44.441,38.535,45.876,36.767,45.876z M68.979,45.876c-1.77,0-3.203-1.435-3.203-3.205c0-1.769,1.435-3.203,3.203-3.203
		c1.768,0,3.203,1.435,3.203,3.203C72.182,44.441,70.746,45.876,68.979,45.876z"/>
</g>
<g>
</g>
<g>
</g>
<g>
</g>
<g>
</g>
<g>
</g>
<g>
</g>
<g>
</g>
<g>
</g>
<g>
</g>
<g>
</g>
<g>
</g>
<g>
</g>
<g>
</g>
<g>
</g>
<g>
</g>
</svg>
