<?xml version="1.0" encoding="iso-8859-1"?>
<!-- Generator: Adobe Illustrator 16.0.0, SVG Export Plug-In . SVG Version: 6.00 Build 0)  -->
<!DOCTYPE svg PUBLIC "-//W3C//DTD SVG 1.1//EN" "http://www.w3.org/Graphics/SVG/1.1/DTD/svg11.dtd">
<svg version="1.1" id="Capa_1" xmlns="http://www.w3.org/2000/svg" xmlns:xlink="http://www.w3.org/1999/xlink" x="0px" y="0px"
	 width="106.059px" height="106.059px" viewBox="0 0 106.059 106.059" style="enable-background:new 0 0 106.059 106.059;"
	 xml:space="preserve">
<g>
	<path d="M90.545,90.542c20.686-20.685,20.684-54.341,0.002-75.023c-20.69-20.69-54.349-20.69-75.033-0.006
		C-5.173,36.199-5.171,69.857,15.516,90.547C36.198,111.23,69.856,111.23,90.545,90.542z M21.301,21.299
		C38.793,3.807,67.261,3.805,84.759,21.302c17.494,17.493,17.492,45.962-0.002,63.456s-45.963,17.495-63.456,0.003
		C3.803,67.262,3.805,38.793,21.301,21.299z M44.507,64.9v2.65h6.043V64.9c0-1.922,1.557-3.479,3.479-3.479
		c1.92,0,3.479,1.557,3.479,3.479v2.65h5.543V64.9c0-1.922,1.557-3.479,3.479-3.479c1.92,0,3.479,1.557,3.479,3.479v2.65h3.149
		c1.923,0,3.479,1.558,3.479,3.479s-1.557,3.479-3.479,3.479h-3.151v2.649c0,1.922-1.558,3.479-3.479,3.479
		c-1.92,0-3.479-1.558-3.479-3.479v-2.649h-5.543v2.649c0,1.922-1.558,3.479-3.479,3.479c-1.92,0-3.479-1.558-3.479-3.479v-2.649
		h-6.043v2.649c0,1.922-1.557,3.479-3.479,3.479c-1.92,0-3.479-1.558-3.479-3.479v-2.649h-2.648c-1.922,0-3.479-1.559-3.479-3.479
		s1.557-3.479,3.479-3.479h2.65V64.9c0-1.922,1.557-3.479,3.479-3.479C42.948,61.423,44.507,62.979,44.507,64.9z M43.53,40.67
		c0,3.426-1.832,6.203-4.09,6.203c-2.258,0-4.09-2.777-4.09-6.203c0-3.424,1.832-6.201,4.09-6.201
		C41.698,34.469,43.53,37.246,43.53,40.67z M29.815,33.045c0.506-2.932,3.172-8.333,9.83-7.787c1.375,0.113,2.398,1.32,2.285,2.697
		c-0.111,1.375-1.301,2.4-2.695,2.287c-3.697-0.312-4.422,3.246-4.492,3.652c-0.211,1.217-1.268,2.075-2.461,2.075
		c-0.141,0-0.285-0.013-0.428-0.036C30.493,35.698,29.582,34.405,29.815,33.045z M63.468,40.67c0-3.424,1.832-6.201,4.09-6.201
		s4.09,2.777,4.09,6.201c0,3.426-1.832,6.203-4.09,6.203S63.468,44.095,63.468,40.67z M65.067,27.955
		c-0.113-1.377,0.91-2.584,2.285-2.697c6.658-0.546,9.324,4.855,9.83,7.787c0.234,1.36-0.678,2.653-2.039,2.889
		c-0.143,0.022-0.287,0.036-0.428,0.036c-1.193,0-2.25-0.858-2.461-2.075c-0.07-0.406-0.795-3.964-4.492-3.652
		C66.368,30.355,65.179,29.33,65.067,27.955z"/>
</g>
<g>
</g>
<g>
</g>
<g>
</g>
<g>
</g>
<g>
</g>
<g>
</g>
<g>
</g>
<g>
</g>
<g>
</g>
<g>
</g>
<g>
</g>
<g>
</g>
<g>
</g>
<g>
</g>
<g>
</g>
</svg>
