<?xml version="1.0" encoding="iso-8859-1"?>
<!-- Generator: Adobe Illustrator 16.0.0, SVG Export Plug-In . SVG Version: 6.00 Build 0)  -->
<!DOCTYPE svg PUBLIC "-//W3C//DTD SVG 1.1//EN" "http://www.w3.org/Graphics/SVG/1.1/DTD/svg11.dtd">
<svg version="1.1" id="Capa_1" xmlns="http://www.w3.org/2000/svg" xmlns:xlink="http://www.w3.org/1999/xlink" x="0px" y="0px"
	 width="106.06px" height="106.06px" viewBox="0 0 106.06 106.06" style="enable-background:new 0 0 106.06 106.06;"
	 xml:space="preserve">
<g>
	<path d="M15.515,15.512C-5.172,36.199-5.17,69.857,15.517,90.547c20.682,20.685,54.34,20.685,75.028-0.005
		c20.686-20.685,20.684-54.341,0.002-75.023C69.857-5.172,36.199-5.172,15.515,15.512z M84.759,84.758
		c-17.494,17.493-45.963,17.495-63.456,0.003c-17.498-17.498-17.496-45.967,0-63.461C38.795,3.807,67.263,3.805,84.761,21.302
		C102.255,38.795,102.253,67.264,84.759,84.758z M41.826,47.244c-2.42,2.421-6.348,2.421-8.771-0.002c-2.42-2.42-2.42-6.348,0-8.769
		c2.422-2.421,6.35-2.421,8.77,0.001C44.246,40.896,44.246,44.824,41.826,47.244z M74.21,38.567c2.42,2.421,2.42,6.349,0,8.769
		c-2.425,2.423-6.353,2.423-8.771,0.002c-2.42-2.42-2.42-6.348,0.002-8.77C67.859,36.146,71.787,36.146,74.21,38.567z M62.88,70.617
		l-2.679,2.682l2.679,2.676c0.957,0.959,1.485,2.232,1.485,3.586c0,1.354-0.526,2.63-1.485,3.588c-1.916,1.918-5.254,1.92-7.175,0
		l-2.678-2.675l-2.676,2.675c-0.959,0.961-2.232,1.487-3.588,1.487c-1.354,0-2.627-0.528-3.586-1.487
		c-1.977-1.975-1.977-5.193,0-7.17l2.678-2.68l-2.68-2.68c-1.877-1.878-1.973-4.916-0.219-6.919
		c0.039-0.052,0.119-0.146,0.209-0.236c1.945-1.946,5.268-1.936,7.184-0.02l2.678,2.68l2.681-2.68
		c1.823-1.825,4.973-1.921,6.918-0.22c0.062,0.047,0.161,0.131,0.254,0.224c0.957,0.957,1.485,2.229,1.485,3.582
		C64.367,68.387,63.839,69.658,62.88,70.617z"/>
</g>
<g>
</g>
<g>
</g>
<g>
</g>
<g>
</g>
<g>
</g>
<g>
</g>
<g>
</g>
<g>
</g>
<g>
</g>
<g>
</g>
<g>
</g>
<g>
</g>
<g>
</g>
<g>
</g>
<g>
</g>
</svg>
