<?xml version="1.0" encoding="iso-8859-1"?>
<!-- Generator: Adobe Illustrator 16.0.0, SVG Export Plug-In . SVG Version: 6.00 Build 0)  -->
<!DOCTYPE svg PUBLIC "-//W3C//DTD SVG 1.1//EN" "http://www.w3.org/Graphics/SVG/1.1/DTD/svg11.dtd">
<svg version="1.1" id="Capa_1" xmlns="http://www.w3.org/2000/svg" xmlns:xlink="http://www.w3.org/1999/xlink" x="0px" y="0px"
	 width="106.059px" height="106.059px" viewBox="0 0 106.059 106.059" style="enable-background:new 0 0 106.059 106.059;"
	 xml:space="preserve">
<g>
	<path d="M15.515,15.511C-5.173,36.198-5.171,69.858,15.517,90.545c20.682,20.686,54.34,20.686,75.027-0.004
		c20.687-20.684,20.685-54.341,0.002-75.024C69.858-5.172,36.199-5.172,15.515,15.511z M84.757,84.756
		c-17.493,17.494-45.96,17.496-63.455,0.003C7.432,70.89,4.57,50.132,12.688,33.406l10.931,4.934
		c-0.002,0.11-0.017,0.219-0.017,0.33c0,7.261,5.907,13.167,13.166,13.167c7.11,0,12.908-5.67,13.144-12.725h6.095
		C56.261,46.15,62.05,51.8,69.148,51.8c7.26,0,13.167-5.906,13.167-13.167c0-0.138-0.018-0.271-0.021-0.408l11.005-4.968
		C101.505,50.008,98.665,70.849,84.757,84.756z M27.678,38.67c0-5.012,4.078-9.089,9.088-9.089c5.011,0,9.089,4.077,9.089,9.089
		c0,5.012-4.078,9.089-9.089,9.089C31.756,47.758,27.678,43.681,27.678,38.67z M60.059,38.632c0-5.012,4.078-9.089,9.089-9.089
		s9.089,4.077,9.089,9.089s-4.078,9.089-9.089,9.089S60.059,43.645,60.059,38.632z M84.759,21.3c2.77,2.769,5.097,5.813,6.988,9.045
		l-9.992,4.51c-1.628-5.424-6.661-9.389-12.607-9.389c-6.293,0-11.563,4.441-12.856,10.354h-6.678
		c-1.307-5.894-6.566-10.316-12.847-10.316c-5.972,0-11.021,4-12.626,9.46l-9.91-4.474c1.907-3.285,4.26-6.381,7.071-9.191
		C38.796,3.805,67.262,3.803,84.759,21.3z M36.767,41.875c-1.769,0-3.203-1.435-3.203-3.205c0-1.769,1.435-3.203,3.203-3.203
		c1.768,0,3.204,1.435,3.204,3.203C39.97,40.44,38.535,41.875,36.767,41.875z M68.979,41.875c-1.77,0-3.203-1.435-3.203-3.205
		c0-1.769,1.435-3.203,3.203-3.203c1.768,0,3.203,1.435,3.203,3.203C72.181,40.44,70.746,41.875,68.979,41.875z M76.017,64.069
		c-3.843,8.887-12.843,14.629-22.927,14.629c-10.301,0-19.354-5.771-23.064-14.703c-0.636-1.529,0.089-3.285,1.62-3.922
		c0.376-0.156,0.766-0.23,1.15-0.23c1.176,0.001,2.292,0.697,2.771,1.852c2.777,6.685,9.655,11.005,17.523,11.005
		c7.69,0,14.528-4.322,17.42-11.012c0.658-1.521,2.424-2.223,3.944-1.563C75.975,60.782,76.674,62.547,76.017,64.069z"/>
</g>
<g>
</g>
<g>
</g>
<g>
</g>
<g>
</g>
<g>
</g>
<g>
</g>
<g>
</g>
<g>
</g>
<g>
</g>
<g>
</g>
<g>
</g>
<g>
</g>
<g>
</g>
<g>
</g>
<g>
</g>
</svg>
