<?xml version="1.0" encoding="iso-8859-1"?>
<!-- Generator: Adobe Illustrator 16.0.0, SVG Export Plug-In . SVG Version: 6.00 Build 0)  -->
<!DOCTYPE svg PUBLIC "-//W3C//DTD SVG 1.1//EN" "http://www.w3.org/Graphics/SVG/1.1/DTD/svg11.dtd">
<svg version="1.1" id="Capa_1" xmlns="http://www.w3.org/2000/svg" xmlns:xlink="http://www.w3.org/1999/xlink" x="0px" y="0px"
	 width="106.06px" height="106.06px" viewBox="0 0 106.06 106.06" style="enable-background:new 0 0 106.06 106.06;"
	 xml:space="preserve">
<g>
	<path d="M15.516,15.512C-5.172,36.199-5.17,69.857,15.518,90.547c20.682,20.685,54.341,20.685,75.027-0.005
		c20.687-20.685,20.685-54.341,0.002-75.023C69.859-5.172,36.199-5.172,15.516,15.512z M84.757,84.758
		c-4.374,4.373-9.433,7.652-14.835,9.84c-5.401,2.188-11.147,3.281-16.893,3.281c-11.49,0-22.98-4.372-31.727-13.118
		C8.318,71.774,4.979,52.749,11.267,36.649l12.347,5.77c-0.001,0.084-0.013,0.167-0.013,0.252c0,7.261,5.907,13.167,13.166,13.167
		c7.11,0,12.908-5.67,13.144-12.726h6.095c0.255,7.038,6.044,12.688,13.143,12.688c7.26,0,13.167-5.906,13.167-13.167
		c0-0.138-0.018-0.271-0.021-0.408l12.479-5.632C101.088,52.705,97.755,71.759,84.757,84.758z M27.679,42.671
		c0-5.012,4.078-9.089,9.088-9.089c5.011,0,9.089,4.077,9.089,9.089c0,5.012-4.078,9.089-9.089,9.089
		C31.757,51.759,27.679,47.682,27.679,42.671z M60.059,42.633c0-5.012,4.078-9.089,9.089-9.089s9.089,4.077,9.089,9.089
		s-4.078,9.089-9.089,9.089S60.059,47.646,60.059,42.633z M81.756,38.856c-1.628-5.424-6.661-9.389-12.607-9.389
		c-6.293,0-11.563,4.441-12.856,10.354h-6.677c-1.307-5.894-6.566-10.316-12.847-10.316c-5.919,0-10.937,3.928-12.588,9.314
		l-11.51-5.377c2.125-4.39,4.996-8.506,8.633-12.144C30.05,12.552,41.539,8.178,53.03,8.179c7.182,0,14.362,1.708,20.875,5.126
		c3.908,2.05,7.574,4.715,10.854,7.996c3.674,3.674,6.566,7.835,8.696,12.273L81.756,38.856z M36.768,45.876
		c-1.769,0-3.203-1.435-3.203-3.205c0-1.769,1.435-3.203,3.203-3.203c1.768,0,3.204,1.435,3.204,3.203
		C39.971,44.441,38.536,45.876,36.768,45.876z M54.089,62.371c-10.301,0-19.354,5.771-23.064,14.703
		c-0.636,1.529,0.089,3.285,1.62,3.922c0.376,0.156,0.766,0.23,1.15,0.23c1.176-0.001,2.292-0.697,2.772-1.851
		c1.382-3.328,3.782-6.069,6.814-7.983v4.536c0,3.096,2.3,5.613,5.127,5.613c2.395,0,4.405-1.811,4.966-4.244
		c0.561,2.435,2.571,4.244,4.966,4.244c2.826,0,5.127-2.519,5.127-5.613v-5.162c3.511,1.92,6.337,4.9,7.942,8.616
		c0.658,1.521,2.424,2.222,3.945,1.562c1.52-0.658,2.22-2.424,1.562-3.944C73.173,68.113,64.173,62.371,54.089,62.371z
		 M50.539,75.929c0,1.227-0.912,2.225-2.031,2.225c-1.12,0-2.031-0.998-2.031-2.225v-6.103c1.218-0.487,2.499-0.858,3.83-1.104
		c0.144,0.305,0.232,0.646,0.232,1.012V75.929z M60.47,75.929c0,1.227-0.911,2.225-2.03,2.225c-1.12,0-2.031-0.998-2.031-2.225
		v-6.193c0-0.438,0.12-0.842,0.319-1.187c1.279,0.168,2.521,0.461,3.713,0.859c0.015,0.107,0.029,0.215,0.029,0.326V75.929z
		 M68.979,45.876c-1.77,0-3.203-1.435-3.203-3.205c0-1.769,1.435-3.203,3.203-3.203c1.768,0,3.203,1.435,3.203,3.203
		C72.181,44.441,70.747,45.876,68.979,45.876z"/>
</g>
<g>
</g>
<g>
</g>
<g>
</g>
<g>
</g>
<g>
</g>
<g>
</g>
<g>
</g>
<g>
</g>
<g>
</g>
<g>
</g>
<g>
</g>
<g>
</g>
<g>
</g>
<g>
</g>
<g>
</g>
</svg>
