<?xml version="1.0" encoding="iso-8859-1"?>
<!-- Generator: Adobe Illustrator 16.0.0, SVG Export Plug-In . SVG Version: 6.00 Build 0)  -->
<!DOCTYPE svg PUBLIC "-//W3C//DTD SVG 1.1//EN" "http://www.w3.org/Graphics/SVG/1.1/DTD/svg11.dtd">
<svg version="1.1" id="Capa_1" xmlns="http://www.w3.org/2000/svg" xmlns:xlink="http://www.w3.org/1999/xlink" x="0px" y="0px"
	 width="106.059px" height="106.059px" viewBox="0 0 106.059 106.059" style="enable-background:new 0 0 106.059 106.059;"
	 xml:space="preserve">
<g>
	<path d="M90.544,90.542c20.687-20.685,20.685-54.341,0.002-75.023c-20.688-20.69-54.348-20.69-75.031-0.007
		C-5.173,36.199-5.171,69.857,15.517,90.546C36.198,111.23,69.858,111.23,90.544,90.542z M84.758,21.3
		C95.03,31.573,99.262,45.63,97.47,59.027l-16.532-14.01c0.872-1.758,1.376-3.73,1.376-5.824c0-7.262-5.907-13.166-13.167-13.166
		c-3.01,0-5.776,1.025-7.996,2.73L39.375,10.304C54.856,5.384,72.498,9.042,84.758,21.3z M21.302,21.299
		c4.285-4.283,9.229-7.512,14.508-9.697L58.8,31.079c-1.759,2.24-2.817,5.053-2.817,8.115c0,7.26,5.906,13.166,13.166,13.166
		c3.978,0,7.542-1.779,9.958-4.578l17.695,14.994c-1.78,8.062-5.788,15.726-12.046,21.98c-17.494,17.494-45.96,17.496-63.455,0.004
		C3.804,67.262,3.806,38.793,21.302,21.299z M35.349,84.059H70.71c4.688,0,8.486-3.801,8.486-8.486V65.82
		c0-4.688-3.8-8.485-8.486-8.485H35.349c-4.687,0-8.486,3.799-8.486,8.485v9.752C26.862,80.259,30.662,84.059,35.349,84.059z
		 M67.104,60.637h5.321c1.297,0.938,2.271,2.295,2.726,3.873v4.174h-8.047V60.637z M67.104,72.707h8.047v4.177
		c-0.454,1.578-1.429,2.932-2.726,3.871h-5.321V72.707z M55.048,60.637h8.033v8.047h-8.033V60.637z M55.048,72.707h8.033v8.048
		h-8.033V72.707z M42.978,60.637h8.033v8.047h-8.033V60.637z M42.978,72.707h8.033v8.048h-8.033V72.707z M30.907,64.51
		c0.454-1.578,1.428-2.935,2.725-3.873h5.322v8.047h-8.047V64.51z M30.907,72.707h8.047v8.048h-5.322
		c-1.297-0.939-2.271-2.293-2.725-3.871V72.707z M31.812,40.113c0-3.422,2.777-6.199,6.201-6.199c3.423,0,6.2,2.777,6.2,6.199
		c0,3.428-2.777,6.203-6.2,6.203C34.589,46.316,31.812,43.542,31.812,40.113z"/>
</g>
<g>
</g>
<g>
</g>
<g>
</g>
<g>
</g>
<g>
</g>
<g>
</g>
<g>
</g>
<g>
</g>
<g>
</g>
<g>
</g>
<g>
</g>
<g>
</g>
<g>
</g>
<g>
</g>
<g>
</g>
</svg>
