<?xml version="1.0" encoding="iso-8859-1"?>
<!-- Generator: Adobe Illustrator 16.0.0, SVG Export Plug-In . SVG Version: 6.00 Build 0)  -->
<!DOCTYPE svg PUBLIC "-//W3C//DTD SVG 1.1//EN" "http://www.w3.org/Graphics/SVG/1.1/DTD/svg11.dtd">
<svg version="1.1" id="Capa_1" xmlns="http://www.w3.org/2000/svg" xmlns:xlink="http://www.w3.org/1999/xlink" x="0px" y="0px"
	 width="106.062px" height="106.062px" viewBox="0 0 106.062 106.062" style="enable-background:new 0 0 106.062 106.062;"
	 xml:space="preserve">
<g>
	<path d="M15.516,90.549c10.986,10.988,25.637,16.14,40.059,15.451c12.728-0.604,25.275-5.758,34.974-15.457
		c20.686-20.684,20.684-54.34,0.002-75.022C77.618,2.588,59.622-2.261,42.891,0.971C32.852,2.909,23.271,7.757,15.514,15.515
		C-5.173,36.201-5.171,69.86,15.516,90.549z M21.305,21.301c8.199-8.199,18.809-12.555,29.57-13.068
		c12.197-0.58,24.588,3.777,33.883,13.072c17.494,17.493,17.492,45.962-0.002,63.455c-7.107,7.105-16.023,11.326-25.281,12.658
		c-13.529,1.947-27.783-2.271-38.17-12.655C3.807,67.264,3.809,38.795,21.305,21.301z M28.643,38.081
		c0-0.418,0.043-0.825,0.107-1.226c0.588,3.619,3.719,6.385,7.5,6.385c3.783,0,6.914-2.766,7.5-6.385
		c0.064,0.4,0.107,0.808,0.107,1.226c0,4.204-3.406,7.611-7.607,7.611C32.051,45.692,28.643,42.285,28.643,38.081z M63.146,38.081
		c0-0.418,0.045-0.825,0.109-1.226c0.588,3.619,3.719,6.385,7.5,6.385c3.782,0,6.912-2.766,7.5-6.385
		c0.063,0.4,0.106,0.808,0.106,1.226c0,4.204-3.406,7.611-7.606,7.611C66.554,45.692,63.146,42.285,63.146,38.081z M43.206,69.392
		h19.648c1.303,0,2.357,1.63,2.357,3.641c0,2.009-1.056,3.641-2.357,3.641H43.206c-1.301,0-2.357-1.632-2.357-3.641
		C40.848,71.021,41.905,69.392,43.206,69.392z"/>
</g>
<g>
</g>
<g>
</g>
<g>
</g>
<g>
</g>
<g>
</g>
<g>
</g>
<g>
</g>
<g>
</g>
<g>
</g>
<g>
</g>
<g>
</g>
<g>
</g>
<g>
</g>
<g>
</g>
<g>
</g>
</svg>
