<?xml version="1.0" encoding="iso-8859-1"?>
<!-- Generator: Adobe Illustrator 16.0.0, SVG Export Plug-In . SVG Version: 6.00 Build 0)  -->
<!DOCTYPE svg PUBLIC "-//W3C//DTD SVG 1.1//EN" "http://www.w3.org/Graphics/SVG/1.1/DTD/svg11.dtd">
<svg version="1.1" id="Capa_1" xmlns="http://www.w3.org/2000/svg" xmlns:xlink="http://www.w3.org/1999/xlink" x="0px" y="0px"
	 width="106.059px" height="106.059px" viewBox="0 0 106.059 106.059" style="enable-background:new 0 0 106.059 106.059;"
	 xml:space="preserve">
<g>
	<path d="M90.544,90.541c20.687-20.684,20.685-54.34,0.002-75.022c-20.688-20.69-54.348-20.69-75.031-0.005
		C-5.173,36.199-5.171,69.857,15.517,90.547C36.198,111.23,69.858,111.23,90.544,90.541z M21.302,21.299
		C38.795,3.807,67.261,3.805,84.759,21.303c17.494,17.492,17.492,45.96-0.002,63.455c-17.494,17.492-45.961,17.494-63.455,0.002
		C3.804,67.261,3.806,38.793,21.302,21.299z M28.709,78.703l48.637,0.068h0.002c0.479,0,0.927-0.273,1.191-0.729
		c0.268-0.455,0.316-1.033,0.133-1.539c-4.135-11.374-14.228-18.726-25.714-18.726c-11.245,0-21.28,7.315-25.563,18.637
		c-0.191,0.506-0.148,1.088,0.117,1.549S28.228,78.703,28.709,78.703z M64.17,63.181c2.64,1.154,5.018,2.714,7.013,4.615H64.17
		V63.181z M64.17,71.097h9.785v4.949l-9.785-0.01V71.097z M50.826,60.988c0.728-0.058,1.46-0.097,2.2-0.097
		c2.636,0,5.186,0.359,7.585,1.023v5.881h-9.785V60.988z M50.826,71.097h9.785v4.935l-9.785-0.01V71.097z M37.484,65.781
		c2.835-2.045,6.17-3.521,9.785-4.283v6.299h-9.785V65.781z M37.484,71.097h9.785v4.92l-9.785-0.012V71.097z M30.286,74.345
		c0.533-1.143,1.178-2.225,1.9-3.248h1.738v4.904l-2.469-0.002c-0.43-0.002-0.828-0.201-1.065-0.535
		C30.155,75.133,30.116,74.711,30.286,74.345z M38.496,36.414c0-3.424,2.777-6.201,6.201-6.201c3.422,0,6.199,2.777,6.199,6.201
		c0,3.426-2.777,6.203-6.199,6.203C41.274,42.617,38.496,39.84,38.496,36.414z M54.528,36.414c0-3.424,2.776-6.201,6.201-6.201
		c3.422,0,6.198,2.777,6.198,6.201c0,3.426-2.776,6.203-6.198,6.203C57.305,42.617,54.528,39.84,54.528,36.414z"/>
</g>
<g>
</g>
<g>
</g>
<g>
</g>
<g>
</g>
<g>
</g>
<g>
</g>
<g>
</g>
<g>
</g>
<g>
</g>
<g>
</g>
<g>
</g>
<g>
</g>
<g>
</g>
<g>
</g>
<g>
</g>
</svg>
