<?xml version="1.0" encoding="iso-8859-1"?>
<!-- Generator: Adobe Illustrator 16.0.0, SVG Export Plug-In . SVG Version: 6.00 Build 0)  -->
<!DOCTYPE svg PUBLIC "-//W3C//DTD SVG 1.1//EN" "http://www.w3.org/Graphics/SVG/1.1/DTD/svg11.dtd">
<svg version="1.1" id="Capa_1" xmlns="http://www.w3.org/2000/svg" xmlns:xlink="http://www.w3.org/1999/xlink" x="0px" y="0px"
	 width="106.059px" height="106.06px" viewBox="0 0 106.059 106.06" style="enable-background:new 0 0 106.059 106.06;"
	 xml:space="preserve">
<g>
	<path d="M15.516,15.512C-5.173,36.199-5.171,69.857,15.518,90.547c20.682,20.685,54.341,20.685,75.026-0.005
		c20.687-20.685,20.685-54.341,0.002-75.023C69.859-5.172,36.199-5.172,15.516,15.512z M84.757,84.758
		c-17.493,17.493-45.962,17.495-63.455,0.003c-17.498-17.498-17.495-45.967,0-63.461c17.493-17.492,45.96-17.494,63.457,0.003
		C102.253,38.795,102.251,67.264,84.757,84.758z M64.28,72.878c0,10.019-2.823,18.142-9.999,18.142
		c-7.179,0-8.002-8.123-8.002-18.142c0-10.015,0.823-18.139,8.002-18.139C61.458,54.739,64.28,62.863,64.28,72.878z M45.171,38.671
		c0,1.737-1.409,3.147-3.147,3.147H28.652c-1.738,0-3.147-1.41-3.147-3.147s1.409-3.147,3.147-3.147h13.372
		C43.762,35.523,45.171,36.933,45.171,38.671z M80.553,38.672c0,1.737-1.408,3.146-3.146,3.146H64.034
		c-1.737,0-3.147-1.409-3.147-3.146c0-1.738,1.41-3.147,3.147-3.147h13.372C79.145,35.524,80.553,36.933,80.553,38.672z"/>
</g>
<g>
</g>
<g>
</g>
<g>
</g>
<g>
</g>
<g>
</g>
<g>
</g>
<g>
</g>
<g>
</g>
<g>
</g>
<g>
</g>
<g>
</g>
<g>
</g>
<g>
</g>
<g>
</g>
<g>
</g>
</svg>
