<?xml version="1.0" encoding="iso-8859-1"?>
<!-- Generator: Adobe Illustrator 16.0.0, SVG Export Plug-In . SVG Version: 6.00 Build 0)  -->
<!DOCTYPE svg PUBLIC "-//W3C//DTD SVG 1.1//EN" "http://www.w3.org/Graphics/SVG/1.1/DTD/svg11.dtd">
<svg version="1.1" id="Capa_1" xmlns="http://www.w3.org/2000/svg" xmlns:xlink="http://www.w3.org/1999/xlink" x="0px" y="0px"
	 width="106.06px" height="106.06px" viewBox="0 0 106.06 106.06" style="enable-background:new 0 0 106.06 106.06;"
	 xml:space="preserve">
<g>
	<path d="M15.516,90.547c10.341,10.342,23.927,15.513,37.513,15.512s27.172-5.173,37.517-15.517
		c20.686-20.684,20.684-54.341,0.002-75.024C80.202,5.174,66.615,0.001,53.029,0.001c-13.587,0-27.173,5.17-37.515,15.513
		C-5.173,36.199-5.171,69.858,15.516,90.547z M21.301,21.3c8.748-8.747,20.238-13.12,31.728-13.12s22.98,4.374,31.729,13.123
		c17.494,17.494,17.492,45.962-0.002,63.455c-8.747,8.746-20.237,13.12-31.728,13.121s-22.98-4.372-31.728-13.119
		c-2.188-2.187-4.101-4.546-5.741-7.032C4.078,60.317,5.993,36.608,21.301,21.3z M40.642,80.552H65.42
		c1.242,0,2.252,1.557,2.252,3.479c0,1.92-1.01,3.478-2.252,3.478H40.642c-1.244,0-2.253-1.558-2.253-3.478
		C38.389,82.108,39.398,80.552,40.642,80.552z M24.688,52.314c-1.212-1.134-1.274-3.035-0.142-4.247
		c1.132-1.213,3.018-1.291,4.247-0.143c3.251,3.052,6.589,0.241,6.959-0.089c1.105-0.99,2.741-1.011,3.867-0.119
		c0.133,0.105,0.259,0.224,0.376,0.354c1.106,1.236,1.001,3.136-0.235,4.244C37.096,54.698,30.552,57.797,24.688,52.314z
		 M66.193,52.279c-1.212-1.134-1.273-3.035-0.142-4.247c1.132-1.213,3.018-1.291,4.247-0.143c3.251,3.052,6.589,0.241,6.959-0.089
		c1.104-0.99,2.741-1.011,3.867-0.119c0.133,0.105,0.259,0.224,0.376,0.354c1.105,1.236,1.001,3.136-0.235,4.244
		C78.602,54.663,72.058,57.762,66.193,52.279z"/>
</g>
<g>
</g>
<g>
</g>
<g>
</g>
<g>
</g>
<g>
</g>
<g>
</g>
<g>
</g>
<g>
</g>
<g>
</g>
<g>
</g>
<g>
</g>
<g>
</g>
<g>
</g>
<g>
</g>
<g>
</g>
</svg>
