<?xml version="1.0" encoding="iso-8859-1"?>
<!-- Generator: Adobe Illustrator 16.0.0, SVG Export Plug-In . SVG Version: 6.00 Build 0)  -->
<!DOCTYPE svg PUBLIC "-//W3C//DTD SVG 1.1//EN" "http://www.w3.org/Graphics/SVG/1.1/DTD/svg11.dtd">
<svg version="1.1" id="Capa_1" xmlns="http://www.w3.org/2000/svg" xmlns:xlink="http://www.w3.org/1999/xlink" x="0px" y="0px"
	 width="106.059px" height="106.059px" viewBox="0 0 106.059 106.059" style="enable-background:new 0 0 106.059 106.059;"
	 xml:space="preserve">
<g>
	<path d="M90.544,90.542c20.687-20.685,20.685-54.342,0.002-75.024C69.858-5.172,36.198-5.172,15.515,15.513
		C-5.173,36.198-5.171,69.858,15.517,90.547C36.198,111.23,69.858,111.23,90.544,90.542z M21.302,21.3
		C38.795,3.807,67.261,3.805,84.759,21.302c17.494,17.494,17.492,45.962-0.002,63.455c-17.494,17.494-45.961,17.496-63.455,0.002
		C3.804,67.263,3.806,38.794,21.302,21.3z M25.504,38.672c0-1.738,1.409-3.147,3.147-3.147h13.372c1.738,0,3.147,1.409,3.147,3.147
		c0,1.737-1.409,3.146-3.147,3.146H28.652C26.913,41.818,25.504,40.409,25.504,38.672z M60.886,38.673
		c0-1.738,1.41-3.147,3.147-3.147h13.372c1.737,0,3.146,1.409,3.146,3.147c0,1.737-1.408,3.146-3.146,3.146H64.033
		C62.296,41.819,60.886,40.409,60.886,38.673z M53.029,54.804c9.022,0,16.362,7.341,16.362,16.365c0,9.026-7.34,16.37-16.362,16.37
		c-9.023,0-16.363-7.344-16.363-16.37C36.666,62.145,44.005,54.804,53.029,54.804z"/>
</g>
<g>
</g>
<g>
</g>
<g>
</g>
<g>
</g>
<g>
</g>
<g>
</g>
<g>
</g>
<g>
</g>
<g>
</g>
<g>
</g>
<g>
</g>
<g>
</g>
<g>
</g>
<g>
</g>
<g>
</g>
</svg>
