<?xml version="1.0" encoding="iso-8859-1"?>
<!-- Generator: Adobe Illustrator 16.0.0, SVG Export Plug-In . SVG Version: 6.00 Build 0)  -->
<!DOCTYPE svg PUBLIC "-//W3C//DTD SVG 1.1//EN" "http://www.w3.org/Graphics/SVG/1.1/DTD/svg11.dtd">
<svg version="1.1" id="Capa_1" xmlns="http://www.w3.org/2000/svg" xmlns:xlink="http://www.w3.org/1999/xlink" x="0px" y="0px"
	 width="106.058px" height="106.059px" viewBox="0 0 106.058 106.059" style="enable-background:new 0 0 106.058 106.059;"
	 xml:space="preserve">
<g>
	<path d="M90.547,15.518C69.859-5.172,36.199-5.172,15.515,15.513C-5.172,36.198-5.17,69.858,15.517,90.547
		c20.682,20.684,54.342,20.684,75.028-0.004C111.23,69.858,111.228,36.2,90.547,15.518z M84.758,84.758
		c-17.494,17.494-45.961,17.496-63.456,0.002c-17.498-17.497-17.496-45.966,0-63.46C38.797,3.807,67.262,3.805,84.76,21.302
		C102.254,38.796,102.252,67.265,84.758,84.758z M33.24,38.671c0-3.424,2.777-6.201,6.201-6.201c3.422,0,6.199,2.776,6.199,6.201
		c0,3.426-2.777,6.202-6.199,6.202C36.017,44.873,33.24,42.097,33.24,38.671z M61.357,38.671c0-3.424,2.779-6.201,6.203-6.201
		s6.201,2.776,6.201,6.201c0,3.426-2.777,6.202-6.201,6.202S61.357,42.097,61.357,38.671z M76.017,62.068
		c-2.512,5.805-7.23,10.254-13.006,12.652v3.94c0,5.295-4.471,9.587-9.982,9.587c-5.511,0-9.98-4.292-9.98-9.587v-3.932
		c-5.863-2.405-10.594-6.885-13.023-12.734c-0.637-1.529,0.09-3.285,1.619-3.921c0.377-0.155,0.766-0.229,1.15-0.229
		c1.176,0,2.291,0.695,2.771,1.85c2.777,6.686,9.654,11.004,17.523,11.004c7.689,0,14.527-4.321,17.42-11.011
		c0.658-1.521,2.424-2.222,3.944-1.563C75.974,58.781,76.675,60.548,76.017,62.068z"/>
</g>
<g>
</g>
<g>
</g>
<g>
</g>
<g>
</g>
<g>
</g>
<g>
</g>
<g>
</g>
<g>
</g>
<g>
</g>
<g>
</g>
<g>
</g>
<g>
</g>
<g>
</g>
<g>
</g>
<g>
</g>
</svg>
