<?xml version="1.0" encoding="iso-8859-1"?>
<!-- Generator: Adobe Illustrator 16.0.0, SVG Export Plug-In . SVG Version: 6.00 Build 0)  -->
<!DOCTYPE svg PUBLIC "-//W3C//DTD SVG 1.1//EN" "http://www.w3.org/Graphics/SVG/1.1/DTD/svg11.dtd">
<svg version="1.1" id="Capa_1" xmlns="http://www.w3.org/2000/svg" xmlns:xlink="http://www.w3.org/1999/xlink" x="0px" y="0px"
	 width="106.058px" height="106.059px" viewBox="0 0 106.058 106.059" style="enable-background:new 0 0 106.058 106.059;"
	 xml:space="preserve">
<g>
	<path d="M15.515,15.512C-5.172,36.198-5.17,69.858,15.517,90.547c20.682,20.684,54.34,20.684,75.028-0.004
		c20.686-20.685,20.684-54.342,0.002-75.024C69.857-5.172,36.199-5.172,15.515,15.512z M84.758,84.758
		c-17.494,17.494-45.963,17.496-63.456,0.002c-17.498-17.497-17.496-45.966,0-63.46C38.795,3.806,67.262,3.804,84.76,21.301
		C102.254,38.795,102.252,67.265,84.758,84.758z M42.023,41.818H28.652c-1.738,0-3.148-1.409-3.148-3.147
		c0-1.738,1.41-3.147,3.148-3.147h13.371c1.738,0,3.148,1.409,3.148,3.147C45.171,40.409,43.761,41.818,42.023,41.818z
		 M80.552,38.672c0,1.738-1.408,3.147-3.146,3.147H64.033c-1.735,0-3.146-1.409-3.146-3.147s1.41-3.147,3.146-3.147h13.373
		C79.144,35.525,80.552,36.935,80.552,38.672z M76.017,64.068c-3.844,8.887-12.844,14.629-22.928,14.629
		c-10.301,0-19.355-5.771-23.064-14.703c-0.637-1.529,0.088-3.285,1.619-3.921c0.377-0.155,0.766-0.229,1.15-0.229
		c1.176,0,2.291,0.695,2.771,1.85c2.775,6.686,9.654,11.004,17.523,11.004c7.689,0,14.527-4.321,17.42-11.011
		c0.658-1.521,2.424-2.222,3.944-1.563C75.974,60.781,76.674,62.548,76.017,64.068z"/>
</g>
<g>
</g>
<g>
</g>
<g>
</g>
<g>
</g>
<g>
</g>
<g>
</g>
<g>
</g>
<g>
</g>
<g>
</g>
<g>
</g>
<g>
</g>
<g>
</g>
<g>
</g>
<g>
</g>
<g>
</g>
</svg>
