<?xml version="1.0" encoding="iso-8859-1"?>
<!-- Generator: Adobe Illustrator 16.0.0, SVG Export Plug-In . SVG Version: 6.00 Build 0)  -->
<!DOCTYPE svg PUBLIC "-//W3C//DTD SVG 1.1//EN" "http://www.w3.org/Graphics/SVG/1.1/DTD/svg11.dtd">
<svg version="1.1" id="Capa_1" xmlns="http://www.w3.org/2000/svg" xmlns:xlink="http://www.w3.org/1999/xlink" x="0px" y="0px"
	 width="106.059px" height="106.06px" viewBox="0 0 106.059 106.06" style="enable-background:new 0 0 106.059 106.06;"
	 xml:space="preserve">
<g>
	<path d="M90.546,15.518C69.859-5.172,36.199-5.172,15.516,15.513C-5.173,36.199-5.171,69.857,15.518,90.547
		c20.682,20.685,54.341,20.685,75.026-0.005C111.231,69.857,111.229,36.201,90.546,15.518z M84.757,84.758
		c-17.493,17.493-45.962,17.495-63.455,0.003c-17.498-17.498-17.495-45.967,0-63.461c17.493-17.492,45.96-17.494,63.457,0.003
		C102.253,38.796,102.251,67.264,84.757,84.758z M77.35,65.419l-48.638-0.06c-0.001,0-0.002,0-0.002,0
		c-0.479,0-0.926,0.238-1.192,0.637c-0.266,0.398-0.315,0.904-0.131,1.349c4.134,9.951,14.228,18.382,25.714,18.382
		c11.245,0,21.278-8.399,25.563-18.304c0.191-0.443,0.146-0.953-0.118-1.356S77.833,65.42,77.35,65.419z M53.101,81.726
		c-8.401,0-15.917-5.962-20.132-12.361l40.065,0.049C68.747,75.782,61.305,81.726,53.101,81.726z M33.24,38.671
		c0-3.425,2.777-6.201,6.2-6.201c3.423,0,6.2,2.776,6.2,6.201c0,3.426-2.777,6.202-6.2,6.202
		C36.017,44.873,33.24,42.096,33.24,38.671z M61.358,38.671c0-3.425,2.779-6.201,6.203-6.201c3.423,0,6.199,2.776,6.199,6.201
		c0,3.426-2.776,6.202-6.199,6.202C64.137,44.873,61.358,42.096,61.358,38.671z M41.408,75.188c-0.083-0.121-0.061-0.258,0.06-0.366
		c0.121-0.107,0.324-0.173,0.54-0.173c0,0,0,0,0.001,0l22.042,0.016c0.22,0,0.422,0.066,0.542,0.177
		c0.121,0.108,0.142,0.248,0.055,0.369c-1.941,2.688-6.489,4.968-11.585,4.968C47.857,80.178,43.282,77.89,41.408,75.188z"/>
</g>
<g>
</g>
<g>
</g>
<g>
</g>
<g>
</g>
<g>
</g>
<g>
</g>
<g>
</g>
<g>
</g>
<g>
</g>
<g>
</g>
<g>
</g>
<g>
</g>
<g>
</g>
<g>
</g>
<g>
</g>
</svg>
