<?xml version="1.0" encoding="iso-8859-1"?>
<!-- Generator: Adobe Illustrator 16.0.0, SVG Export Plug-In . SVG Version: 6.00 Build 0)  -->
<!DOCTYPE svg PUBLIC "-//W3C//DTD SVG 1.1//EN" "http://www.w3.org/Graphics/SVG/1.1/DTD/svg11.dtd">
<svg version="1.1" id="Capa_1" xmlns="http://www.w3.org/2000/svg" xmlns:xlink="http://www.w3.org/1999/xlink" x="0px" y="0px"
	 width="106.059px" height="106.059px" viewBox="0 0 106.059 106.059" style="enable-background:new 0 0 106.059 106.059;"
	 xml:space="preserve">
<g>
	<path d="M15.516,15.511C-5.172,36.198-5.17,69.858,15.518,90.545c20.682,20.686,54.34,20.686,75.026-0.004
		c20.687-20.684,20.685-54.341,0.002-75.024C69.858-5.172,36.2-5.172,15.516,15.511z M84.757,84.756
		c-17.493,17.494-45.961,17.496-63.455,0.003c-17.498-17.497-17.495-45.966,0-63.46C38.796,3.806,67.262,3.804,84.759,21.301
		C102.253,38.795,102.251,67.263,84.757,84.756z M76.016,64.069c-3.843,8.887-12.843,14.629-22.927,14.629
		c-10.301,0-19.354-5.771-23.064-14.703c-0.636-1.529,0.089-3.285,1.62-3.922c0.376-0.156,0.766-0.23,1.149-0.23
		c1.176,0.001,2.292,0.697,2.771,1.852c2.776,6.685,9.655,11.005,17.523,11.005c7.69,0,14.528-4.322,17.42-11.012
		c0.658-1.521,2.424-2.223,3.944-1.563C75.974,60.782,76.674,62.547,76.016,64.069z M28.569,30.472
		c-0.205,0.058-0.407-0.063-0.461-0.262c-0.055-0.2,0.063-0.406,0.262-0.461c2.304-0.633,5.31,2.141,7.121,4.142
		c0.837-0.693,1.862-1.164,2.983-1.34c-0.633-2.564-1.779-5.603-3.502-5.986c-0.202-0.045-0.329-0.246-0.284-0.448
		c0.045-0.2,0.232-0.331,0.448-0.284c2.22,0.495,3.467,4.047,4.093,6.646c0.071-0.002,0.141-0.011,0.212-0.011
		c0.629,0,1.234,0.096,1.807,0.27c-0.452-2.587-0.92-7.245,1.218-8.71c0.17-0.115,0.403-0.074,0.521,0.098
		c0.117,0.171,0.073,0.404-0.098,0.521c-1.771,1.213-1.337,5.717-0.825,8.41c2.111,0.989,3.577,3.128,3.577,5.612
		c0,3.426-2.777,6.203-6.2,6.203c-3.423,0-6.2-2.777-6.2-6.203c0-1.652,0.651-3.151,1.706-4.263
		C33.106,32.384,30.386,29.977,28.569,30.472z M78.889,30.074c-0.054,0.198-0.256,0.319-0.461,0.262
		c-1.816-0.496-4.537,1.912-6.378,3.935c1.056,1.111,1.706,2.61,1.706,4.263c0,3.426-2.776,6.203-6.2,6.203
		c-3.423,0-6.199-2.777-6.199-6.203c0-2.484,1.466-4.623,3.576-5.612c0.513-2.693,0.945-7.197-0.824-8.41
		c-0.171-0.117-0.215-0.351-0.099-0.521c0.118-0.172,0.353-0.213,0.521-0.098c2.138,1.465,1.67,6.123,1.218,8.71
		c0.572-0.174,1.178-0.27,1.807-0.27c0.071,0,0.143,0.009,0.213,0.011c0.626-2.6,1.872-6.151,4.093-6.646
		c0.216-0.047,0.402,0.084,0.447,0.284c0.046,0.202-0.081,0.403-0.283,0.448c-1.725,0.384-2.869,3.422-3.503,5.986
		c1.123,0.176,2.146,0.646,2.983,1.34c1.812-2.001,4.817-4.774,7.121-4.142C78.828,29.668,78.945,29.875,78.889,30.074z"/>
</g>
<g>
</g>
<g>
</g>
<g>
</g>
<g>
</g>
<g>
</g>
<g>
</g>
<g>
</g>
<g>
</g>
<g>
</g>
<g>
</g>
<g>
</g>
<g>
</g>
<g>
</g>
<g>
</g>
<g>
</g>
</svg>
