<?xml version="1.0" encoding="iso-8859-1"?>
<!-- Generator: Adobe Illustrator 16.0.0, SVG Export Plug-In . SVG Version: 6.00 Build 0)  -->
<!DOCTYPE svg PUBLIC "-//W3C//DTD SVG 1.1//EN" "http://www.w3.org/Graphics/SVG/1.1/DTD/svg11.dtd">
<svg version="1.1" id="Capa_1" xmlns="http://www.w3.org/2000/svg" xmlns:xlink="http://www.w3.org/1999/xlink" x="0px" y="0px"
	 width="106.059px" height="106.059px" viewBox="0 0 106.059 106.059" style="enable-background:new 0 0 106.059 106.059;"
	 xml:space="preserve">
<g>
	<path d="M90.544,90.542c20.687-20.685,20.685-54.341,0.002-75.024C69.858-5.171,36.199-5.171,15.515,15.513
		C-5.173,36.199-5.171,69.858,15.517,90.546C36.199,111.23,69.858,111.23,90.544,90.542z M21.302,21.3
		C38.796,3.807,67.261,3.805,84.759,21.303c17.494,17.493,17.492,45.962-0.002,63.454c-17.494,17.494-45.96,17.496-63.455,0.003
		C3.804,67.262,3.806,38.794,21.302,21.3z M53.089,72.698c7.69,0,14.528-4.321,17.42-11.012c0.658-1.521,2.424-2.222,3.944-1.563
		s2.22,2.425,1.562,3.945c-3.843,8.887-12.843,14.629-22.927,14.629c-10.301,0-19.354-5.771-23.064-14.703
		c-0.636-1.528,0.089-3.284,1.62-3.922c0.376-0.156,0.766-0.229,1.15-0.229c1.176,0.001,2.292,0.696,2.771,1.851
		C38.342,68.378,45.221,72.698,53.089,72.698z M28.18,31.346c0.073-1.101,1.01-1.938,2.125-1.863
		c0.087,0.006,8.679,0.498,11.91-3.958c0.648-0.896,1.9-1.092,2.793-0.445c0.894,0.648,1.093,1.899,0.445,2.793
		c-3.717,5.125-11.401,5.632-14.292,5.632c-0.636,0-1.039-0.024-1.119-0.03C28.941,33.401,28.107,32.448,28.18,31.346z
		 M34.43,44.312c-0.744-1.023-1.189-2.279-1.189-3.643c0-3.424,2.777-6.201,6.2-6.201c3.424,0,6.2,2.777,6.2,6.201
		c0,1.315-0.412,2.533-1.11,3.537c-1.127-1.549-2.949-2.561-5.011-2.561C37.411,41.646,35.55,42.703,34.43,44.312z M61.557,27.836
		c-0.647-0.894-0.448-2.145,0.445-2.793c0.895-0.646,2.146-0.45,2.793,0.445c3.231,4.456,11.823,3.964,11.91,3.958
		c1.116-0.074,2.052,0.763,2.125,1.863c0.073,1.102-0.761,2.055-1.863,2.128c-0.08,0.006-0.482,0.03-1.119,0.03
		C72.958,33.467,65.274,32.961,61.557,27.836z M67.571,34.431c3.423,0,6.2,2.777,6.2,6.201c0,1.363-0.445,2.619-1.189,3.643
		c-1.12-1.609-2.981-2.666-5.09-2.666c-2.062,0-3.884,1.012-5.011,2.561c-0.698-1.004-1.11-2.222-1.11-3.537
		C61.37,37.209,64.147,34.431,67.571,34.431z"/>
</g>
<g>
</g>
<g>
</g>
<g>
</g>
<g>
</g>
<g>
</g>
<g>
</g>
<g>
</g>
<g>
</g>
<g>
</g>
<g>
</g>
<g>
</g>
<g>
</g>
<g>
</g>
<g>
</g>
<g>
</g>
</svg>
