<?xml version="1.0" encoding="iso-8859-1"?>
<!-- Generator: Adobe Illustrator 16.0.0, SVG Export Plug-In . SVG Version: 6.00 Build 0)  -->
<!DOCTYPE svg PUBLIC "-//W3C//DTD SVG 1.1//EN" "http://www.w3.org/Graphics/SVG/1.1/DTD/svg11.dtd">
<svg version="1.1" id="Capa_1" xmlns="http://www.w3.org/2000/svg" xmlns:xlink="http://www.w3.org/1999/xlink" x="0px" y="0px"
	 width="106.059px" height="106.059px" viewBox="0 0 106.059 106.059" style="enable-background:new 0 0 106.059 106.059;"
	 xml:space="preserve">
<g>
	<path d="M90.544,90.542c20.687-20.685,20.685-54.342,0.002-75.024C69.858-5.172,36.199-5.172,15.515,15.513
		C-5.173,36.198-5.171,69.858,15.517,90.547C36.199,111.23,69.858,111.23,90.544,90.542z M21.301,21.3
		C38.795,3.807,67.261,3.805,84.758,21.302c17.494,17.494,17.492,45.962-0.002,63.455c-17.493,17.494-45.96,17.496-63.455,0.002
		C3.803,67.263,3.806,38.794,21.301,21.3z M53.1,82.771c11.245,0,21.28-7.315,25.563-18.636c0.191-0.506,0.148-1.089-0.117-1.55
		c-0.265-0.462-0.715-0.739-1.197-0.74l-48.637-0.068c0,0-0.001,0-0.002,0c-0.479,0-0.926,0.273-1.191,0.729
		c-0.267,0.455-0.316,1.032-0.132,1.54C31.521,75.421,41.614,82.771,53.1,82.771z M72.133,64.548l2.47,0.002
		c0.43,0.001,0.827,0.202,1.064,0.534c0.235,0.332,0.274,0.754,0.104,1.118c-0.533,1.145-1.179,2.226-1.9,3.249h-1.738V64.548z
		 M41.888,77.367c-2.64-1.153-5.017-2.712-7.013-4.614h7.013V77.367z M58.79,64.531l9.785,0.013v4.907H58.79V64.531z M58.79,72.753
		h9.785v2.016c-2.835,2.045-6.17,3.52-9.785,4.283V72.753z M45.447,64.518l9.785,0.011v4.924h-9.785V64.518z M45.447,72.753h9.785
		v6.809c-0.729,0.057-1.46,0.095-2.2,0.095c-2.636,0-5.186-0.359-7.585-1.023V72.753z M32.104,64.502l9.785,0.011v4.938h-9.785
		V64.502z M34.429,42.312c-0.744-1.023-1.189-2.28-1.189-3.643c0-3.424,2.777-6.201,6.2-6.201c3.424,0,6.2,2.776,6.2,6.201
		c0,1.314-0.412,2.532-1.11,3.536c-1.127-1.549-2.949-2.56-5.011-2.56C37.411,39.646,35.55,40.702,34.429,42.312z M62.548,42.312
		c-0.744-1.023-1.188-2.28-1.188-3.643c0-3.424,2.776-6.201,6.199-6.201c3.425,0,6.2,2.776,6.2,6.201
		c0,1.314-0.412,2.532-1.109,3.536c-1.127-1.549-2.949-2.56-5.012-2.56C65.529,39.646,63.668,40.702,62.548,42.312z"/>
</g>
<g>
</g>
<g>
</g>
<g>
</g>
<g>
</g>
<g>
</g>
<g>
</g>
<g>
</g>
<g>
</g>
<g>
</g>
<g>
</g>
<g>
</g>
<g>
</g>
<g>
</g>
<g>
</g>
<g>
</g>
</svg>
