<?xml version="1.0" encoding="iso-8859-1"?>
<!-- Generator: Adobe Illustrator 16.0.0, SVG Export Plug-In . SVG Version: 6.00 Build 0)  -->
<!DOCTYPE svg PUBLIC "-//W3C//DTD SVG 1.1//EN" "http://www.w3.org/Graphics/SVG/1.1/DTD/svg11.dtd">
<svg version="1.1" id="Capa_1" xmlns="http://www.w3.org/2000/svg" xmlns:xlink="http://www.w3.org/1999/xlink" x="0px" y="0px"
	 width="106.059px" height="106.059px" viewBox="0 0 106.059 106.059" style="enable-background:new 0 0 106.059 106.059;"
	 xml:space="preserve">
<g>
	<path d="M90.546,15.518C69.858-5.172,36.2-5.172,15.516,15.513C-5.172,36.198-5.17,69.858,15.518,90.547
		c20.682,20.684,54.34,20.684,75.026-0.004C111.23,69.858,111.228,36.2,90.546,15.518z M84.757,84.758
		c-17.493,17.494-45.961,17.496-63.455,0.002c-17.498-17.497-17.495-45.966,0-63.46C38.796,3.807,67.262,3.805,84.759,21.302
		C102.253,38.796,102.251,67.265,84.757,84.758z M33.299,44.364h-3.552c-0.313,0-0.604-0.18-0.738-0.459
		c-0.055-0.112-0.082-0.236-0.082-0.358c0-0.184,0.062-0.363,0.175-0.507l7.695-9.755c0.158-0.196,0.392-0.308,0.645-0.308
		s0.486,0.111,0.641,0.304l7.697,9.757c0.189,0.237,0.229,0.58,0.1,0.859c-0.146,0.293-0.428,0.467-0.741,0.467h-3.554
		c-0.181,0-0.351-0.083-0.463-0.225l-3.68-4.664l-3.681,4.664C33.648,44.281,33.479,44.364,33.299,44.364z M77.898,43.038
		c0.188,0.237,0.229,0.58,0.1,0.859c-0.146,0.293-0.428,0.467-0.741,0.467h-3.554c-0.181,0-0.352-0.083-0.463-0.225l-3.681-4.664
		l-3.681,4.664c-0.112,0.141-0.281,0.225-0.462,0.225h-3.552c-0.313,0-0.604-0.18-0.738-0.459c-0.055-0.112-0.082-0.236-0.082-0.358
		c0-0.184,0.062-0.363,0.175-0.507l7.695-9.755c0.158-0.196,0.392-0.308,0.645-0.308c0.254,0,0.486,0.111,0.642,0.304L77.898,43.038
		z M76.016,64.068c-3.843,8.887-12.843,14.629-22.927,14.629c-10.301,0-19.354-5.771-23.064-14.703
		c-0.636-1.529,0.089-3.285,1.62-3.921c0.376-0.155,0.766-0.229,1.149-0.229c1.176,0,2.292,0.695,2.771,1.85
		c2.776,6.686,9.655,11.004,17.523,11.004c7.69,0,14.528-4.321,17.42-11.011c0.658-1.521,2.424-2.222,3.944-1.563
		C75.974,60.781,76.674,62.548,76.016,64.068z"/>
</g>
<g>
</g>
<g>
</g>
<g>
</g>
<g>
</g>
<g>
</g>
<g>
</g>
<g>
</g>
<g>
</g>
<g>
</g>
<g>
</g>
<g>
</g>
<g>
</g>
<g>
</g>
<g>
</g>
<g>
</g>
</svg>
