<?xml version="1.0" encoding="iso-8859-1"?>
<!-- Generator: Adobe Illustrator 16.0.0, SVG Export Plug-In . SVG Version: 6.00 Build 0)  -->
<!DOCTYPE svg PUBLIC "-//W3C//DTD SVG 1.1//EN" "http://www.w3.org/Graphics/SVG/1.1/DTD/svg11.dtd">
<svg version="1.1" id="Capa_1" xmlns="http://www.w3.org/2000/svg" xmlns:xlink="http://www.w3.org/1999/xlink" x="0px" y="0px"
	 width="106.059px" height="106.059px" viewBox="0 0 106.059 106.059" style="enable-background:new 0 0 106.059 106.059;"
	 xml:space="preserve">
<g>
	<path d="M90.546,15.518C69.858-5.172,36.2-5.172,15.516,15.513C-5.172,36.198-5.17,69.858,15.518,90.547
		c20.682,20.684,54.34,20.684,75.026-0.004C111.23,69.858,111.228,36.2,90.546,15.518z M84.757,84.758
		c-17.493,17.494-45.961,17.496-63.455,0.002c-17.498-17.497-17.495-45.966,0-63.46C38.796,3.807,67.262,3.805,84.759,21.302
		C102.253,38.796,102.251,67.265,84.757,84.758z M31.739,37.463c-0.185-0.189-0.248-0.466-0.164-0.716s0.301-0.432,0.561-0.472
		l4.604-0.703l2.065-4.399c0.116-0.247,0.364-0.404,0.637-0.404s0.521,0.157,0.637,0.404l2.065,4.399l4.604,0.703
		c0.26,0.04,0.477,0.222,0.561,0.472s0.021,0.525-0.164,0.715l-3.352,3.437l0.794,4.857c0.043,0.266-0.068,0.532-0.289,0.688
		c-0.121,0.085-0.263,0.128-0.405,0.128c-0.117,0-0.234-0.028-0.34-0.087l-4.11-2.271l-4.108,2.271
		c-0.234,0.131-0.524,0.115-0.745-0.041c-0.22-0.155-0.332-0.422-0.289-0.688l0.791-4.857L31.739,37.463z M59.857,37.463
		c-0.186-0.189-0.248-0.466-0.164-0.716s0.301-0.432,0.561-0.472l4.604-0.703l2.064-4.399c0.116-0.247,0.364-0.404,0.637-0.404
		c0.273,0,0.521,0.157,0.638,0.404l2.064,4.399l4.604,0.703c0.26,0.04,0.477,0.222,0.561,0.472s0.021,0.525-0.164,0.715
		l-3.353,3.438l0.794,4.857c0.043,0.266-0.068,0.532-0.289,0.688c-0.121,0.085-0.263,0.128-0.405,0.128
		c-0.117,0-0.233-0.028-0.34-0.087l-4.11-2.271l-4.107,2.271c-0.234,0.131-0.524,0.115-0.745-0.041
		c-0.22-0.155-0.332-0.422-0.289-0.688l0.791-4.857L59.857,37.463z M78.546,61.065c0.266,0.403,0.311,0.913,0.118,1.356
		c-4.285,9.903-14.318,16.304-25.563,16.304c-11.486,0-21.58-6.431-25.714-16.382c-0.185-0.443-0.135-0.949,0.131-1.348
		c0.267-0.397,0.714-0.637,1.192-0.637c0.001,0,0.001,0,0.002,0L77.35,60.42C77.833,60.42,78.282,60.662,78.546,61.065z"/>
</g>
<g>
</g>
<g>
</g>
<g>
</g>
<g>
</g>
<g>
</g>
<g>
</g>
<g>
</g>
<g>
</g>
<g>
</g>
<g>
</g>
<g>
</g>
<g>
</g>
<g>
</g>
<g>
</g>
<g>
</g>
</svg>
