<?xml version="1.0" encoding="iso-8859-1"?>
<!-- Generator: Adobe Illustrator 16.0.0, SVG Export Plug-In . SVG Version: 6.00 Build 0)  -->
<!DOCTYPE svg PUBLIC "-//W3C//DTD SVG 1.1//EN" "http://www.w3.org/Graphics/SVG/1.1/DTD/svg11.dtd">
<svg version="1.1" id="Capa_1" xmlns="http://www.w3.org/2000/svg" xmlns:xlink="http://www.w3.org/1999/xlink" x="0px" y="0px"
	 width="106.059px" height="106.059px" viewBox="0 0 106.059 106.059" style="enable-background:new 0 0 106.059 106.059;"
	 xml:space="preserve">
<g>
	<path d="M15.515,15.512C-5.173,36.198-5.171,69.858,15.517,90.547c20.682,20.684,54.341,20.684,75.027-0.004
		c20.687-20.685,20.685-54.342,0.002-75.024C69.858-5.172,36.199-5.172,15.515,15.512z M84.757,84.758
		c-17.494,17.494-45.96,17.496-63.455,0.002c-17.498-17.497-17.496-45.966,0-63.46C38.796,3.806,67.261,3.804,84.759,21.301
		C102.253,38.795,102.251,67.265,84.757,84.758z M33.372,27.705c1.303-3.356,5.027-1.911,5.027-1.911
		c3.202,1.244,5.376,6.973,5.376,6.973c-2.719-0.586-4.6-0.155-4.6-0.155c-2.136,0.478-3.71-0.133-3.71-0.133
		C32.005,31.135,33.372,27.705,33.372,27.705z M39.441,36c1.817,0,3.292,2.092,3.292,4.67c0,2.58-1.475,4.671-3.292,4.671
		c-1.818,0-3.292-2.091-3.292-4.671C36.148,38.092,37.624,36,39.441,36z M76.017,64.068c-3.843,8.887-12.843,14.629-22.927,14.629
		c-10.301,0-19.354-5.771-23.064-14.703c-0.636-1.529,0.089-3.285,1.62-3.921c0.376-0.155,0.766-0.229,1.15-0.229
		c1.176,0,2.292,0.695,2.771,1.85c2.777,6.686,9.655,11.004,17.523,11.004c7.69,0,14.528-4.321,17.42-11.011
		c0.658-1.521,2.424-2.222,3.944-1.563S76.675,62.548,76.017,64.068z M61.356,32.667c0,0,2.174-5.729,5.376-6.973
		c0,0,3.724-1.446,5.026,1.911c0,0,1.367,3.431-2.093,4.774c0,0-1.574,0.611-3.71,0.133C65.956,32.511,64.075,32.081,61.356,32.667z
		 M65.69,35.9c1.817,0,3.292,2.092,3.292,4.67c0,2.58-1.476,4.671-3.292,4.671c-1.817,0-3.292-2.091-3.292-4.671
		C62.399,37.991,63.873,35.9,65.69,35.9z"/>
</g>
<g>
</g>
<g>
</g>
<g>
</g>
<g>
</g>
<g>
</g>
<g>
</g>
<g>
</g>
<g>
</g>
<g>
</g>
<g>
</g>
<g>
</g>
<g>
</g>
<g>
</g>
<g>
</g>
<g>
</g>
</svg>
