<?xml version="1.0" encoding="iso-8859-1"?>
<!-- Generator: Adobe Illustrator 16.0.0, SVG Export Plug-In . SVG Version: 6.00 Build 0)  -->
<!DOCTYPE svg PUBLIC "-//W3C//DTD SVG 1.1//EN" "http://www.w3.org/Graphics/SVG/1.1/DTD/svg11.dtd">
<svg version="1.1" id="Capa_1" xmlns="http://www.w3.org/2000/svg" xmlns:xlink="http://www.w3.org/1999/xlink" x="0px" y="0px"
	 width="106.059px" height="106.059px" viewBox="0 0 106.059 106.059" style="enable-background:new 0 0 106.059 106.059;"
	 xml:space="preserve">
<g>
	<path d="M90.546,15.518C69.859-5.172,36.2-5.172,15.516,15.513C-5.172,36.198-5.17,69.858,15.518,90.547
		C36.2,111.23,69.859,111.23,90.543,90.543C111.23,69.858,111.228,36.2,90.546,15.518z M84.757,84.758
		c-17.493,17.494-45.96,17.496-63.455,0.002c-17.498-17.497-17.495-45.966,0-63.46C38.797,3.807,67.262,3.805,84.759,21.302
		C102.253,38.796,102.251,67.265,84.757,84.758z M77.348,64.274l-48.636-0.068c-0.001,0-0.002,0-0.002,0
		c-0.479,0-0.926,0.273-1.191,0.729c-0.268,0.455-0.316,1.033-0.133,1.54c4.135,11.373,14.229,18.724,25.715,18.724
		c11.244,0,21.279-7.314,25.563-18.636c0.191-0.506,0.148-1.089-0.117-1.55C78.282,64.553,77.832,64.274,77.348,64.274z
		 M41.888,79.796c-2.64-1.154-5.017-2.712-7.012-4.615h7.012V79.796z M41.888,71.881h-9.785V66.93l9.785,0.011V71.881z
		 M55.232,81.989c-0.728,0.058-1.459,0.096-2.199,0.096c-2.637,0-5.186-0.36-7.586-1.024v-5.88h9.785V81.989z M55.232,71.881h-9.785
		v-4.936l9.785,0.011V71.881z M68.576,77.196c-2.836,2.045-6.17,3.521-9.785,4.283v-6.299h9.785V77.196z M75.772,68.632
		c-0.533,1.144-1.178,2.225-1.899,3.249h-1.738v-4.904l2.47,0.002c0.429,0.001,0.827,0.202,1.063,0.534
		C75.904,67.846,75.943,68.266,75.772,68.632z M33.241,38.671c0-3.424,2.777-6.201,6.2-6.201c3.424,0,6.2,2.776,6.2,6.201
		c0,3.426-2.776,6.202-6.2,6.202C36.018,44.873,33.241,42.097,33.241,38.671z M61.357,38.671c0-3.424,2.78-6.201,6.202-6.201
		c3.425,0,6.201,2.776,6.201,6.201c0,3.426-2.776,6.202-6.201,6.202C64.137,44.873,61.357,42.097,61.357,38.671z"/>
</g>
<g>
</g>
<g>
</g>
<g>
</g>
<g>
</g>
<g>
</g>
<g>
</g>
<g>
</g>
<g>
</g>
<g>
</g>
<g>
</g>
<g>
</g>
<g>
</g>
<g>
</g>
<g>
</g>
<g>
</g>
</svg>
