<?xml version="1.0" encoding="iso-8859-1"?>
<!-- Generator: Adobe Illustrator 16.0.0, SVG Export Plug-In . SVG Version: 6.00 Build 0)  -->
<!DOCTYPE svg PUBLIC "-//W3C//DTD SVG 1.1//EN" "http://www.w3.org/Graphics/SVG/1.1/DTD/svg11.dtd">
<svg version="1.1" id="Capa_1" xmlns="http://www.w3.org/2000/svg" xmlns:xlink="http://www.w3.org/1999/xlink" x="0px" y="0px"
	 width="106.059px" height="106.059px" viewBox="0 0 106.059 106.059" style="enable-background:new 0 0 106.059 106.059;"
	 xml:space="preserve">
<g>
	<path d="M90.546,15.518C69.858-5.172,36.2-5.172,15.516,15.513C-5.172,36.198-5.17,69.858,15.518,90.547
		c20.682,20.684,54.34,20.684,75.026-0.004C111.23,69.858,111.228,36.2,90.546,15.518z M84.757,84.758
		c-17.493,17.494-45.961,17.496-63.455,0.002c-17.498-17.497-17.495-45.966,0-63.46C38.796,3.807,67.262,3.805,84.759,21.302
		C102.253,38.796,102.251,67.265,84.757,84.758z M79.047,61.065c0.266,0.403,0.311,0.913,0.118,1.356
		c-4.285,9.903-14.318,16.304-25.563,16.304c-11.486,0-21.58-6.431-25.714-16.382c-0.185-0.443-0.135-0.949,0.131-1.348
		c0.267-0.397,0.714-0.637,1.192-0.637c0.001,0,0.001,0,0.002,0l48.637,0.061C78.333,60.42,78.783,60.662,79.047,61.065z
		 M29.009,43.905c-0.055-0.112-0.082-0.236-0.082-0.358c0-0.184,0.062-0.363,0.175-0.507l7.695-9.755
		c0.158-0.196,0.392-0.308,0.645-0.308s0.486,0.111,0.641,0.304l7.697,9.757c0.189,0.237,0.229,0.58,0.1,0.859
		c-0.146,0.293-0.428,0.467-0.741,0.467h-3.554c-0.181,0-0.351-0.083-0.463-0.225l-3.68-4.664l-3.681,4.664
		c-0.112,0.141-0.281,0.225-0.462,0.225h-3.552C29.433,44.364,29.143,44.185,29.009,43.905z M61.127,43.905
		c-0.055-0.112-0.082-0.236-0.082-0.358c0-0.184,0.062-0.363,0.175-0.507l7.695-9.755c0.158-0.196,0.392-0.308,0.645-0.308
		c0.254,0,0.486,0.111,0.642,0.304l7.697,9.757c0.188,0.237,0.229,0.58,0.1,0.859c-0.146,0.293-0.428,0.467-0.741,0.467h-3.554
		c-0.181,0-0.351-0.083-0.463-0.225l-3.681-4.664l-3.681,4.664c-0.112,0.141-0.281,0.225-0.462,0.225h-3.552
		C61.551,44.364,61.261,44.185,61.127,43.905z"/>
</g>
<g>
</g>
<g>
</g>
<g>
</g>
<g>
</g>
<g>
</g>
<g>
</g>
<g>
</g>
<g>
</g>
<g>
</g>
<g>
</g>
<g>
</g>
<g>
</g>
<g>
</g>
<g>
</g>
<g>
</g>
</svg>
