<?xml version="1.0" encoding="iso-8859-1"?>
<!-- Generator: Adobe Illustrator 16.0.0, SVG Export Plug-In . SVG Version: 6.00 Build 0)  -->
<!DOCTYPE svg PUBLIC "-//W3C//DTD SVG 1.1//EN" "http://www.w3.org/Graphics/SVG/1.1/DTD/svg11.dtd">
<svg version="1.1" id="Capa_1" xmlns="http://www.w3.org/2000/svg" xmlns:xlink="http://www.w3.org/1999/xlink" x="0px" y="0px"
	 width="106.059px" height="106.059px" viewBox="0 0 106.059 106.059" style="enable-background:new 0 0 106.059 106.059;"
	 xml:space="preserve">
<g>
	<path d="M90.546,15.518C69.858-5.172,36.2-5.172,15.516,15.513C-5.172,36.198-5.17,69.858,15.518,90.546
		c20.682,20.685,54.34,20.685,75.026-0.004C111.23,69.858,111.228,36.2,90.546,15.518z M84.757,84.757
		c-17.493,17.494-45.961,17.496-63.455,0.003c-17.498-17.497-17.495-45.966,0-63.46C38.796,3.807,67.262,3.805,84.759,21.302
		C102.253,38.796,102.251,67.265,84.757,84.757z M78.546,61.065c0.266,0.404,0.311,0.914,0.118,1.356
		c-4.285,9.903-14.318,16.304-25.563,16.304c-11.486,0-21.58-6.431-25.714-16.382c-0.185-0.443-0.135-0.948,0.131-1.348
		c0.267-0.397,0.714-0.638,1.192-0.638c0,0,0.001,0,0.002,0l48.637,0.061C77.833,60.419,78.282,60.662,78.546,61.065z M33.96,42.312
		c-0.744-1.023-1.189-2.279-1.189-3.643c0-3.425,2.777-6.201,6.2-6.201c3.424,0,6.2,2.776,6.2,6.201c0,1.314-0.412,2.532-1.11,3.536
		c-1.127-1.549-2.949-2.561-5.011-2.561C36.941,39.646,35.08,40.703,33.96,42.312z M62.078,42.312
		c-0.744-1.023-1.189-2.279-1.189-3.643c0-3.425,2.777-6.201,6.2-6.201c3.424,0,6.2,2.776,6.2,6.201c0,1.314-0.412,2.532-1.11,3.536
		c-1.127-1.549-2.948-2.561-5.011-2.561C65.058,39.646,63.198,40.703,62.078,42.312z"/>
</g>
<g>
</g>
<g>
</g>
<g>
</g>
<g>
</g>
<g>
</g>
<g>
</g>
<g>
</g>
<g>
</g>
<g>
</g>
<g>
</g>
<g>
</g>
<g>
</g>
<g>
</g>
<g>
</g>
<g>
</g>
</svg>
