<?xml version="1.0" encoding="iso-8859-1"?>
<!-- Generator: Adobe Illustrator 16.0.0, SVG Export Plug-In . SVG Version: 6.00 Build 0)  -->
<!DOCTYPE svg PUBLIC "-//W3C//DTD SVG 1.1//EN" "http://www.w3.org/Graphics/SVG/1.1/DTD/svg11.dtd">
<svg version="1.1" id="Capa_1" xmlns="http://www.w3.org/2000/svg" xmlns:xlink="http://www.w3.org/1999/xlink" x="0px" y="0px"
	 width="106.058px" height="106.059px" viewBox="0 0 106.058 106.059" style="enable-background:new 0 0 106.058 106.059;"
	 xml:space="preserve">
<g>
	<path d="M15.515,15.513C-5.172,36.198-5.17,69.857,15.517,90.547c20.682,20.684,54.34,20.684,75.028-0.005
		c20.686-20.685,20.684-54.342,0.002-75.024C69.857-5.172,36.199-5.172,15.515,15.513z M84.758,84.758
		c-17.494,17.493-45.963,17.495-63.456,0.002c-17.498-17.497-17.496-45.966,0-63.46C38.795,3.807,67.262,3.805,84.76,21.303
		C102.254,38.796,102.252,67.264,84.758,84.758z M42.828,41.669c1.16,1.127,1.885,2.7,1.885,4.445c0,3.426-2.777,6.203-6.199,6.203
		c-3.424,0-6.201-2.777-6.201-6.203c0-1.679,0.67-3.199,1.754-4.314l-5.182-5.184c-1.229-1.229-1.229-3.221,0-4.448
		c1.229-1.23,3.221-1.23,4.451,0l9.455,9.454C42.804,41.636,42.814,41.653,42.828,41.669z M63.343,46.114
		c0-1.744,0.723-3.317,1.883-4.444c0.014-0.016,0.023-0.032,0.039-0.048l9.457-9.454c1.229-1.23,3.221-1.23,4.451,0
		c1.229,1.229,1.229,3.221-0.002,4.448L73.989,41.8c1.084,1.115,1.754,2.637,1.754,4.314c0,3.426-2.776,6.203-6.198,6.203
		C66.121,52.317,63.343,49.54,63.343,46.114z M59.937,69.299l26.92-1.053C81.65,85.659,63.242,95.595,45.828,90.387L59.937,69.299z"
		/>
</g>
<g>
</g>
<g>
</g>
<g>
</g>
<g>
</g>
<g>
</g>
<g>
</g>
<g>
</g>
<g>
</g>
<g>
</g>
<g>
</g>
<g>
</g>
<g>
</g>
<g>
</g>
<g>
</g>
<g>
</g>
</svg>
