<?xml version="1.0" encoding="iso-8859-1"?>
<!-- Generator: Adobe Illustrator 16.0.0, SVG Export Plug-In . SVG Version: 6.00 Build 0)  -->
<!DOCTYPE svg PUBLIC "-//W3C//DTD SVG 1.1//EN" "http://www.w3.org/Graphics/SVG/1.1/DTD/svg11.dtd">
<svg version="1.1" id="Capa_1" xmlns="http://www.w3.org/2000/svg" xmlns:xlink="http://www.w3.org/1999/xlink" x="0px" y="0px"
	 width="106.059px" height="106.059px" viewBox="0 0 106.059 106.059" style="enable-background:new 0 0 106.059 106.059;"
	 xml:space="preserve">
<g>
	<path d="M90.544,90.542c20.687-20.685,20.685-54.342,0.002-75.024C69.858-5.172,36.199-5.172,15.515,15.513
		C-5.173,36.198-5.171,69.858,15.517,90.547C36.199,111.23,69.858,111.23,90.544,90.542z M21.302,21.3
		C38.796,3.807,67.262,3.805,84.759,21.302c17.494,17.494,17.492,45.962-0.002,63.455c-17.493,17.494-45.96,17.496-63.455,0.002
		C3.804,67.263,3.806,38.794,21.302,21.3z M76.017,64.068c-3.843,8.887-12.843,14.629-22.927,14.629
		c-10.301,0-19.354-5.771-23.064-14.703c-0.636-1.529,0.089-3.285,1.62-3.921c0.376-0.155,0.766-0.229,1.15-0.229
		c1.176,0,2.292,0.695,2.771,1.85c2.777,6.686,9.655,11.004,17.523,11.004c7.69,0,14.528-4.321,17.42-11.011
		c0.658-1.521,2.424-2.222,3.944-1.563S76.674,62.548,76.017,64.068z M28.589,47.646h12.982c4.127,0,7.479-3.8,7.589-8.533h7.737
		c0.109,4.733,3.462,8.533,7.589,8.533h12.982c4.197,0,7.601-3.926,7.601-8.771v-0.409c0-4.845-3.403-8.771-7.601-8.771H64.487
		c-3.397,0-6.273,2.574-7.246,6.125h-8.423c-0.973-3.55-3.849-6.125-7.246-6.125H28.589c-4.197,0-7.6,3.926-7.6,8.771v0.409
		C20.989,43.72,24.392,47.646,28.589,47.646z M59.887,38.468c0-3.183,2.063-5.771,4.601-5.771h12.981
		c2.536,0,4.601,2.589,4.601,5.771v0.409c0,3.182-2.063,5.771-4.601,5.771H64.487c-2.536,0-4.601-2.589-4.601-5.771V38.468z
		 M23.989,38.468c0-3.183,2.063-5.771,4.6-5.771h12.982c2.536,0,4.6,2.589,4.6,5.771v0.409c0,3.182-2.063,5.771-4.6,5.771H28.589
		c-2.536,0-4.6-2.589-4.6-5.771V38.468z M31.564,38.671c0-1.77,1.435-3.204,3.203-3.204c1.768,0,3.204,1.435,3.204,3.204
		c0,1.771-1.435,3.205-3.204,3.205C32.999,41.876,31.564,40.441,31.564,38.671z M67.775,38.671c0-1.77,1.435-3.204,3.203-3.204
		c1.768,0,3.203,1.435,3.203,3.204c0,1.771-1.435,3.205-3.203,3.205C69.209,41.876,67.775,40.441,67.775,38.671z"/>
</g>
<g>
</g>
<g>
</g>
<g>
</g>
<g>
</g>
<g>
</g>
<g>
</g>
<g>
</g>
<g>
</g>
<g>
</g>
<g>
</g>
<g>
</g>
<g>
</g>
<g>
</g>
<g>
</g>
<g>
</g>
</svg>
