<?xml version="1.0" encoding="iso-8859-1"?>
<!-- Generator: Adobe Illustrator 16.0.0, SVG Export Plug-In . SVG Version: 6.00 Build 0)  -->
<!DOCTYPE svg PUBLIC "-//W3C//DTD SVG 1.1//EN" "http://www.w3.org/Graphics/SVG/1.1/DTD/svg11.dtd">
<svg version="1.1" id="Capa_1" xmlns="http://www.w3.org/2000/svg" xmlns:xlink="http://www.w3.org/1999/xlink" x="0px" y="0px"
	 width="106.059px" height="106.059px" viewBox="0 0 106.059 106.059" style="enable-background:new 0 0 106.059 106.059;"
	 xml:space="preserve">
<g>
	<path d="M90.546,15.516C69.858-5.171,36.199-5.171,15.516,15.511C-5.173,36.199-5.171,69.858,15.518,90.545
		c20.682,20.686,54.341,20.686,75.026-0.004C111.23,69.858,111.229,36.201,90.546,15.516z M84.757,84.756
		c-17.493,17.494-45.962,17.496-63.455,0.003c-17.498-17.497-17.495-45.966,0-63.46c17.493-17.493,45.96-17.495,63.457,0.002
		C102.253,38.795,102.251,67.263,84.757,84.756z M38.441,44.171c3.586,0,6.5-2.913,6.5-6.5c0-3.588-2.914-6.5-6.5-6.5
		c-3.588,0-6.5,2.912-6.5,6.5C31.941,41.257,34.853,44.171,38.441,44.171z M38.441,33.171c2.48,0,4.5,2.02,4.5,4.5
		c0,2.481-2.02,4.5-4.5,4.5c-2.482,0-4.5-2.019-4.5-4.5C33.941,35.191,35.958,33.171,38.441,33.171z M36.441,37.671
		c0-1.104,0.896-2,2-2s2,0.896,2,2c0,1.104-0.896,2-2,2S36.441,38.775,36.441,37.671z M66.279,44.171c3.586,0,6.5-2.913,6.5-6.5
		c0-3.588-2.914-6.5-6.5-6.5c-3.588,0-6.5,2.912-6.5,6.5C59.779,41.257,62.691,44.171,66.279,44.171z M66.279,33.171
		c2.479,0,4.5,2.02,4.5,4.5c0,2.481-2.021,4.5-4.5,4.5c-2.482,0-4.5-2.019-4.5-4.5C61.779,35.191,63.797,33.171,66.279,33.171z
		 M64.279,37.671c0-1.104,0.896-2,2-2c1.104,0,2,0.896,2,2c0,1.104-0.896,2-2,2C65.175,39.671,64.279,38.775,64.279,37.671z
		 M74.718,77.549c-22.713,20.021-43.377,0-43.377,0c0-11.55,9.711-20.913,21.688-20.913S74.718,66,74.718,77.549z"/>
</g>
<g>
</g>
<g>
</g>
<g>
</g>
<g>
</g>
<g>
</g>
<g>
</g>
<g>
</g>
<g>
</g>
<g>
</g>
<g>
</g>
<g>
</g>
<g>
</g>
<g>
</g>
<g>
</g>
<g>
</g>
</svg>
