<?xml version="1.0" encoding="iso-8859-1"?>
<!-- Generator: Adobe Illustrator 16.0.0, SVG Export Plug-In . SVG Version: 6.00 Build 0)  -->
<!DOCTYPE svg PUBLIC "-//W3C//DTD SVG 1.1//EN" "http://www.w3.org/Graphics/SVG/1.1/DTD/svg11.dtd">
<svg version="1.1" id="Capa_1" xmlns="http://www.w3.org/2000/svg" xmlns:xlink="http://www.w3.org/1999/xlink" x="0px" y="0px"
	 width="106.058px" height="106.059px" viewBox="0 0 106.058 106.059" style="enable-background:new 0 0 106.058 106.059;"
	 xml:space="preserve">
<g>
	<path d="M15.517,90.547c20.682,20.684,54.34,20.684,75.028-0.004c20.686-20.685,20.684-54.342,0.002-75.024
		c-20.689-20.69-54.348-20.69-75.032-0.006C-5.172,36.198-5.17,69.858,15.517,90.547z M21.302,21.299
		C38.794,3.806,67.261,3.804,84.759,21.301c17.494,17.494,17.492,45.962-0.002,63.456c-17.494,17.494-45.963,17.496-63.456,0.002
		C3.804,67.263,3.806,38.793,21.302,21.299z M58.857,41.67c0-4.797,3.904-8.701,8.703-8.701c4.797,0,8.699,3.903,8.699,8.701
		c0,1.381-1.119,2.5-2.5,2.5s-2.5-1.119-2.5-2.5c0-2.041-1.66-3.701-3.699-3.701c-2.043,0-3.703,1.66-3.703,3.701
		c0,1.381-1.119,2.5-2.5,2.5S58.857,43.05,58.857,41.67z M31.134,41.644c0-4.797,3.904-8.701,8.703-8.701
		c4.797,0,8.701,3.903,8.701,8.701c0,1.381-1.119,2.5-2.5,2.5c-1.381,0-2.5-1.119-2.5-2.5c0-2.041-1.66-3.701-3.701-3.701
		c-2.043,0-3.703,1.66-3.703,3.701c0,1.381-1.119,2.5-2.5,2.5S31.134,43.024,31.134,41.644z M71.636,48.948
		c0,2.254-1.826,4.081-4.078,4.081s-4.08-1.827-4.08-4.081c0-2.252,1.828-4.08,4.08-4.08S71.636,46.696,71.636,48.948z
		 M43.914,48.948c0,2.254-1.826,4.081-4.078,4.081s-4.078-1.827-4.078-4.081c0-2.252,1.826-4.08,4.078-4.08
		S43.914,46.696,43.914,48.948z M30.422,71.029c0-1.921,1.559-3.478,3.479-3.478h38.26c1.92,0,3.479,1.557,3.479,3.478
		s-1.559,3.479-3.479,3.479h-38.26C31.98,74.508,30.422,72.95,30.422,71.029z"/>
</g>
<g>
</g>
<g>
</g>
<g>
</g>
<g>
</g>
<g>
</g>
<g>
</g>
<g>
</g>
<g>
</g>
<g>
</g>
<g>
</g>
<g>
</g>
<g>
</g>
<g>
</g>
<g>
</g>
<g>
</g>
</svg>
