<?xml version="1.0" encoding="iso-8859-1"?>
<!-- Generator: Adobe Illustrator 16.0.0, SVG Export Plug-In . SVG Version: 6.00 Build 0)  -->
<!DOCTYPE svg PUBLIC "-//W3C//DTD SVG 1.1//EN" "http://www.w3.org/Graphics/SVG/1.1/DTD/svg11.dtd">
<svg version="1.1" id="Capa_1" xmlns="http://www.w3.org/2000/svg" xmlns:xlink="http://www.w3.org/1999/xlink" x="0px" y="0px"
	 width="106.06px" height="106.06px" viewBox="0 0 106.06 106.06" style="enable-background:new 0 0 106.06 106.06;"
	 xml:space="preserve">
<g>
	<path d="M90.548,15.518C69.857-5.172,36.199-5.172,15.515,15.513C-5.172,36.199-5.17,69.857,15.517,90.547
		c20.682,20.685,54.34,20.685,75.028-0.005C111.23,69.857,111.229,36.201,90.548,15.518z M84.759,84.758
		c-17.494,17.493-45.963,17.495-63.456,0.003c-17.498-17.498-17.496-45.967,0-63.461C38.795,3.808,67.263,3.806,84.761,21.303
		C102.255,38.796,102.253,67.264,84.759,84.758z M76.26,41.671c0,1.381-1.119,2.5-2.5,2.5s-2.5-1.119-2.5-2.5
		c0-2.041-1.66-3.701-3.699-3.701c-2.043,0-3.703,1.66-3.703,3.701c0,1.381-1.119,2.5-2.5,2.5s-2.5-1.119-2.5-2.5
		c0-4.798,3.904-8.701,8.703-8.701C72.357,32.969,76.26,36.873,76.26,41.671z M31.134,41.644c0-4.798,3.904-8.7,8.703-8.7
		c4.797,0,8.701,3.902,8.701,8.7c0,1.381-1.119,2.5-2.5,2.5c-1.381,0-2.5-1.119-2.5-2.5c0-2.04-1.66-3.7-3.701-3.7
		c-2.043,0-3.703,1.66-3.703,3.7c0,1.381-1.119,2.5-2.5,2.5S31.134,43.024,31.134,41.644z M67.559,53.029
		c-2.252,0-4.08-1.827-4.08-4.081c0-2.253,1.828-4.079,4.08-4.079s4.078,1.826,4.078,4.079
		C71.637,51.202,69.811,53.029,67.559,53.029z M43.914,48.948c0,2.254-1.826,4.081-4.078,4.081s-4.078-1.827-4.078-4.081
		c0-2.253,1.826-4.079,4.078-4.079S43.914,46.695,43.914,48.948z M75.639,71.029c0,1.921-1.56,3.479-3.479,3.479h-38.26
		c-1.92,0-3.479-1.559-3.479-3.479s1.559-3.479,3.479-3.479h38.26C74.08,67.551,75.639,69.108,75.639,71.029z M22.736,48.956
		c0,0,0.541,3.958-3.027,4.444c0,0-3.654,0.532-4.156-3.145c0,0-0.229-1.675,0.732-3.641c0,0,0.857-1.729,0.918-4.51
		C17.203,42.106,22.271,45.553,22.736,48.956z M75.083,22.491c1.219,1.818,1.219,3.508,1.219,3.508c0,3.712-3.693,3.679-3.693,3.679
		c-3.6,0-3.6-3.994-3.6-3.994c0-3.437,4.555-7.535,4.555-7.535C74.001,20.895,75.083,22.491,75.083,22.491z M91.029,57.976
		c0,3.711-3.692,3.678-3.692,3.678c-3.601,0-3.601-3.994-3.601-3.994c0-3.436,4.556-7.535,4.556-7.535
		c0.438,2.747,1.52,4.345,1.52,4.345C91.029,56.286,91.029,57.976,91.029,57.976z"/>
</g>
<g>
</g>
<g>
</g>
<g>
</g>
<g>
</g>
<g>
</g>
<g>
</g>
<g>
</g>
<g>
</g>
<g>
</g>
<g>
</g>
<g>
</g>
<g>
</g>
<g>
</g>
<g>
</g>
<g>
</g>
</svg>
