<?xml version="1.0" encoding="iso-8859-1"?>
<!-- Generator: Adobe Illustrator 16.0.0, SVG Export Plug-In . SVG Version: 6.00 Build 0)  -->
<!DOCTYPE svg PUBLIC "-//W3C//DTD SVG 1.1//EN" "http://www.w3.org/Graphics/SVG/1.1/DTD/svg11.dtd">
<svg version="1.1" id="Capa_1" xmlns="http://www.w3.org/2000/svg" xmlns:xlink="http://www.w3.org/1999/xlink" x="0px" y="0px"
	 width="106.06px" height="106.059px" viewBox="0 0 106.06 106.059" style="enable-background:new 0 0 106.06 106.059;"
	 xml:space="preserve">
<g>
	<path d="M90.545,90.542c20.687-20.685,20.685-54.342,0.002-75.024C69.858-5.171,36.199-5.171,15.515,15.513
		C-5.173,36.199-5.171,69.859,15.517,90.547C36.199,111.231,69.858,111.231,90.545,90.542z M21.301,21.3
		C38.795,3.807,67.261,3.805,84.759,21.302c17.494,17.494,17.492,45.962-0.002,63.455c-17.494,17.494-45.961,17.496-63.456,0.002
		C3.803,67.263,3.806,38.794,21.301,21.3z M25.505,38.672c0-1.738,1.409-3.147,3.146-3.147h13.373c1.738,0,3.146,1.409,3.146,3.147
		c0,1.737-1.408,3.146-3.146,3.146H28.651C26.914,41.819,25.505,40.41,25.505,38.672z M60.886,38.673
		c0-1.738,1.409-3.147,3.147-3.147h13.372c1.737,0,3.146,1.409,3.146,3.147c0,1.737-1.408,3.146-3.146,3.146H64.034
		C62.296,41.82,60.886,40.41,60.886,38.673z M36.667,71.169c0,9.026,7.34,16.37,16.363,16.37c9.021,0,16.362-7.344,16.362-16.37
		c0-9.024-7.341-16.365-16.362-16.365C44.006,54.804,36.667,62.145,36.667,71.169z M53.029,60.465c5.9,0,10.703,4.803,10.703,10.705
		c0,5.904-4.803,10.709-10.703,10.709c-5.902,0-10.704-4.806-10.704-10.709S47.127,60.465,53.029,60.465z"/>
</g>
<g>
</g>
<g>
</g>
<g>
</g>
<g>
</g>
<g>
</g>
<g>
</g>
<g>
</g>
<g>
</g>
<g>
</g>
<g>
</g>
<g>
</g>
<g>
</g>
<g>
</g>
<g>
</g>
<g>
</g>
</svg>
