<?xml version="1.0" encoding="iso-8859-1"?>
<!-- Generator: Adobe Illustrator 16.0.0, SVG Export Plug-In . SVG Version: 6.00 Build 0)  -->
<!DOCTYPE svg PUBLIC "-//W3C//DTD SVG 1.1//EN" "http://www.w3.org/Graphics/SVG/1.1/DTD/svg11.dtd">
<svg version="1.1" id="Capa_1" xmlns="http://www.w3.org/2000/svg" xmlns:xlink="http://www.w3.org/1999/xlink" x="0px" y="0px"
	 width="106.058px" height="106.059px" viewBox="0 0 106.058 106.059" style="enable-background:new 0 0 106.058 106.059;"
	 xml:space="preserve">
<g>
	<path d="M15.515,15.512C-5.172,36.198-5.17,69.858,15.517,90.547c20.682,20.684,54.341,20.684,75.028-0.004
		c20.686-20.685,20.684-54.342,0.002-75.024C69.859-5.172,36.199-5.172,15.515,15.512z M84.757,84.758
		c-17.494,17.494-45.961,17.496-63.456,0.002c-17.498-17.497-17.496-45.966,0-63.46C38.795,3.806,67.26,3.804,84.759,21.301
		C102.253,38.795,102.251,67.265,84.757,84.758z M70.71,57.334H35.349c-4.687,0-8.486,3.8-8.486,8.485v9.752
		c0,4.688,3.799,8.486,8.486,8.486H70.71c4.687,0,8.485-3.8,8.485-8.486v-9.752C79.196,61.134,75.397,57.334,70.71,57.334z
		 M38.954,80.755h-5.322c-1.297-0.938-2.271-2.293-2.725-3.872v-4.176h8.047V80.755z M38.954,68.685h-8.047V64.51
		c0.454-1.578,1.428-2.934,2.725-3.872h5.322V68.685z M51.011,80.755h-8.033v-8.046h8.033V80.755z M51.011,68.685h-8.033v-8.047
		h8.033V68.685z M63.081,80.755h-8.032v-8.046h8.032V80.755z M63.081,68.685h-8.032v-8.047h8.032V68.685z M75.152,76.883
		c-0.454,1.578-1.428,2.933-2.725,3.872h-5.322v-8.046h8.047V76.883z M75.152,68.685h-8.047v-8.047h5.322
		c1.297,0.938,2.271,2.294,2.725,3.872V68.685z M28.384,36.617c-1.229-1.229-1.229-3.222,0-4.451s3.222-1.229,4.451,0l9.456,9.455
		c0.014,0.014,0.023,0.031,0.038,0.046c1.16,1.127,1.884,2.701,1.884,4.446c0,3.426-2.777,6.203-6.2,6.203
		c-3.423,0-6.201-2.777-6.201-6.203c0-1.678,0.67-3.198,1.754-4.315L28.384,36.617z M61.844,46.114c0-1.745,0.724-3.319,1.884-4.446
		c0.014-0.015,0.023-0.032,0.038-0.046l9.456-9.455c1.229-1.229,3.222-1.229,4.451,0c1.229,1.229,1.229,3.222-0.001,4.451
		L72.491,41.8c1.083,1.117,1.753,2.637,1.753,4.315c0,3.426-2.776,6.203-6.199,6.203C64.621,52.318,61.844,49.54,61.844,46.114z"/>
</g>
<g>
</g>
<g>
</g>
<g>
</g>
<g>
</g>
<g>
</g>
<g>
</g>
<g>
</g>
<g>
</g>
<g>
</g>
<g>
</g>
<g>
</g>
<g>
</g>
<g>
</g>
<g>
</g>
<g>
</g>
</svg>
