<?xml version="1.0" encoding="iso-8859-1"?>
<!-- Generator: Adobe Illustrator 16.0.0, SVG Export Plug-In . SVG Version: 6.00 Build 0)  -->
<!DOCTYPE svg PUBLIC "-//W3C//DTD SVG 1.1//EN" "http://www.w3.org/Graphics/SVG/1.1/DTD/svg11.dtd">
<svg version="1.1" id="Capa_1" xmlns="http://www.w3.org/2000/svg" xmlns:xlink="http://www.w3.org/1999/xlink" x="0px" y="0px"
	 width="106.059px" height="106.059px" viewBox="0 0 106.059 106.059" style="enable-background:new 0 0 106.059 106.059;"
	 xml:space="preserve">
<g>
	<path d="M90.545,90.542c20.686-20.685,20.684-54.342,0.002-75.024C69.858-5.172,36.198-5.172,15.514,15.513
		C-5.173,36.198-5.171,69.858,15.516,90.547C36.198,111.23,69.858,111.23,90.545,90.542z M21.301,21.3
		C38.795,3.807,67.261,3.805,84.759,21.302c17.494,17.494,17.492,45.962-0.002,63.455c-17.494,17.494-45.961,17.496-63.456,0.002
		C3.803,67.263,3.805,38.794,21.301,21.3z M36.666,71.169c0,9.026,7.34,16.37,16.363,16.37c9.023,0,16.363-7.344,16.363-16.37
		c0-9.024-7.34-16.365-16.363-16.365C44.005,54.804,36.666,62.145,36.666,71.169z M53.028,60.465
		c5.902,0,10.703,4.803,10.703,10.705c0,5.904-4.801,10.709-10.703,10.709c-5.902,0-10.703-4.806-10.703-10.709
		S47.126,60.465,53.028,60.465z M31.745,46.368v-3.554c0-0.181,0.084-0.351,0.225-0.463l4.664-3.68L31.97,34.99
		c-0.141-0.111-0.225-0.28-0.225-0.462v-3.552c0-0.313,0.18-0.604,0.459-0.738c0.113-0.055,0.236-0.082,0.359-0.082
		c0.182,0,0.363,0.062,0.506,0.175l9.756,7.695c0.197,0.158,0.307,0.393,0.307,0.646s-0.109,0.485-0.303,0.641l-9.758,7.697
		c-0.236,0.188-0.58,0.229-0.859,0.1C31.919,46.965,31.745,46.682,31.745,46.368z M64.174,39.314
		c-0.197-0.158-0.31-0.392-0.31-0.645s0.111-0.486,0.306-0.642l9.756-7.697c0.237-0.188,0.58-0.229,0.858-0.1
		c0.293,0.146,0.468,0.428,0.468,0.741v3.554c0,0.181-0.082,0.352-0.226,0.463l-4.664,3.681l4.664,3.681
		c0.144,0.112,0.226,0.281,0.226,0.462v3.552c0,0.313-0.181,0.604-0.459,0.738c-0.113,0.055-0.236,0.082-0.359,0.082
		c-0.182,0-0.363-0.062-0.506-0.175L64.174,39.314z"/>
</g>
<g>
</g>
<g>
</g>
<g>
</g>
<g>
</g>
<g>
</g>
<g>
</g>
<g>
</g>
<g>
</g>
<g>
</g>
<g>
</g>
<g>
</g>
<g>
</g>
<g>
</g>
<g>
</g>
<g>
</g>
</svg>
