<?xml version="1.0" encoding="iso-8859-1"?>
<!-- Generator: Adobe Illustrator 16.0.0, SVG Export Plug-In . SVG Version: 6.00 Build 0)  -->
<!DOCTYPE svg PUBLIC "-//W3C//DTD SVG 1.1//EN" "http://www.w3.org/Graphics/SVG/1.1/DTD/svg11.dtd">
<svg version="1.1" id="Capa_1" xmlns="http://www.w3.org/2000/svg" xmlns:xlink="http://www.w3.org/1999/xlink" x="0px" y="0px"
	 width="106.061px" height="106.061px" viewBox="0 0 106.061 106.061" style="enable-background:new 0 0 106.061 106.061;"
	 xml:space="preserve">
<g>
	<path d="M47.942,105.818c0.505,0.049,1.012,0.073,1.519,0.107c0.341,0.021,0.681,0.059,1.022,0.072
		c14.421,0.688,29.072-4.465,40.062-15.457c20.687-20.684,20.685-54.339,0.002-75.022C80.204,5.175,66.616,0.002,53.03,0.002
		C39.443,0,25.857,5.172,15.515,15.515C-5.173,36.201-5.171,69.859,15.517,90.547C24.566,99.597,36.098,104.688,47.942,105.818z
		 M21.304,21.301c8.747-8.747,20.236-13.12,31.726-13.12s22.979,4.374,31.729,13.122c17.494,17.493,17.492,45.962-0.002,63.454
		c-9.293,9.293-21.683,13.649-33.878,13.069c-10.763-0.512-21.374-4.866-29.573-13.065C3.806,67.263,3.808,38.795,21.304,21.301z
		 M46.281,72.879c0-10.014,0.823-18.139,8.002-18.139c7.176,0,9.998,8.125,9.998,18.139c0,10.02-2.822,18.143-9.998,18.143
		C47.104,91.02,46.281,82.896,46.281,72.879z M32.769,37.113c0-1.363,0.445-2.619,1.189-3.643c1.12,1.609,2.981,2.666,5.09,2.666
		c2.062,0,3.884-1.012,5.011-2.561c0.698,1.004,1.11,2.222,1.11,3.537c0,3.424-2.776,6.201-6.2,6.201
		C35.547,43.314,32.769,40.537,32.769,37.113z M60.887,37.113c0-1.363,0.445-2.619,1.189-3.643c1.12,1.609,2.98,2.666,5.09,2.666
		c2.062,0,3.884-1.012,5.011-2.561c0.698,1.004,1.11,2.222,1.11,3.537c0,3.424-2.776,6.201-6.2,6.201
		C63.665,43.314,60.887,40.537,60.887,37.113z"/>
</g>
<g>
</g>
<g>
</g>
<g>
</g>
<g>
</g>
<g>
</g>
<g>
</g>
<g>
</g>
<g>
</g>
<g>
</g>
<g>
</g>
<g>
</g>
<g>
</g>
<g>
</g>
<g>
</g>
<g>
</g>
</svg>
